<?xml version="1.0" encoding="UTF-8" standalone="no"?>
<svg
   style="isolation:isolate"
   width="252.84735"
   height="319.41754"
   viewBox="0 0 252.84735 319.41754"
   version="1.1"
   id="svg1"
   sodipodi:docname="smalldeer.svg"
   inkscape:export-filename="circletest5.svg"
   inkscape:export-xdpi="96"
   inkscape:export-ydpi="96"
   xmlns:inkscape="http://www.inkscape.org/namespaces/inkscape"
   xmlns:sodipodi="http://sodipodi.sourceforge.net/DTD/sodipodi-0.dtd"
   xmlns="http://www.w3.org/2000/svg"
   xmlns:svg="http://www.w3.org/2000/svg">
  <sodipodi:namedview
     id="namedview1"
     pagecolor="#ffffff"
     bordercolor="#000000"
     borderopacity="0.25"
     inkscape:showpageshadow="2"
     inkscape:pageopacity="0.0"
     inkscape:pagecheckerboard="0"
     inkscape:deskcolor="#d1d1d1">
    <inkscape:page
       x="0"
       y="0"
       width="252.84735"
       height="319.41754"
       id="page2"
       margin="0"
       bleed="0" />
  </sodipodi:namedview>
  <defs
     id="defs1">
    <clipPath
       id="_clipPath_ufUKWNh03Q0ow8cg9bS2G9dNbT4C2wP3">
      <rect
         width="636"
         height="833.5"
         id="rect1"
         x="0"
         y="0" />
    </clipPath>
  </defs>
  <g
     clip-path="url(#_clipPath_ufUKWNh03Q0ow8cg9bS2G9dNbT4C2wP3)"
     id="g1"
     transform="translate(-222.04559,-272.83539)">
    <path
       style="isolation:isolate;fill:#000000"
       d="m 261.132,272.83539 c -12.80059,1.0972 -20.48094,3.29158 -24.50398,7.31463 -4.02305,4.02304 -4.02305,4.02304 -8.04609,11.70339 -4.02304,7.68035 -6.58316,5.48597 -5.12023,15.72644 1.46292,10.24047 -6.58316,9.50901 4.7545,16.82363 11.33767,7.31462 -1.09719,9.14328 21.94387,11.70339 23.04106,2.56012 20.84667,8.77755 27.0641,1.82866 6.21743,-6.94889 5.48596,-3.29158 7.68035,-10.24047 2.19439,-6.94889 6.94889,0 1.46293,-14.62925 -5.48597,-14.62924 -7.31463,-15.3607 -14.26352,-24.86971 -6.94889,-9.50901 -10.97193,-15.36071 -10.97193,-15.36071 z"
       id="path2" />
    <path
       id="path3"
       style="isolation:isolate;fill:none;stroke:#000000;stroke-linecap:square;stroke-miterlimit:3;stroke-dasharray:none;paint-order:normal"
       d="m 427.53944,494.10271 a 97.650002,97.6502 0 0 1 -97.65,97.6502 97.650002,97.6502 0 0 1 -97.65001,-97.6502 97.650002,97.6502 0 0 1 97.65001,-97.6502 97.650002,97.6502 0 0 1 97.65,97.6502 z" />
    <path
       fill="none"
       fill-rule="evenodd"
       stroke="#000000"
       stroke-linecap="square"
       stroke-linejoin="miter"
       stroke-miterlimit="3"
       stroke-width="1"
       d="m 470.69591,361.34232 c -9.50901,5.85169 -41.32762,0.36573 -34.01299,6.21743 7.31462,5.85169 -29.43449,1.09357 -29.43449,1.09357 l -7.50435,16.09579 c 0,0 -14.99497,-4.75451 -15.36071,-12.06913 -0.36573,-7.31462 -8.96148,-16.99617 -0.73146,-19.38375 13.16416,-3.81901 35.0683,-1.53651 28.16129,-13.16631 -5.54323,-9.33352 -1.82865,-8.04609 14.99498,-7.31463 16.82363,0.73146 17.92082,7.68035 29.25849,-1.09719 11.33766,-8.77755 21.94386,-4.38878 12.06912,-16.82363 -9.87474,-12.43486 -5.85169,-14.99498 -21.94386,-17.18936 -16.09217,-2.19439 -19.38375,-6.94889 -39.49896,-2.92585 -20.11521,4.02304 -19.74948,1.09719 -33.28153,10.24047 -13.53205,9.14328 -31.08714,-13.89779 -40.23042,11.33766 -9.14327,25.23544 2.92585,23.40679 9.50901,36.57311 6.58316,13.16632 2.56012,12.43486 16.82363,24.50398 14.26351,12.06913 8.04608,15.36071 27.79556,16.82363 27.34175,19.30437 104.80625,-45.24854 83.38669,-32.91579 z"
       vector-effect="non-scaling-stroke"
       id="path1"
       sodipodi:nodetypes="ssccssssssssssssss"
       style="stroke-dasharray:none" />
  </g>
</svg>
