<?xml version="1.0" encoding="UTF-8" standalone="no"?>
<svg
   style="isolation:isolate"
   width="582.13226"
   height="612.13226"
   viewBox="0 0 582.13227 612.13226"
   version="1.1"
   id="svg1"
   sodipodi:docname="circletest10.svg"
   inkscape:export-filename="circletest34.svg"
   inkscape:export-xdpi="96"
   inkscape:export-ydpi="96"
   xmlns:inkscape="http://www.inkscape.org/namespaces/inkscape"
   xmlns:sodipodi="http://sodipodi.sourceforge.net/DTD/sodipodi-0.dtd"
   xmlns="http://www.w3.org/2000/svg"
   xmlns:svg="http://www.w3.org/2000/svg">
  <sodipodi:namedview
     id="namedview1"
     pagecolor="#ffffff"
     bordercolor="#000000"
     borderopacity="0.25"
     inkscape:showpageshadow="2"
     inkscape:pageopacity="0.0"
     inkscape:pagecheckerboard="0"
     inkscape:deskcolor="#d1d1d1">
    <inkscape:page
       x="0"
       y="0"
       width="582.13226"
       height="612.13226"
       id="page1"
       margin="0"
       bleed="0" />
  </sodipodi:namedview>
  <defs
     id="defs1">
    <clipPath
       id="_clipPath_ufUKWNh03Q0ow8cg9bS2G9dNbT4C2wP3">
      <rect
         width="636"
         height="833.5"
         id="rect1"
         x="0"
         y="0" />
    </clipPath>
  </defs>
  <g
     clip-path="url(#_clipPath_ufUKWNh03Q0ow8cg9bS2G9dNbT4C2wP3)"
     id="g1"
     transform="matrix(1.3799313,0,0,1.3799313,-173.51903,-274.91503)">
    <path
       id="path5-9-5"
       style="isolation:isolate;fill:#000000;fill-opacity:1;stroke:#000000;stroke-width:0.560149;stroke-linecap:square;stroke-miterlimit:3;stroke-dashoffset:147.427"
       d="m 348.78241,392.43011 a 1.9418574,1.9418574 0 0 1 -1.94186,1.94186 1.9418574,1.9418574 0 0 1 -1.94187,-1.94186 1.9418574,1.9418574 0 0 1 1.94187,-1.94186 1.9418574,1.9418574 0 0 1 1.94186,1.94186 z" />
    <path
       id="path5-9-5-5"
       style="isolation:isolate;fill:#000000;fill-opacity:1;stroke:#000000;stroke-width:0.560149;stroke-linecap:square;stroke-miterlimit:3;stroke-dashoffset:147.427"
       d="m 358.18073,421.74646 a 1.9418574,1.9418574 0 0 1 -1.94186,1.94187 1.9418574,1.9418574 0 0 1 -1.94187,-1.94187 1.9418574,1.9418574 0 0 1 1.94187,-1.94186 1.9418574,1.9418574 0 0 1 1.94186,1.94186 z" />
    <path
       id="path5-9-5-5-9"
       style="isolation:isolate;fill:#000000;fill-opacity:1;stroke:#000000;stroke-width:0.560149;stroke-linecap:square;stroke-miterlimit:3;stroke-dashoffset:147.427"
       d="m 389.00605,444.43255 a 1.9418574,1.9418574 0 0 1 -1.94186,1.94187 1.9418574,1.9418574 0 0 1 -1.94187,-1.94187 1.9418574,1.9418574 0 0 1 1.94187,-1.94187 1.9418574,1.9418574 0 0 1 1.94186,1.94187 z" />
    <path
       id="path5-9-5-5-9-5"
       style="isolation:isolate;fill:#000000;fill-opacity:1;stroke:#000000;stroke-width:0.560149;stroke-linecap:square;stroke-miterlimit:3;stroke-dashoffset:147.427"
       d="m 384.26898,458.70484 a 1.9418574,1.9418574 0 0 1 -1.94186,1.94187 1.9418574,1.9418574 0 0 1 -1.94187,-1.94187 1.9418574,1.9418574 0 0 1 1.94187,-1.94187 1.9418574,1.9418574 0 0 1 1.94186,1.94187 z" />
    <path
       id="path5-9-5-5-9-9"
       style="isolation:isolate;fill:#000000;fill-opacity:1;stroke:#000000;stroke-width:0.560149;stroke-linecap:square;stroke-miterlimit:3;stroke-dashoffset:147.427"
       d="m 392.24039,423.9205 a 1.9418574,1.9418574 0 0 1 -1.94186,1.94187 1.9418574,1.9418574 0 0 1 -1.94187,-1.94187 1.9418574,1.9418574 0 0 1 1.94187,-1.94187 1.9418574,1.9418574 0 0 1 1.94186,1.94187 z" />
    <path
       id="path5-9-5-5-9-3"
       style="isolation:isolate;fill:#000000;fill-opacity:1;stroke:#000000;stroke-width:0.560149;stroke-linecap:square;stroke-miterlimit:3;stroke-dashoffset:147.427"
       d="m 352.38334,350.72845 a 1.9418574,1.9418574 0 0 1 -1.94186,1.94187 1.9418574,1.9418574 0 0 1 -1.94187,-1.94187 1.9418574,1.9418574 0 0 1 1.94187,-1.94187 1.9418574,1.9418574 0 0 1 1.94186,1.94187 z" />
    <path
       id="path5-9-5-5-9-6"
       style="isolation:isolate;fill:#000000;fill-opacity:1;stroke:#000000;stroke-width:0.560149;stroke-linecap:square;stroke-miterlimit:3;stroke-dashoffset:147.427"
       d="m 350.93399,370.29464 a 1.9418574,1.9418574 0 0 1 -1.94186,1.94187 1.9418574,1.9418574 0 0 1 -1.94187,-1.94187 1.9418574,1.9418574 0 0 1 1.94187,-1.94187 1.9418574,1.9418574 0 0 1 1.94186,1.94187 z" />
    <path
       id="path5-9-5-5-9-55"
       style="isolation:isolate;fill:#000000;fill-opacity:1;stroke:#000000;stroke-width:0.560149;stroke-linecap:square;stroke-miterlimit:3;stroke-dashoffset:147.427"
       d="m 333.54182,343.48171 a 1.9418574,1.9418574 0 0 1 -1.94186,1.94187 1.9418574,1.9418574 0 0 1 -1.94187,-1.94187 1.9418574,1.9418574 0 0 1 1.94187,-1.94187 1.9418574,1.9418574 0 0 1 1.94186,1.94187 z" />
    <path
       id="path5-9-5-5-9-4"
       style="isolation:isolate;fill:#000000;fill-opacity:1;stroke:#000000;stroke-width:0.560149;stroke-linecap:square;stroke-miterlimit:3;stroke-dashoffset:147.427"
       d="m 316.87432,345.65573 a 1.9418574,1.9418574 0 0 1 -1.94186,1.94187 1.9418574,1.9418574 0 0 1 -1.94187,-1.94187 1.9418574,1.9418574 0 0 1 1.94187,-1.94187 1.9418574,1.9418574 0 0 1 1.94186,1.94187 z" />
    <path
       id="path5-9-5-5-9-61"
       style="isolation:isolate;fill:#000000;fill-opacity:1;stroke:#000000;stroke-width:0.560149;stroke-linecap:square;stroke-miterlimit:3;stroke-dashoffset:147.427"
       d="m 252.84245,385.94596 a 1.9418574,1.9418574 0 0 1 -1.94186,1.94187 1.9418574,1.9418574 0 0 1 -1.94187,-1.94187 1.9418574,1.9418574 0 0 1 1.94187,-1.94187 1.9418574,1.9418574 0 0 1 1.94186,1.94187 z" />
    <path
       id="path5-9-5-5-9-8"
       style="isolation:isolate;fill:#000000;fill-opacity:1;stroke:#000000;stroke-width:0.560149;stroke-linecap:square;stroke-miterlimit:3;stroke-dashoffset:147.427"
       d="m 275.56792,389.13616 a 1.9418574,1.9418574 0 0 1 -1.94186,1.94187 1.9418574,1.9418574 0 0 1 -1.94187,-1.94187 1.9418574,1.9418574 0 0 1 1.94187,-1.94187 1.9418574,1.9418574 0 0 1 1.94186,1.94187 z" />
    <path
       id="path5-9-5-5-9-29"
       style="isolation:isolate;fill:#000000;fill-opacity:1;stroke:#000000;stroke-width:0.560149;stroke-linecap:square;stroke-miterlimit:3;stroke-dashoffset:147.427"
       d="m 290.06139,485.51776 a 1.9418574,1.9418574 0 0 1 -1.94186,1.94187 1.9418574,1.9418574 0 0 1 -1.94187,-1.94187 1.9418574,1.9418574 0 0 1 1.94187,-1.94187 1.9418574,1.9418574 0 0 1 1.94186,1.94187 z" />
    <path
       id="path5-9-5-5-9-99"
       style="isolation:isolate;fill:#000000;fill-opacity:1;stroke:#000000;stroke-width:0.560149;stroke-linecap:square;stroke-miterlimit:3;stroke-dashoffset:147.427"
       d="m 292.23542,463.77755 a 1.9418574,1.9418574 0 0 1 -1.94186,1.94187 1.9418574,1.9418574 0 0 1 -1.94187,-1.94187 1.9418574,1.9418574 0 0 1 1.94187,-1.94187 1.9418574,1.9418574 0 0 1 1.94186,1.94187 z" />
    <path
       id="path5-9-5-5-9-26"
       style="isolation:isolate;fill:#000000;fill-opacity:1;stroke:#000000;stroke-width:0.560149;stroke-linecap:square;stroke-miterlimit:3;stroke-dashoffset:147.427"
       d="m 274.84325,478.27103 a 1.9418574,1.9418574 0 0 1 -1.94186,1.94187 1.9418574,1.9418574 0 0 1 -1.94187,-1.94187 1.9418574,1.9418574 0 0 1 1.94187,-1.94187 1.9418574,1.9418574 0 0 1 1.94186,1.94187 z" />
    <path
       id="path5-9-5-5-9-0"
       style="isolation:isolate;fill:#000000;fill-opacity:1;stroke:#000000;stroke-width:0.560149;stroke-linecap:square;stroke-miterlimit:3;stroke-dashoffset:147.427"
       d="m 253.10303,484.06842 a 1.9418574,1.9418574 0 0 1 -1.94186,1.94187 1.9418574,1.9418574 0 0 1 -1.94187,-1.94187 1.9418574,1.9418574 0 0 1 1.94187,-1.94187 1.9418574,1.9418574 0 0 1 1.94186,1.94187 z" />
    <path
       id="path5-9-5-5-9-37"
       style="isolation:isolate;fill:#000000;fill-opacity:1;stroke:#000000;stroke-width:0.560149;stroke-linecap:square;stroke-miterlimit:3;stroke-dashoffset:147.427"
       d="m 236.43554,481.16972 a 1.9418574,1.9418574 0 0 1 -1.94186,1.94187 1.9418574,1.9418574 0 0 1 -1.94187,-1.94187 1.9418574,1.9418574 0 0 1 1.94187,-1.94187 1.9418574,1.9418574 0 0 1 1.94186,1.94187 z" />
    <path
       id="path5-9-5-5-9-260"
       style="isolation:isolate;fill:#000000;fill-opacity:1;stroke:#000000;stroke-width:0.560149;stroke-linecap:square;stroke-miterlimit:3;stroke-dashoffset:147.427"
       d="m 228.46413,494.21385 a 1.9418574,1.9418574 0 0 1 -1.94186,1.94187 1.9418574,1.9418574 0 0 1 -1.94187,-1.94187 1.9418574,1.9418574 0 0 1 1.94187,-1.94187 1.9418574,1.9418574 0 0 1 1.94186,1.94187 z" />
    <path
       id="path5-9-5-5-9-65"
       style="isolation:isolate;fill:#000000;fill-opacity:1;stroke:#000000;stroke-width:0.560149;stroke-linecap:square;stroke-miterlimit:3;stroke-dashoffset:147.427"
       d="m 221.94206,507.25798 a 1.9418574,1.9418574 0 0 1 -1.94186,1.94187 1.9418574,1.9418574 0 0 1 -1.94187,-1.94187 1.9418574,1.9418574 0 0 1 1.94187,-1.94187 1.9418574,1.9418574 0 0 1 1.94186,1.94187 z" />
    <path
       id="path5-9-5-5-9-90"
       style="isolation:isolate;fill:#000000;fill-opacity:1;stroke:#000000;stroke-width:0.560149;stroke-linecap:square;stroke-miterlimit:3;stroke-dashoffset:147.427"
       d="m 192.23044,428.99321 a 1.9418574,1.9418574 0 0 1 -1.94186,1.94187 1.9418574,1.9418574 0 0 1 -1.94187,-1.94187 1.9418574,1.9418574 0 0 1 1.94187,-1.94187 1.9418574,1.9418574 0 0 1 1.94186,1.94187 z" />
    <path
       id="path5-9-5-5-9-31"
       style="isolation:isolate;fill:#000000;fill-opacity:1;stroke:#000000;stroke-width:0.560149;stroke-linecap:square;stroke-miterlimit:3;stroke-dashoffset:147.427"
       d="m 174.83827,441.31267 a 1.9418574,1.9418574 0 0 1 -1.94186,1.94187 1.9418574,1.9418574 0 0 1 -1.94187,-1.94187 1.9418574,1.9418574 0 0 1 1.94187,-1.94187 1.9418574,1.9418574 0 0 1 1.94186,1.94187 z" />
    <path
       id="path5-9-5-5-9-19"
       style="isolation:isolate;fill:#000000;fill-opacity:1;stroke:#000000;stroke-width:0.560149;stroke-linecap:square;stroke-miterlimit:3;stroke-dashoffset:147.427"
       d="m 174.83827,465.2269 a 1.9418574,1.9418574 0 0 1 -1.94186,1.94187 1.9418574,1.9418574 0 0 1 -1.94187,-1.94187 1.9418574,1.9418574 0 0 1 1.94187,-1.94187 1.9418574,1.9418574 0 0 1 1.94186,1.94187 z" />
    <path
       id="path5-9-5-5-9-38"
       style="isolation:isolate;fill:#000000;fill-opacity:1;stroke:#000000;stroke-width:0.560149;stroke-linecap:square;stroke-miterlimit:3;stroke-dashoffset:147.427"
       d="m 169.04088,454.35679 a 1.9418574,1.9418574 0 0 1 -1.94186,1.94187 1.9418574,1.9418574 0 0 1 -1.94187,-1.94187 1.9418574,1.9418574 0 0 1 1.94187,-1.94187 1.9418574,1.9418574 0 0 1 1.94186,1.94187 z" />
    <path
       id="path5-9-5-5-9-91"
       style="isolation:isolate;fill:#000000;fill-opacity:1;stroke:#000000;stroke-width:0.560149;stroke-linecap:square;stroke-miterlimit:3;stroke-dashoffset:147.427"
       d="m 181.36033,480.44505 a 1.9418574,1.9418574 0 0 1 -1.94186,1.94187 1.9418574,1.9418574 0 0 1 -1.94187,-1.94187 1.9418574,1.9418574 0 0 1 1.94187,-1.94187 1.9418574,1.9418574 0 0 1 1.94186,1.94187 z" />
    <path
       id="path5-9-5-5-9-10"
       style="isolation:isolate;fill:#000000;fill-opacity:1;stroke:#000000;stroke-width:0.560149;stroke-linecap:square;stroke-miterlimit:3;stroke-dashoffset:147.427"
       d="m 163.24349,430.44256 a 1.9418574,1.9418574 0 0 1 -1.94186,1.94187 1.9418574,1.9418574 0 0 1 -1.94187,-1.94187 1.9418574,1.9418574 0 0 1 1.94187,-1.94187 1.9418574,1.9418574 0 0 1 1.94186,1.94187 z" />
    <path
       id="path5-9-5-5-9-317"
       style="isolation:isolate;fill:#000000;fill-opacity:1;stroke:#000000;stroke-width:0.560149;stroke-linecap:square;stroke-miterlimit:3;stroke-dashoffset:147.427"
       d="m 160.34479,406.52833 a 1.9418574,1.9418574 0 0 1 -1.94186,1.94187 1.9418574,1.9418574 0 0 1 -1.94187,-1.94187 1.9418574,1.9418574 0 0 1 1.94187,-1.94187 1.9418574,1.9418574 0 0 1 1.94186,1.94187 z" />
    <path
       id="path5-9-5-5-9-11"
       style="isolation:isolate;fill:#000000;fill-opacity:1;stroke:#000000;stroke-width:0.560149;stroke-linecap:square;stroke-miterlimit:3;stroke-dashoffset:147.427"
       d="m 208.17326,354.35181 a 1.9418574,1.9418574 0 0 1 -1.94186,1.94187 1.9418574,1.9418574 0 0 1 -1.94187,-1.94187 1.9418574,1.9418574 0 0 1 1.94187,-1.94187 1.9418574,1.9418574 0 0 1 1.94186,1.94187 z" />
    <path
       id="path5-9-5-5-9-49"
       style="isolation:isolate;fill:#000000;fill-opacity:1;stroke:#000000;stroke-width:0.560149;stroke-linecap:square;stroke-miterlimit:3;stroke-dashoffset:147.427"
       d="m 221.21739,342.03236 a 1.9418574,1.9418574 0 0 1 -1.94186,1.94187 1.9418574,1.9418574 0 0 1 -1.94187,-1.94187 1.9418574,1.9418574 0 0 1 1.94187,-1.94187 1.9418574,1.9418574 0 0 1 1.94186,1.94187 z" />
    <path
       id="path5-9-5-5-9-907"
       style="isolation:isolate;fill:#000000;fill-opacity:1;stroke:#000000;stroke-width:0.560149;stroke-linecap:square;stroke-miterlimit:3;stroke-dashoffset:147.427"
       d="m 180.63566,353.62714 a 1.9418574,1.9418574 0 0 1 -1.94186,1.94187 1.9418574,1.9418574 0 0 1 -1.94187,-1.94187 1.9418574,1.9418574 0 0 1 1.94187,-1.94187 1.9418574,1.9418574 0 0 1 1.94186,1.94187 z" />
    <path
       id="path5-9-5-5-9-296"
       style="isolation:isolate;fill:#000000;fill-opacity:1;stroke:#000000;stroke-width:0.560149;stroke-linecap:square;stroke-miterlimit:3;stroke-dashoffset:147.427"
       d="m 190.05642,337.68432 a 1.9418574,1.9418574 0 0 1 -1.94186,1.94187 1.9418574,1.9418574 0 0 1 -1.94187,-1.94187 1.9418574,1.9418574 0 0 1 1.94187,-1.94187 1.9418574,1.9418574 0 0 1 1.94186,1.94187 z" />
    <path
       id="path5-9-5-5-9-48"
       style="isolation:isolate;fill:#000000;fill-opacity:1;stroke:#000000;stroke-width:0.560149;stroke-linecap:square;stroke-miterlimit:3;stroke-dashoffset:147.427"
       d="m 265.42249,300.72596 a 1.9418574,1.9418574 0 0 1 -1.94186,1.94187 1.9418574,1.9418574 0 0 1 -1.94187,-1.94187 1.9418574,1.9418574 0 0 1 1.94187,-1.94187 1.9418574,1.9418574 0 0 1 1.94186,1.94187 z" />
    <path
       id="path5-9-5-5-9-115"
       style="isolation:isolate;fill:#000000;fill-opacity:1;stroke:#000000;stroke-width:0.560149;stroke-linecap:square;stroke-miterlimit:3;stroke-dashoffset:147.427"
       d="m 263.97314,323.19084 a 1.9418574,1.9418574 0 0 1 -1.94186,1.94187 1.9418574,1.9418574 0 0 1 -1.94187,-1.94187 1.9418574,1.9418574 0 0 1 1.94187,-1.94187 1.9418574,1.9418574 0 0 1 1.94186,1.94187 z" />
    <path
       id="path5-9-5-5-9-53"
       style="isolation:isolate;fill:#000000;fill-opacity:1;stroke:#000000;stroke-width:0.560149;stroke-linecap:square;stroke-miterlimit:3;stroke-dashoffset:147.427"
       d="m 361.07942,321.7415 a 1.9418574,1.9418574 0 0 1 -1.94186,1.94187 1.9418574,1.9418574 0 0 1 -1.94187,-1.94187 1.9418574,1.9418574 0 0 1 1.94187,-1.94187 1.9418574,1.9418574 0 0 1 1.94186,1.94187 z" />
    <path
       id="path5-9-5-5-9-15"
       style="isolation:isolate;fill:#000000;fill-opacity:1;stroke:#000000;stroke-width:0.560149;stroke-linecap:square;stroke-miterlimit:3;stroke-dashoffset:147.427"
       d="m 360.35475,297.10259 a 1.9418574,1.9418574 0 0 1 -1.94186,1.94187 1.9418574,1.9418574 0 0 1 -1.94187,-1.94187 1.9418574,1.9418574 0 0 1 1.94187,-1.94187 1.9418574,1.9418574 0 0 1 1.94186,1.94187 z" />
    <path
       id="path5-9-5-5-9-43"
       style="isolation:isolate;fill:#000000;fill-opacity:1;stroke:#000000;stroke-width:0.560149;stroke-linecap:square;stroke-miterlimit:3;stroke-dashoffset:147.427"
       d="m 340.78856,289.85585 a 1.9418574,1.9418574 0 0 1 -1.94186,1.94187 1.9418574,1.9418574 0 0 1 -1.94187,-1.94187 1.9418574,1.9418574 0 0 1 1.94187,-1.94187 1.9418574,1.9418574 0 0 1 1.94186,1.94187 z" />
    <path
       id="path5-9-5-5-9-54"
       style="isolation:isolate;fill:#000000;fill-opacity:1;stroke:#000000;stroke-width:0.560149;stroke-linecap:square;stroke-miterlimit:3;stroke-dashoffset:147.427"
       d="m 345.37394,268.5271 a 1.9418574,1.9418574 0 0 1 -1.94186,1.94187 1.9418574,1.9418574 0 0 1 -1.94187,-1.94187 1.9418574,1.9418574 0 0 1 1.94187,-1.94187 1.9418574,1.9418574 0 0 1 1.94186,1.94187 z" />
    <path
       id="path5-9-5-5-9-264"
       style="isolation:isolate;fill:#000000;fill-opacity:1;stroke:#000000;stroke-width:0.560149;stroke-linecap:square;stroke-miterlimit:3;stroke-dashoffset:147.427"
       d="m 378.47159,257.97021 a 1.9418574,1.9418574 0 0 1 -1.94186,1.94187 1.9418574,1.9418574 0 0 1 -1.94187,-1.94187 1.9418574,1.9418574 0 0 1 1.94187,-1.94187 1.9418574,1.9418574 0 0 1 1.94186,1.94187 z" />
    <path
       id="path5-9-5-5-9-17"
       style="isolation:isolate;fill:#000000;fill-opacity:1;stroke:#000000;stroke-width:0.560149;stroke-linecap:square;stroke-miterlimit:3;stroke-dashoffset:147.427"
       d="m 356.00671,253.62216 a 1.9418574,1.9418574 0 0 1 -1.94186,1.94187 1.9418574,1.9418574 0 0 1 -1.94187,-1.94187 1.9418574,1.9418574 0 0 1 1.94187,-1.94187 1.9418574,1.9418574 0 0 1 1.94186,1.94187 z" />
    <path
       id="path5-9-5-5-9-95"
       style="isolation:isolate;fill:#000000;fill-opacity:1;stroke:#000000;stroke-width:0.560149;stroke-linecap:square;stroke-miterlimit:3;stroke-dashoffset:147.427"
       d="m 248.75499,409.42702 a 1.9418574,1.9418574 0 0 1 -1.94186,1.94187 1.9418574,1.9418574 0 0 1 -1.94187,-1.94187 1.9418574,1.9418574 0 0 1 1.94187,-1.94187 1.9418574,1.9418574 0 0 1 1.94186,1.94187 z" />
    <path
       id="path5-9-5-5-9-1"
       style="isolation:isolate;fill:#000000;fill-opacity:1;stroke:#000000;stroke-width:0.560149;stroke-linecap:square;stroke-miterlimit:3;stroke-dashoffset:147.427"
       d="m 232.81217,379.7154 a 1.9418574,1.9418574 0 0 1 -1.94186,1.94187 1.9418574,1.9418574 0 0 1 -1.94187,-1.94187 1.9418574,1.9418574 0 0 1 1.94187,-1.94187 1.9418574,1.9418574 0 0 1 1.94186,1.94187 z" />
    <path
       id="path5-9-5-5-9-2"
       style="isolation:isolate;fill:#000000;fill-opacity:1;stroke:#000000;stroke-width:0.560149;stroke-linecap:square;stroke-miterlimit:3;stroke-dashoffset:147.427"
       d="m 235.71086,355.80116 a 1.9418574,1.9418574 0 0 1 -1.94186,1.94187 1.9418574,1.9418574 0 0 1 -1.94187,-1.94187 1.9418574,1.9418574 0 0 1 1.94187,-1.94187 1.9418574,1.9418574 0 0 1 1.94186,1.94187 z" />
    <path
       id="path5-9-5-5-9-7"
       style="isolation:isolate;fill:#000000;fill-opacity:1;stroke:#000000;stroke-width:0.560149;stroke-linecap:square;stroke-miterlimit:3;stroke-dashoffset:147.427"
       d="m 249.47966,342.03236 a 1.9418574,1.9418574 0 0 1 -1.94186,1.94187 1.9418574,1.9418574 0 0 1 -1.94187,-1.94187 1.9418574,1.9418574 0 0 1 1.94187,-1.94187 1.9418574,1.9418574 0 0 1 1.94186,1.94187 z" />
    <path
       id="path5-9-5-9"
       style="isolation:isolate;fill:#000000;fill-opacity:1;stroke:#000000;stroke-width:0.560149;stroke-linecap:square;stroke-miterlimit:3;stroke-dashoffset:147.427"
       d="m 320.49769,416.67375 a 1.9418574,1.9418574 0 0 1 -1.94186,1.94186 1.9418574,1.9418574 0 0 1 -1.94187,-1.94186 1.9418574,1.9418574 0 0 1 1.94187,-1.94186 1.9418574,1.9418574 0 0 1 1.94186,1.94186 z" />
    <path
       id="path5-9-5-6"
       style="isolation:isolate;fill:#000000;fill-opacity:1;stroke:#000000;stroke-width:0.560149;stroke-linecap:square;stroke-miterlimit:3;stroke-dashoffset:147.427"
       d="m 347.31062,445.6607 a 1.9418574,1.9418574 0 0 1 -1.94186,1.94186 1.9418574,1.9418574 0 0 1 -1.94187,-1.94186 1.9418574,1.9418574 0 0 1 1.94187,-1.94186 1.9418574,1.9418574 0 0 1 1.94186,1.94186 z" />
    <path
       id="path5-9-5-4"
       style="isolation:isolate;fill:#000000;fill-opacity:1;stroke:#000000;stroke-width:0.560149;stroke-linecap:square;stroke-miterlimit:3;stroke-dashoffset:147.427"
       d="m 322.67171,455.80613 a 1.9418574,1.9418574 0 0 1 -1.94186,1.94186 1.9418574,1.9418574 0 0 1 -1.94187,-1.94186 1.9418574,1.9418574 0 0 1 1.94187,-1.94186 1.9418574,1.9418574 0 0 1 1.94186,1.94186 z" />
    <path
       id="path5-9-5-48"
       style="isolation:isolate;fill:#000000;fill-opacity:1;stroke:#000000;stroke-width:0.560149;stroke-linecap:square;stroke-miterlimit:3;stroke-dashoffset:147.427"
       d="m 293.68476,447.11005 a 1.9418574,1.9418574 0 0 1 -1.94186,1.94186 1.9418574,1.9418574 0 0 1 -1.94187,-1.94186 1.9418574,1.9418574 0 0 1 1.94187,-1.94186 1.9418574,1.9418574 0 0 1 1.94186,1.94186 z" />
    <path
       id="path5-9-5-98"
       style="isolation:isolate;fill:#000000;fill-opacity:1;stroke:#000000;stroke-width:0.560149;stroke-linecap:square;stroke-miterlimit:3;stroke-dashoffset:147.427"
       d="m 282.81466,419.57244 a 1.9418574,1.9418574 0 0 1 -1.94186,1.94186 1.9418574,1.9418574 0 0 1 -1.94187,-1.94186 1.9418574,1.9418574 0 0 1 1.94187,-1.94186 1.9418574,1.9418574 0 0 1 1.94186,1.94186 z" />
    <path
       id="path5-9-5-94"
       style="isolation:isolate;fill:#000000;fill-opacity:1;stroke:#000000;stroke-width:0.560149;stroke-linecap:square;stroke-miterlimit:3;stroke-dashoffset:147.427"
       d="m 292.23542,391.31017 a 1.9418574,1.9418574 0 0 1 -1.94186,1.94186 1.9418574,1.9418574 0 0 1 -1.94187,-1.94186 1.9418574,1.9418574 0 0 1 1.94187,-1.94186 1.9418574,1.9418574 0 0 1 1.94186,1.94186 z" />
    <path
       id="path5-9-5-65"
       style="isolation:isolate;fill:#000000;fill-opacity:1;stroke:#000000;stroke-width:0.560149;stroke-linecap:square;stroke-miterlimit:3;stroke-dashoffset:147.427"
       d="m 321.22237,379.71539 a 1.9418574,1.9418574 0 0 1 -1.94186,1.94186 1.9418574,1.9418574 0 0 1 -1.94187,-1.94186 1.9418574,1.9418574 0 0 1 1.94187,-1.94186 1.9418574,1.9418574 0 0 1 1.94186,1.94186 z" />
    <path
       id="path5-9-5-5-9-93"
       style="isolation:isolate;fill:#000000;fill-opacity:1;stroke:#000000;stroke-width:0.560149;stroke-linecap:square;stroke-miterlimit:3;stroke-dashoffset:147.427"
       d="m 409.63256,324.64019 a 1.9418574,1.9418574 0 0 1 -1.94186,1.94187 1.9418574,1.9418574 0 0 1 -1.94187,-1.94187 1.9418574,1.9418574 0 0 1 1.94187,-1.94187 1.9418574,1.9418574 0 0 1 1.94186,1.94187 z" />
    <path
       id="path5-9-5-5-9-900"
       style="isolation:isolate;fill:#000000;fill-opacity:1;stroke:#000000;stroke-width:0.560149;stroke-linecap:square;stroke-miterlimit:3;stroke-dashoffset:147.427"
       d="m 427.02474,346.3804 a 1.9418574,1.9418574 0 0 1 -1.94187,1.94187 1.9418574,1.9418574 0 0 1 -1.94187,-1.94187 1.9418574,1.9418574 0 0 1 1.94187,-1.94187 1.9418574,1.9418574 0 0 1 1.94187,1.94187 z" />
    <path
       id="path5-9-5-5-9-24"
       style="isolation:isolate;fill:#000000;fill-opacity:1;stroke:#000000;stroke-width:0.560149;stroke-linecap:square;stroke-miterlimit:3;stroke-dashoffset:147.427"
       d="m 454.56234,345.65573 a 1.9418574,1.9418574 0 0 1 -1.94186,1.94187 1.9418574,1.9418574 0 0 1 -1.94187,-1.94187 1.9418574,1.9418574 0 0 1 1.94187,-1.94187 1.9418574,1.9418574 0 0 1 1.94186,1.94187 z" />
    <path
       id="path5-9-5-5-9-06"
       style="isolation:isolate;fill:#000000;fill-opacity:1;stroke:#000000;stroke-width:0.560149;stroke-linecap:square;stroke-miterlimit:3;stroke-dashoffset:147.427"
       d="m 479.20125,336.95965 a 1.9418574,1.9418574 0 0 1 -1.94187,1.94187 1.9418574,1.9418574 0 0 1 -1.94186,-1.94187 1.9418574,1.9418574 0 0 1 1.94186,-1.94187 1.9418574,1.9418574 0 0 1 1.94187,1.94187 z" />
    <path
       id="path5-9-5-5-9-32"
       style="isolation:isolate;fill:#000000;fill-opacity:1;stroke:#000000;stroke-width:0.560149;stroke-linecap:square;stroke-miterlimit:3;stroke-dashoffset:147.427"
       d="m 446.59093,392.75952 a 1.9418574,1.9418574 0 0 1 -1.94186,1.94187 1.9418574,1.9418574 0 0 1 -1.94187,-1.94187 1.9418574,1.9418574 0 0 1 1.94187,-1.94187 1.9418574,1.9418574 0 0 1 1.94186,1.94187 z" />
    <path
       id="path5-9-5-5-9-87"
       style="isolation:isolate;fill:#000000;fill-opacity:1;stroke:#000000;stroke-width:0.560149;stroke-linecap:square;stroke-miterlimit:3;stroke-dashoffset:147.427"
       d="m 448.76495,417.39843 a 1.9418574,1.9418574 0 0 1 -1.94186,1.94187 1.9418574,1.9418574 0 0 1 -1.94187,-1.94187 1.9418574,1.9418574 0 0 1 1.94187,-1.94187 1.9418574,1.9418574 0 0 1 1.94186,1.94187 z" />
    <path
       id="path5-9-5-5-9-290"
       style="isolation:isolate;fill:#000000;fill-opacity:1;stroke:#000000;stroke-width:0.560149;stroke-linecap:square;stroke-miterlimit:3;stroke-dashoffset:147.427"
       d="m 424.85071,490.59048 a 1.9418574,1.9418574 0 0 1 -1.94186,1.94187 1.9418574,1.9418574 0 0 1 -1.94187,-1.94187 1.9418574,1.9418574 0 0 1 1.94187,-1.94187 1.9418574,1.9418574 0 0 1 1.94186,1.94187 z" />
    <path
       id="path5-9-5-5-9-35"
       style="isolation:isolate;fill:#000000;fill-opacity:1;stroke:#000000;stroke-width:0.560149;stroke-linecap:square;stroke-miterlimit:3;stroke-dashoffset:147.427"
       d="m 446.59093,503.63461 a 1.9418574,1.9418574 0 0 1 -1.94186,1.94187 1.9418574,1.9418574 0 0 1 -1.94187,-1.94187 1.9418574,1.9418574 0 0 1 1.94187,-1.94187 1.9418574,1.9418574 0 0 1 1.94186,1.94187 z" />
    <path
       id="path5-9-5-5-9-16"
       style="isolation:isolate;fill:#000000;fill-opacity:1;stroke:#000000;stroke-width:0.560149;stroke-linecap:square;stroke-miterlimit:3;stroke-dashoffset:147.427"
       d="m 465.43244,524.65015 a 1.9418574,1.9418574 0 0 1 -1.94186,1.94187 1.9418574,1.9418574 0 0 1 -1.94187,-1.94187 1.9418574,1.9418574 0 0 1 1.94187,-1.94187 1.9418574,1.9418574 0 0 1 1.94186,1.94187 z" />
    <path
       id="path5-9-5-5-9-79"
       style="isolation:isolate;fill:#000000;fill-opacity:1;stroke:#000000;stroke-width:0.560149;stroke-linecap:square;stroke-miterlimit:3;stroke-dashoffset:147.427"
       d="m 364.70279,510.88135 a 1.9418574,1.9418574 0 0 1 -1.94186,1.94187 1.9418574,1.9418574 0 0 1 -1.94187,-1.94187 1.9418574,1.9418574 0 0 1 1.94187,-1.94187 1.9418574,1.9418574 0 0 1 1.94186,1.94187 z" />
    <path
       id="path5-9-5-5-9-84"
       style="isolation:isolate;fill:#000000;fill-opacity:1;stroke:#000000;stroke-width:0.560149;stroke-linecap:square;stroke-miterlimit:3;stroke-dashoffset:147.427"
       d="m 363.97812,537.69428 a 1.9418574,1.9418574 0 0 1 -1.94186,1.94187 1.9418574,1.9418574 0 0 1 -1.94187,-1.94187 1.9418574,1.9418574 0 0 1 1.94187,-1.94187 1.9418574,1.9418574 0 0 1 1.94186,1.94187 z" />
    <path
       id="path5-9-5-5-9-07"
       style="isolation:isolate;fill:#000000;fill-opacity:1;stroke:#000000;stroke-width:0.560149;stroke-linecap:square;stroke-miterlimit:3;stroke-dashoffset:147.427"
       d="m 357.45605,565.23188 a 1.9418574,1.9418574 0 0 1 -1.94186,1.94187 1.9418574,1.9418574 0 0 1 -1.94187,-1.94187 1.9418574,1.9418574 0 0 1 1.94187,-1.94187 1.9418574,1.9418574 0 0 1 1.94186,1.94187 z" />
    <path
       id="path5-9-5-5-9-903"
       style="isolation:isolate;fill:#000000;fill-opacity:1;stroke:#000000;stroke-width:0.560149;stroke-linecap:square;stroke-miterlimit:3;stroke-dashoffset:147.427"
       d="m 330.64312,571.75394 a 1.9418574,1.9418574 0 0 1 -1.94186,1.94187 1.9418574,1.9418574 0 0 1 -1.94187,-1.94187 1.9418574,1.9418574 0 0 1 1.94187,-1.94187 1.9418574,1.9418574 0 0 1 1.94186,1.94187 z" />
    <path
       id="path5-9-5-5-9-08"
       style="isolation:isolate;fill:#000000;fill-opacity:1;stroke:#000000;stroke-width:0.560149;stroke-linecap:square;stroke-miterlimit:3;stroke-dashoffset:147.427"
       d="m 287.1627,541.31764 a 1.9418574,1.9418574 0 0 1 -1.94186,1.94187 1.9418574,1.9418574 0 0 1 -1.94187,-1.94187 1.9418574,1.9418574 0 0 1 1.94187,-1.94187 1.9418574,1.9418574 0 0 1 1.94186,1.94187 z" />
    <path
       id="path5-9-5-5-9-161"
       style="isolation:isolate;fill:#000000;fill-opacity:1;stroke:#000000;stroke-width:0.560149;stroke-linecap:square;stroke-miterlimit:3;stroke-dashoffset:147.427"
       d="m 243.68227,549.28906 a 1.9418574,1.9418574 0 0 1 -1.94186,1.94187 1.9418574,1.9418574 0 0 1 -1.94187,-1.94187 1.9418574,1.9418574 0 0 1 1.94187,-1.94187 1.9418574,1.9418574 0 0 1 1.94186,1.94187 z" />
    <path
       id="path5-9-5-5-9-28"
       style="isolation:isolate;fill:#000000;fill-opacity:1;stroke:#000000;stroke-width:0.560149;stroke-linecap:square;stroke-miterlimit:3;stroke-dashoffset:147.427"
       d="m 237.88488,570.3046 a 1.9418574,1.9418574 0 0 1 -1.94186,1.94187 1.9418574,1.9418574 0 0 1 -1.94187,-1.94187 1.9418574,1.9418574 0 0 1 1.94187,-1.94187 1.9418574,1.9418574 0 0 1 1.94186,1.94187 z" />
    <path
       id="path5-9-5-5-9-103"
       style="isolation:isolate;fill:#000000;fill-opacity:1;stroke:#000000;stroke-width:0.560149;stroke-linecap:square;stroke-miterlimit:3;stroke-dashoffset:147.427"
       d="m 253.10303,582.62405 a 1.9418574,1.9418574 0 0 1 -1.94186,1.94187 1.9418574,1.9418574 0 0 1 -1.94187,-1.94187 1.9418574,1.9418574 0 0 1 1.94187,-1.94187 1.9418574,1.9418574 0 0 1 1.94186,1.94187 z" />
    <path
       id="path5-9-5-5-9-81"
       style="isolation:isolate;fill:#000000;fill-opacity:1;stroke:#000000;stroke-width:0.560149;stroke-linecap:square;stroke-miterlimit:3;stroke-dashoffset:147.427"
       d="m 496.59342,407.253 a 1.9418574,1.9418574 0 0 1 -1.94186,1.94187 1.9418574,1.9418574 0 0 1 -1.94187,-1.94187 1.9418574,1.9418574 0 0 1 1.94187,-1.94187 1.9418574,1.9418574 0 0 1 1.94186,1.94187 z" />
    <path
       id="path5-9-5-5-9-996"
       style="isolation:isolate;fill:#000000;fill-opacity:1;stroke:#000000;stroke-width:0.560149;stroke-linecap:square;stroke-miterlimit:3;stroke-dashoffset:147.427"
       d="m 495.86874,429.71789 a 1.9418574,1.9418574 0 0 1 -1.94186,1.94187 1.9418574,1.9418574 0 0 1 -1.94187,-1.94187 1.9418574,1.9418574 0 0 1 1.94187,-1.94187 1.9418574,1.9418574 0 0 1 1.94186,1.94187 z" />
    <path
       id="path5-9-5-5-9-840"
       style="isolation:isolate;fill:#000000;fill-opacity:1;stroke:#000000;stroke-width:0.560149;stroke-linecap:square;stroke-miterlimit:3;stroke-dashoffset:147.427"
       d="m 503.84015,284.78313 a 1.9418574,1.9418574 0 0 1 -1.94186,1.94187 1.9418574,1.9418574 0 0 1 -1.94187,-1.94187 1.9418574,1.9418574 0 0 1 1.94187,-1.94187 1.9418574,1.9418574 0 0 1 1.94186,1.94187 z" />
    <path
       id="path5-9-5-5-9-97"
       style="isolation:isolate;fill:#000000;fill-opacity:1;stroke:#000000;stroke-width:0.560149;stroke-linecap:square;stroke-miterlimit:3;stroke-dashoffset:147.427"
       d="m 514.71026,300.00128 a 1.9418574,1.9418574 0 0 1 -1.94186,1.94187 1.9418574,1.9418574 0 0 1 -1.94187,-1.94187 1.9418574,1.9418574 0 0 1 1.94187,-1.94187 1.9418574,1.9418574 0 0 1 1.94186,1.94187 z" />
    <path
       id="path5-9-5-5-9-96"
       style="isolation:isolate;fill:#000000;fill-opacity:1;stroke:#000000;stroke-width:0.560149;stroke-linecap:square;stroke-miterlimit:3;stroke-dashoffset:147.427"
       d="m 522.68167,315.94411 a 1.9418574,1.9418574 0 0 1 -1.94186,1.94187 1.9418574,1.9418574 0 0 1 -1.94187,-1.94187 1.9418574,1.9418574 0 0 1 1.94187,-1.94187 1.9418574,1.9418574 0 0 1 1.94186,1.94187 z" />
    <path
       id="path5-9-5-5-9-315"
       style="isolation:isolate;fill:#000000;fill-opacity:1;stroke:#000000;stroke-width:0.560149;stroke-linecap:square;stroke-miterlimit:3;stroke-dashoffset:147.427"
       d="m 529.92841,332.6116 a 1.9418574,1.9418574 0 0 1 -1.94186,1.94187 1.9418574,1.9418574 0 0 1 -1.94187,-1.94187 1.9418574,1.9418574 0 0 1 1.94187,-1.94187 1.9418574,1.9418574 0 0 1 1.94186,1.94187 z" />
    <path
       id="path5-9-5-5-9-288"
       style="isolation:isolate;fill:#000000;fill-opacity:1;stroke:#000000;stroke-width:0.560149;stroke-linecap:square;stroke-miterlimit:3;stroke-dashoffset:147.427"
       d="m 544.42188,385.51279 a 1.9418574,1.9418574 0 0 1 -1.94186,1.94187 1.9418574,1.9418574 0 0 1 -1.94187,-1.94187 1.9418574,1.9418574 0 0 1 1.94187,-1.94187 1.9418574,1.9418574 0 0 1 1.94186,1.94187 z" />
    <path
       id="path5-9-5-5-9-60"
       style="isolation:isolate;fill:#000000;fill-opacity:1;stroke:#000000;stroke-width:0.560149;stroke-linecap:square;stroke-miterlimit:3;stroke-dashoffset:147.427"
       d="m 547.32058,402.90496 a 1.9418574,1.9418574 0 0 1 -1.94186,1.94187 1.9418574,1.9418574 0 0 1 -1.94187,-1.94187 1.9418574,1.9418574 0 0 1 1.94187,-1.94187 1.9418574,1.9418574 0 0 1 1.94186,1.94187 z" />
    <path
       id="path5-9-5-5-9-110"
       style="isolation:isolate;fill:#000000;fill-opacity:1;stroke:#000000;stroke-width:0.560149;stroke-linecap:square;stroke-miterlimit:3;stroke-dashoffset:147.427"
       d="m 546.5959,418.84778 a 1.9418574,1.9418574 0 0 1 -1.94186,1.94187 1.9418574,1.9418574 0 0 1 -1.94187,-1.94187 1.9418574,1.9418574 0 0 1 1.94187,-1.94187 1.9418574,1.9418574 0 0 1 1.94186,1.94187 z" />
    <path
       id="path5-9-5-5-9-09"
       style="isolation:isolate;fill:#000000;fill-opacity:1;stroke:#000000;stroke-width:0.560149;stroke-linecap:square;stroke-miterlimit:3;stroke-dashoffset:147.427"
       d="m 545.87123,436.23995 a 1.9418574,1.9418574 0 0 1 -1.94186,1.94187 1.9418574,1.9418574 0 0 1 -1.94187,-1.94187 1.9418574,1.9418574 0 0 1 1.94187,-1.94187 1.9418574,1.9418574 0 0 1 1.94186,1.94187 z" />
    <path
       id="path5-9-5-5-9-297"
       style="isolation:isolate;fill:#000000;fill-opacity:1;stroke:#000000;stroke-width:0.560149;stroke-linecap:square;stroke-miterlimit:3;stroke-dashoffset:147.427"
       d="m 543.69721,454.35679 a 1.9418574,1.9418574 0 0 1 -1.94186,1.94187 1.9418574,1.9418574 0 0 1 -1.94187,-1.94187 1.9418574,1.9418574 0 0 1 1.94187,-1.94187 1.9418574,1.9418574 0 0 1 1.94186,1.94187 z" />
    <path
       id="path5-9-5-5-9-13"
       style="isolation:isolate;fill:#000000;fill-opacity:1;stroke:#000000;stroke-width:0.560149;stroke-linecap:square;stroke-miterlimit:3;stroke-dashoffset:147.427"
       d="m 540.79851,471.74896 a 1.9418574,1.9418574 0 0 1 -1.94186,1.94187 1.9418574,1.9418574 0 0 1 -1.94187,-1.94187 1.9418574,1.9418574 0 0 1 1.94187,-1.94187 1.9418574,1.9418574 0 0 1 1.94186,1.94187 z" />
    <path
       id="path5-9-5-5-9-106"
       style="isolation:isolate;fill:#000000;fill-opacity:1;stroke:#000000;stroke-width:0.560149;stroke-linecap:square;stroke-miterlimit:3;stroke-dashoffset:147.427"
       d="m 534.27645,489.14113 a 1.9418574,1.9418574 0 0 1 -1.94186,1.94187 1.9418574,1.9418574 0 0 1 -1.94187,-1.94187 1.9418574,1.9418574 0 0 1 1.94187,-1.94187 1.9418574,1.9418574 0 0 1 1.94186,1.94187 z" />
    <path
       id="path5-9-5-5-9-45"
       style="isolation:isolate;fill:#000000;fill-opacity:1;stroke:#000000;stroke-width:0.560149;stroke-linecap:square;stroke-miterlimit:3;stroke-dashoffset:147.427"
       d="m 435.72082,613.78502 a 1.9418574,1.9418574 0 0 1 -1.94186,1.94187 1.9418574,1.9418574 0 0 1 -1.94187,-1.94187 1.9418574,1.9418574 0 0 1 1.94187,-1.94187 1.9418574,1.9418574 0 0 1 1.94186,1.94187 z" />
    <path
       id="path5-9-5-5-9-88"
       style="isolation:isolate;fill:#000000;fill-opacity:1;stroke:#000000;stroke-width:0.560149;stroke-linecap:square;stroke-miterlimit:3;stroke-dashoffset:147.427"
       d="m 419.05332,623.20578 a 1.9418574,1.9418574 0 0 1 -1.94186,1.94187 1.9418574,1.9418574 0 0 1 -1.94187,-1.94187 1.9418574,1.9418574 0 0 1 1.94187,-1.94187 1.9418574,1.9418574 0 0 1 1.94186,1.94187 z" />
    <path
       id="path5-9-5-5-9-095"
       style="isolation:isolate;fill:#000000;fill-opacity:1;stroke:#000000;stroke-width:0.560149;stroke-linecap:square;stroke-miterlimit:3;stroke-dashoffset:147.427"
       d="m 402.38583,629.00317 a 1.9418574,1.9418574 0 0 1 -1.94186,1.94187 1.9418574,1.9418574 0 0 1 -1.94187,-1.94187 1.9418574,1.9418574 0 0 1 1.94187,-1.94187 1.9418574,1.9418574 0 0 1 1.94186,1.94187 z" />
    <path
       id="path5-9-5-5-9-912"
       style="isolation:isolate;fill:#000000;fill-opacity:1;stroke:#000000;stroke-width:0.560149;stroke-linecap:square;stroke-miterlimit:3;stroke-dashoffset:147.427"
       d="m 384.99366,634.80056 a 1.9418574,1.9418574 0 0 1 -1.94186,1.94187 1.9418574,1.9418574 0 0 1 -1.94187,-1.94187 1.9418574,1.9418574 0 0 1 1.94187,-1.94187 1.9418574,1.9418574 0 0 1 1.94186,1.94187 z" />
    <path
       id="path5-9-5-5-9-081"
       style="isolation:isolate;fill:#000000;fill-opacity:1;stroke:#000000;stroke-width:0.560149;stroke-linecap:square;stroke-miterlimit:3;stroke-dashoffset:147.427"
       d="m 366.15214,640.59795 a 1.9418574,1.9418574 0 0 1 -1.94186,1.94187 1.9418574,1.9418574 0 0 1 -1.94187,-1.94187 1.9418574,1.9418574 0 0 1 1.94187,-1.94187 1.9418574,1.9418574 0 0 1 1.94186,1.94187 z" />
    <path
       id="path5-9-5-5-9-02"
       style="isolation:isolate;fill:#000000;fill-opacity:1;stroke:#000000;stroke-width:0.560149;stroke-linecap:square;stroke-miterlimit:3;stroke-dashoffset:147.427"
       d="m 260.34977,637.69925 a 1.9418574,1.9418574 0 0 1 -1.94186,1.94187 1.9418574,1.9418574 0 0 1 -1.94187,-1.94187 1.9418574,1.9418574 0 0 1 1.94187,-1.94187 1.9418574,1.9418574 0 0 1 1.94186,1.94187 z" />
    <path
       id="path5-9-5-5-9-136"
       style="isolation:isolate;fill:#000000;fill-opacity:1;stroke:#000000;stroke-width:0.560149;stroke-linecap:square;stroke-miterlimit:3;stroke-dashoffset:147.427"
       d="m 243.68227,631.90186 a 1.9418574,1.9418574 0 0 1 -1.94186,1.94187 1.9418574,1.9418574 0 0 1 -1.94187,-1.94187 1.9418574,1.9418574 0 0 1 1.94187,-1.94187 1.9418574,1.9418574 0 0 1 1.94186,1.94187 z" />
    <path
       id="path5-9-5-5-9-244"
       style="isolation:isolate;fill:#000000;fill-opacity:1;stroke:#000000;stroke-width:0.560149;stroke-linecap:square;stroke-miterlimit:3;stroke-dashoffset:147.427"
       d="m 225.56543,624.65513 a 1.9418574,1.9418574 0 0 1 -1.94186,1.94187 1.9418574,1.9418574 0 0 1 -1.94187,-1.94187 1.9418574,1.9418574 0 0 1 1.94187,-1.94187 1.9418574,1.9418574 0 0 1 1.94186,1.94187 z" />
    <path
       id="path5-9-5-5-9-154"
       style="isolation:isolate;fill:#000000;fill-opacity:1;stroke:#000000;stroke-width:0.560149;stroke-linecap:square;stroke-miterlimit:3;stroke-dashoffset:147.427"
       d="m 209.62261,616.68372 a 1.9418574,1.9418574 0 0 1 -1.94186,1.94187 1.9418574,1.9418574 0 0 1 -1.94187,-1.94187 1.9418574,1.9418574 0 0 1 1.94187,-1.94187 1.9418574,1.9418574 0 0 1 1.94186,1.94187 z" />
    <path
       id="path5-9-5-5-9-382"
       style="isolation:isolate;fill:#000000;fill-opacity:1;stroke:#000000;stroke-width:0.560149;stroke-linecap:square;stroke-miterlimit:3;stroke-dashoffset:147.427"
       d="m 166.14218,585.52274 a 1.9418574,1.9418574 0 0 1 -1.94186,1.94187 1.9418574,1.9418574 0 0 1 -1.94187,-1.94187 1.9418574,1.9418574 0 0 1 1.94187,-1.94187 1.9418574,1.9418574 0 0 1 1.94186,1.94187 z" />
    <path
       id="path5-9-5-5-9-2973"
       style="isolation:isolate;fill:#000000;fill-opacity:1;stroke:#000000;stroke-width:0.560149;stroke-linecap:square;stroke-miterlimit:3;stroke-dashoffset:147.427"
       d="m 152.78484,571.71601 a 1.9418574,1.9418574 0 0 1 -1.94186,1.94187 1.9418574,1.9418574 0 0 1 -1.94187,-1.94187 1.9418574,1.9418574 0 0 1 1.94187,-1.94187 1.9418574,1.9418574 0 0 1 1.94186,1.94187 z" />
    <path
       id="path5-9-5-5-9-156"
       style="isolation:isolate;fill:#000000;fill-opacity:1;stroke:#000000;stroke-width:0.560149;stroke-linecap:square;stroke-miterlimit:3;stroke-dashoffset:147.427"
       d="m 141.50327,558.70981 a 1.9418574,1.9418574 0 0 1 -1.94186,1.94187 1.9418574,1.9418574 0 0 1 -1.94187,-1.94187 1.9418574,1.9418574 0 0 1 1.94187,-1.94187 1.9418574,1.9418574 0 0 1 1.94186,1.94187 z" />
    <path
       id="path5-9-5-5-9-267"
       style="isolation:isolate;fill:#000000;fill-opacity:1;stroke:#000000;stroke-width:0.560149;stroke-linecap:square;stroke-miterlimit:3;stroke-dashoffset:147.427"
       d="m 129.90849,543.49167 a 1.9418574,1.9418574 0 0 1 -1.94186,1.94187 1.9418574,1.9418574 0 0 1 -1.94187,-1.94187 1.9418574,1.9418574 0 0 1 1.94187,-1.94187 1.9418574,1.9418574 0 0 1 1.94186,1.94187 z" />
    <path
       id="path5-9-5-5-9-36"
       style="isolation:isolate;fill:#000000;fill-opacity:1;stroke:#000000;stroke-width:0.560149;stroke-linecap:square;stroke-miterlimit:3;stroke-dashoffset:147.427"
       d="m 144.40197,273.91303 a 1.9418574,1.9418574 0 0 1 -1.94186,1.94187 1.9418574,1.9418574 0 0 1 -1.94187,-1.94187 1.9418574,1.9418574 0 0 1 1.94187,-1.94187 1.9418574,1.9418574 0 0 1 1.94186,1.94187 z" />
    <path
       id="path5-9-5-5-9-325"
       style="isolation:isolate;fill:#000000;fill-opacity:1;stroke:#000000;stroke-width:0.560149;stroke-linecap:square;stroke-miterlimit:3;stroke-dashoffset:147.427"
       d="m 155.27208,259.41955 a 1.9418574,1.9418574 0 0 1 -1.94186,1.94187 1.9418574,1.9418574 0 0 1 -1.94187,-1.94187 1.9418574,1.9418574 0 0 1 1.94187,-1.94187 1.9418574,1.9418574 0 0 1 1.94186,1.94187 z" />
    <path
       id="path5-9-5-5-9-59"
       style="isolation:isolate;fill:#000000;fill-opacity:1;stroke:#000000;stroke-width:0.560149;stroke-linecap:square;stroke-miterlimit:3;stroke-dashoffset:147.427"
       d="m 168.3162,247.82477 a 1.9418574,1.9418574 0 0 1 -1.94186,1.94187 1.9418574,1.9418574 0 0 1 -1.94187,-1.94187 1.9418574,1.9418574 0 0 1 1.94187,-1.94187 1.9418574,1.9418574 0 0 1 1.94186,1.94187 z" />
    <path
       id="path5-9-5-5-9-89"
       style="isolation:isolate;fill:#000000;fill-opacity:1;stroke:#000000;stroke-width:0.560149;stroke-linecap:square;stroke-miterlimit:3;stroke-dashoffset:147.427"
       d="m 183.53435,236.95467 a 1.9418574,1.9418574 0 0 1 -1.94186,1.94187 1.9418574,1.9418574 0 0 1 -1.94187,-1.94187 1.9418574,1.9418574 0 0 1 1.94187,-1.94187 1.9418574,1.9418574 0 0 1 1.94186,1.94187 z" />
    <path
       id="path5-9-5-5-9-266"
       style="isolation:isolate;fill:#000000;fill-opacity:1;stroke:#000000;stroke-width:0.560149;stroke-linecap:square;stroke-miterlimit:3;stroke-dashoffset:147.427"
       d="m 197.30315,224.63521 a 1.9418574,1.9418574 0 0 1 -1.94186,1.94187 1.9418574,1.9418574 0 0 1 -1.94187,-1.94187 1.9418574,1.9418574 0 0 1 1.94187,-1.94187 1.9418574,1.9418574 0 0 1 1.94186,1.94187 z" />
    <path
       id="path5-9-5-5-9-292"
       style="isolation:isolate;fill:#000000;fill-opacity:1;stroke:#000000;stroke-width:0.560149;stroke-linecap:square;stroke-miterlimit:3;stroke-dashoffset:147.427"
       d="m 213.97065,216.6638 a 1.9418574,1.9418574 0 0 1 -1.94186,1.94187 1.9418574,1.9418574 0 0 1 -1.94187,-1.94187 1.9418574,1.9418574 0 0 1 1.94187,-1.94187 1.9418574,1.9418574 0 0 1 1.94186,1.94187 z" />
    <path
       id="path5-9-5-5-9-67"
       style="isolation:isolate;fill:#000000;fill-opacity:1;stroke:#000000;stroke-width:0.560149;stroke-linecap:square;stroke-miterlimit:3;stroke-dashoffset:147.427"
       d="m 389.3417,201.44565 a 1.9418574,1.9418574 0 0 1 -1.94186,1.94187 1.9418574,1.9418574 0 0 1 -1.94187,-1.94187 1.9418574,1.9418574 0 0 1 1.94187,-1.94187 1.9418574,1.9418574 0 0 1 1.94186,1.94187 z" />
    <path
       id="path5-9-5-5-9-82"
       style="isolation:isolate;fill:#000000;fill-opacity:1;stroke:#000000;stroke-width:0.560149;stroke-linecap:square;stroke-miterlimit:3;stroke-dashoffset:147.427"
       d="m 405.28452,207.24304 a 1.9418574,1.9418574 0 0 1 -1.94186,1.94187 1.9418574,1.9418574 0 0 1 -1.94187,-1.94187 1.9418574,1.9418574 0 0 1 1.94187,-1.94187 1.9418574,1.9418574 0 0 1 1.94186,1.94187 z" />
    <path
       id="path5-9-5-5-9-23"
       style="isolation:isolate;fill:#000000;fill-opacity:1;stroke:#000000;stroke-width:0.560149;stroke-linecap:square;stroke-miterlimit:3;stroke-dashoffset:147.427"
       d="m 422.67669,215.21445 a 1.9418574,1.9418574 0 0 1 -1.94186,1.94187 1.9418574,1.9418574 0 0 1 -1.94187,-1.94187 1.9418574,1.9418574 0 0 1 1.94187,-1.94187 1.9418574,1.9418574 0 0 1 1.94186,1.94187 z" />
    <path
       id="path5-9-5-5-9-163"
       style="isolation:isolate;fill:#000000;fill-opacity:1;stroke:#000000;stroke-width:0.560149;stroke-linecap:square;stroke-miterlimit:3;stroke-dashoffset:147.427"
       d="m 437.89484,223.91054 a 1.9418574,1.9418574 0 0 1 -1.94186,1.94187 1.9418574,1.9418574 0 0 1 -1.94187,-1.94187 1.9418574,1.9418574 0 0 1 1.94187,-1.94187 1.9418574,1.9418574 0 0 1 1.94186,1.94187 z" />
    <path
       id="path5-9-5-5-9-66"
       style="isolation:isolate;fill:#000000;fill-opacity:1;stroke:#000000;stroke-width:0.560149;stroke-linecap:square;stroke-miterlimit:3;stroke-dashoffset:147.427"
       d="m 453.11299,234.05597 a 1.9418574,1.9418574 0 0 1 -1.94186,1.94187 1.9418574,1.9418574 0 0 1 -1.94187,-1.94187 1.9418574,1.9418574 0 0 1 1.94187,-1.94187 1.9418574,1.9418574 0 0 1 1.94186,1.94187 z" />
    <path
       id="path5-9-5-5-9-57"
       style="isolation:isolate;fill:#000000;fill-opacity:1;stroke:#000000;stroke-width:0.560149;stroke-linecap:square;stroke-miterlimit:3;stroke-dashoffset:147.427"
       d="m 371.94953,272.46368 a 1.9418574,1.9418574 0 0 1 -1.94186,1.94187 1.9418574,1.9418574 0 0 1 -1.94187,-1.94187 1.9418574,1.9418574 0 0 1 1.94187,-1.94187 1.9418574,1.9418574 0 0 1 1.94186,1.94187 z" />
    <path
       id="path5-9-5-5-9-21"
       style="isolation:isolate;fill:#000000;fill-opacity:1;stroke:#000000;stroke-width:0.560149;stroke-linecap:square;stroke-miterlimit:3;stroke-dashoffset:147.427"
       d="m 260.34977,276.81172 a 1.9418574,1.9418574 0 0 1 -1.94186,1.94187 1.9418574,1.9418574 0 0 1 -1.94187,-1.94187 1.9418574,1.9418574 0 0 1 1.94187,-1.94187 1.9418574,1.9418574 0 0 1 1.94186,1.94187 z" />
    <path
       id="path5-9-5-5-9-44"
       style="isolation:isolate;fill:#000000;fill-opacity:1;stroke:#000000;stroke-width:0.560149;stroke-linecap:square;stroke-miterlimit:3;stroke-dashoffset:147.427"
       d="m 188.60707,295.65324 a 1.9418574,1.9418574 0 0 1 -1.94186,1.94187 1.9418574,1.9418574 0 0 1 -1.94187,-1.94187 1.9418574,1.9418574 0 0 1 1.94187,-1.94187 1.9418574,1.9418574 0 0 1 1.94186,1.94187 z" />
  </g>
</svg>
