<?xml version="1.0" encoding="UTF-8" standalone="no"?>
<svg
   style="isolation:isolate"
   width="628.59827"
   height="628.34265"
   viewBox="0 0 628.59827 628.34265"
   version="1.1"
   id="svg1"
   sodipodi:docname="smalldeer.svg"
   inkscape:export-filename="circletest9.svg"
   inkscape:export-xdpi="96"
   inkscape:export-ydpi="96"
   xmlns:inkscape="http://www.inkscape.org/namespaces/inkscape"
   xmlns:sodipodi="http://sodipodi.sourceforge.net/DTD/sodipodi-0.dtd"
   xmlns="http://www.w3.org/2000/svg"
   xmlns:svg="http://www.w3.org/2000/svg">
  <sodipodi:namedview
     id="namedview1"
     pagecolor="#ffffff"
     bordercolor="#000000"
     borderopacity="0.25"
     inkscape:showpageshadow="2"
     inkscape:pageopacity="0.0"
     inkscape:pagecheckerboard="0"
     inkscape:deskcolor="#d1d1d1">
    <inkscape:page
       x="0"
       y="0"
       width="628.59827"
       height="628.34265"
       id="page2"
       margin="0"
       bleed="0" />
  </sodipodi:namedview>
  <defs
     id="defs1">
    <clipPath
       id="_clipPath_ufUKWNh03Q0ow8cg9bS2G9dNbT4C2wP3">
      <rect
         width="636"
         height="833.5"
         id="rect1"
         x="0"
         y="0" />
    </clipPath>
  </defs>
  <g
     clip-path="url(#_clipPath_ufUKWNh03Q0ow8cg9bS2G9dNbT4C2wP3)"
     id="g1"
     transform="matrix(1.3799313,0,0,1.3799313,-124.51903,-260.91503)">
    <path
       id="path3"
       style="isolation:isolate;fill:none;fill-opacity:1;stroke:#000000;stroke-width:1;stroke-linecap:square;stroke-miterlimit:3;stroke-dasharray:none;paint-order:normal"
       d="m 327.72714,416.75 a 9.7271376,9.7271579 0 0 1 -9.72713,9.72716 9.7271376,9.7271579 0 0 1 -9.72714,-9.72716 9.7271376,9.7271579 0 0 1 9.72714,-9.72716 9.7271376,9.7271579 0 0 1 9.72713,9.72716 z" />
    <path
       id="path3-8"
       style="isolation:isolate;fill:none;fill-opacity:1;stroke:#000000;stroke-width:0.852596;stroke-linecap:square;stroke-miterlimit:3;stroke-dasharray:none;paint-order:normal"
       d="M 334.91587,416.75 A 16.915871,16.915907 0 0 1 318.00001,433.66591 16.915871,16.915907 0 0 1 301.08413,416.75 16.915871,16.915907 0 0 1 318.00001,399.83409 16.915871,16.915907 0 0 1 334.91587,416.75 Z" />
    <path
       id="path3-8-7"
       style="isolation:isolate;fill:none;fill-opacity:1;stroke:#000000;stroke-width:1.20637;stroke-linecap:square;stroke-miterlimit:3;stroke-dasharray:none;paint-order:normal"
       d="M 341.93479,416.75 A 23.934791,23.934841 0 0 1 318.00002,440.68484 23.934791,23.934841 0 0 1 294.06521,416.75 23.934791,23.934841 0 0 1 318.00002,392.81516 23.934791,23.934841 0 0 1 341.93479,416.75 Z" />
    <path
       id="path3-8-7-7"
       style="isolation:isolate;fill:none;fill-opacity:1;stroke:#000000;stroke-width:1.99497;stroke-linecap:square;stroke-miterlimit:3;stroke-dasharray:none;paint-order:normal"
       d="M 357.58116,416.75 A 39.581159,39.581243 0 0 1 318.00004,456.33125 39.581159,39.581243 0 0 1 278.41885,416.75 39.581159,39.581243 0 0 1 318.00004,377.16875 39.581159,39.581243 0 0 1 357.58116,416.75 Z" />
    <path
       id="path3-8-2"
       style="isolation:isolate;fill:none;fill-opacity:1;stroke:#000000;stroke-width:0.990605;stroke-linecap:square;stroke-miterlimit:3;stroke-dasharray:none;paint-order:normal"
       d="M 349.11513,416.75 A 31.115146,31.115211 0 0 1 318.00002,447.86521 31.115146,31.115211 0 0 1 286.88487,416.75 31.115146,31.115211 0 0 1 318.00002,385.63479 31.115146,31.115211 0 0 1 349.11513,416.75 Z" />
    <path
       id="path3-8-2-1"
       style="isolation:isolate;fill:none;fill-opacity:1;stroke:#000000;stroke-width:1;stroke-linecap:square;stroke-miterlimit:3;stroke-dasharray:1, 3;stroke-dashoffset:0;paint-order:normal"
       d="m 366.19115,416.74977 a 48.192985,48.193087 0 0 1 -48.19294,48.19309 48.192985,48.193087 0 0 1 -48.19301,-48.19309 48.192985,48.193087 0 0 1 48.19301,-48.19309 48.192985,48.193087 0 0 1 48.19294,48.19309 z" />
    <path
       id="path3-8-2-1-04"
       style="isolation:isolate;fill:none;fill-opacity:1;stroke:#000000;stroke-width:1.22166;stroke-linecap:square;stroke-miterlimit:3;stroke-dasharray:1.22166, 3.66499;stroke-dashoffset:0;paint-order:normal"
       d="m 376.87335,416.74972 a 58.875589,58.875714 0 0 1 -58.87554,58.87572 58.875589,58.875714 0 0 1 -58.87562,-58.87572 58.875589,58.875714 0 0 1 58.87562,-58.87572 58.875589,58.875714 0 0 1 58.87554,58.87572 z" />
    <path
       id="path3-8-2-1-0"
       style="isolation:isolate;fill:none;fill-opacity:1;stroke:#000000;stroke-width:1;stroke-linecap:square;stroke-miterlimit:3;stroke-dasharray:1, 4;stroke-dashoffset:0;paint-order:normal"
       d="m 391.62048,416.75038 a 73.621275,73.621431 0 0 1 -73.62121,73.62144 73.621275,73.621431 0 0 1 -73.62132,-73.62144 73.621275,73.621431 0 0 1 73.62132,-73.62144 73.621275,73.621431 0 0 1 73.62121,73.62144 z" />
    <path
       id="path3-8-2-1-0-4"
       style="isolation:isolate;fill:none;fill-opacity:1;stroke:#000000;stroke-width:1.17798;stroke-linecap:square;stroke-miterlimit:3;stroke-dasharray:1.17798, 4.71193;stroke-dashoffset:0;paint-order:normal"
       d="m 404.72361,416.75045 a 86.724541,86.724725 0 0 1 -86.72447,86.72473 86.724541,86.724725 0 0 1 -86.72459,-86.72473 86.724541,86.724725 0 0 1 86.72459,-86.72474 86.724541,86.724725 0 0 1 86.72447,86.72474 z" />
    <path
       id="path3-8-2-1-0-0"
       style="isolation:isolate;fill:none;fill-opacity:1;stroke:#000000;stroke-width:0.918081;stroke-linecap:square;stroke-miterlimit:3;stroke-dasharray:0.918081, 5.50849;stroke-dashoffset:0;paint-order:normal"
       d="M 422.00779,416.75487 A 104.00876,104.00899 0 0 1 317.9991,520.76387 104.00876,104.00899 0 0 1 213.99028,416.75487 104.00876,104.00899 0 0 1 317.9991,312.74586 104.00876,104.00899 0 0 1 422.00779,416.75487 Z" />
    <path
       id="path3-8-2-1-0-0-8"
       style="isolation:isolate;fill:none;fill-opacity:1;stroke:#000000;stroke-width:1.13321;stroke-linecap:square;stroke-miterlimit:3;stroke-dasharray:1.13321, 13.5985;stroke-dashoffset:0;paint-order:normal"
       d="M 446.34989,416.78042 A 128.37983,128.3801 0 0 1 317.97017,545.16055 128.37983,128.3801 0 0 1 189.59026,416.78042 128.37983,128.3801 0 0 1 317.97017,288.40029 128.37983,128.3801 0 0 1 446.34989,416.78042 Z" />
    <path
       id="path3-8-2-1-0-0-8-4"
       style="isolation:isolate;fill:none;fill-opacity:1;stroke:#000000;stroke-width:1.35195;stroke-linecap:square;stroke-miterlimit:3;stroke-dasharray:1.35195, 10.8157;stroke-dashoffset:0;paint-order:normal"
       d="M 471.12573,416.75096 A 153.16143,153.16175 0 0 1 317.96443,569.91274 153.16143,153.16175 0 0 1 164.80292,416.75096 153.16143,153.16175 0 0 1 317.96443,263.58917 153.16143,153.16175 0 0 1 471.12573,416.75096 Z" />
    <path
       id="path3-8-2-1-0-0-8-8"
       style="isolation:isolate;fill:none;fill-opacity:1;stroke:#000000;stroke-width:1.57283;stroke-linecap:square;stroke-miterlimit:3;stroke-dasharray:1.57283, 37.7479;stroke-dashoffset:0;paint-order:normal"
       d="M 496.11405,416.56801 A 178.18385,178.18423 0 0 1 317.93035,594.75228 178.18385,178.18423 0 0 1 139.74639,416.56801 178.18385,178.18423 0 0 1 317.93035,238.38374 178.18385,178.18423 0 0 1 496.11405,416.56801 Z" />
    <path
       id="path3-8-2-1-0-0-8-8-5"
       style="isolation:isolate;fill:none;fill-opacity:1;stroke:#000000;stroke-width:2.00604;stroke-linecap:square;stroke-miterlimit:3;stroke-dasharray:2.00604, 96.2898;stroke-dashoffset:0;paint-order:normal"
       d="m 544.75814,417.15993 a 227.26126,227.26175 0 0 1 -227.26107,227.2618 227.26126,227.26175 0 0 1 -227.2614,-227.2618 227.26126,227.26175 0 0 1 227.2614,-227.2618 227.26126,227.26175 0 0 1 227.26107,227.2618 z" />
  </g>
</svg>
