<?xml version="1.0" encoding="UTF-8" standalone="no"?>
<svg
   style="isolation:isolate"
   width="583.61676"
   height="613.98492"
   viewBox="0 0 583.61676 613.98492"
   version="1.1"
   id="svg1"
   sodipodi:docname="circletest10.svg"
   inkscape:export-filename="circletest35.svg"
   inkscape:export-xdpi="96"
   inkscape:export-ydpi="96"
   xmlns:inkscape="http://www.inkscape.org/namespaces/inkscape"
   xmlns:sodipodi="http://sodipodi.sourceforge.net/DTD/sodipodi-0.dtd"
   xmlns="http://www.w3.org/2000/svg"
   xmlns:svg="http://www.w3.org/2000/svg">
  <sodipodi:namedview
     id="namedview1"
     pagecolor="#ffffff"
     bordercolor="#000000"
     borderopacity="0.25"
     inkscape:showpageshadow="2"
     inkscape:pageopacity="0.0"
     inkscape:pagecheckerboard="0"
     inkscape:deskcolor="#d1d1d1">
    <inkscape:page
       x="0"
       y="0"
       width="583.61676"
       height="613.98492"
       id="page1"
       margin="0"
       bleed="0" />
  </sodipodi:namedview>
  <defs
     id="defs1">
    <clipPath
       id="_clipPath_ufUKWNh03Q0ow8cg9bS2G9dNbT4C2wP3">
      <rect
         width="636"
         height="833.5"
         id="rect1"
         x="0"
         y="0" />
    </clipPath>
  </defs>
  <g
     clip-path="url(#_clipPath_ufUKWNh03Q0ow8cg9bS2G9dNbT4C2wP3)"
     id="g1"
     transform="matrix(1.3799313,0,0,1.3799313,-171.6663,-272.13596)">
    <path
       id="path5-9-5"
       style="isolation:isolate;fill:#000000;fill-opacity:1;stroke:#000000;stroke-width:0.560149;stroke-linecap:square;stroke-miterlimit:3;stroke-dashoffset:147.427"
       d="m 348.78241,392.43011 a 1.9418574,1.9418574 0 0 1 -1.94186,1.94186 1.9418574,1.9418574 0 0 1 -1.94187,-1.94186 1.9418574,1.9418574 0 0 1 1.94187,-1.94186 1.9418574,1.9418574 0 0 1 1.94186,1.94186 z" />
    <path
       id="path5-9-5-5"
       style="isolation:isolate;fill:#000000;fill-opacity:1;stroke:#000000;stroke-width:0.560149;stroke-linecap:square;stroke-miterlimit:3;stroke-dashoffset:147.427"
       d="m 358.18073,421.74646 a 1.9418574,1.9418574 0 0 1 -1.94186,1.94187 1.9418574,1.9418574 0 0 1 -1.94187,-1.94187 1.9418574,1.9418574 0 0 1 1.94187,-1.94186 1.9418574,1.9418574 0 0 1 1.94186,1.94186 z" />
    <path
       id="path5-9-5-5-9"
       style="isolation:isolate;fill:#000000;fill-opacity:1;stroke:#000000;stroke-width:0.560149;stroke-linecap:square;stroke-miterlimit:3;stroke-dashoffset:147.427"
       d="m 389.00605,444.43255 a 1.9418574,1.9418574 0 0 1 -1.94186,1.94187 1.9418574,1.9418574 0 0 1 -1.94187,-1.94187 1.9418574,1.9418574 0 0 1 1.94187,-1.94187 1.9418574,1.9418574 0 0 1 1.94186,1.94187 z" />
    <path
       id="path5-9-5-5-9-5"
       style="isolation:isolate;fill:#000000;fill-opacity:1;stroke:#000000;stroke-width:0.560149;stroke-linecap:square;stroke-miterlimit:3;stroke-dashoffset:147.427"
       d="m 384.26898,458.70484 a 1.9418574,1.9418574 0 0 1 -1.94186,1.94187 1.9418574,1.9418574 0 0 1 -1.94187,-1.94187 1.9418574,1.9418574 0 0 1 1.94187,-1.94187 1.9418574,1.9418574 0 0 1 1.94186,1.94187 z" />
    <path
       id="path5-9-5-5-9-9"
       style="isolation:isolate;fill:#000000;fill-opacity:1;stroke:#000000;stroke-width:0.560149;stroke-linecap:square;stroke-miterlimit:3;stroke-dashoffset:147.427"
       d="m 392.24039,423.9205 a 1.9418574,1.9418574 0 0 1 -1.94186,1.94187 1.9418574,1.9418574 0 0 1 -1.94187,-1.94187 1.9418574,1.9418574 0 0 1 1.94187,-1.94187 1.9418574,1.9418574 0 0 1 1.94186,1.94187 z" />
    <path
       id="path5-9-5-5-9-3"
       style="isolation:isolate;fill:#000000;fill-opacity:1;stroke:#000000;stroke-width:0.560149;stroke-linecap:square;stroke-miterlimit:3;stroke-dashoffset:147.427"
       d="m 352.38334,350.72845 a 1.9418574,1.9418574 0 0 1 -1.94186,1.94187 1.9418574,1.9418574 0 0 1 -1.94187,-1.94187 1.9418574,1.9418574 0 0 1 1.94187,-1.94187 1.9418574,1.9418574 0 0 1 1.94186,1.94187 z" />
    <path
       id="path5-9-5-5-9-4"
       style="isolation:isolate;fill:#000000;fill-opacity:1;stroke:#000000;stroke-width:0.560149;stroke-linecap:square;stroke-miterlimit:3;stroke-dashoffset:147.427"
       d="m 316.87432,345.65573 a 1.9418574,1.9418574 0 0 1 -1.94186,1.94187 1.9418574,1.9418574 0 0 1 -1.94187,-1.94187 1.9418574,1.9418574 0 0 1 1.94187,-1.94187 1.9418574,1.9418574 0 0 1 1.94186,1.94187 z" />
    <path
       id="path5-9-5-5-9-61"
       style="isolation:isolate;fill:#000000;fill-opacity:1;stroke:#000000;stroke-width:0.560149;stroke-linecap:square;stroke-miterlimit:3;stroke-dashoffset:147.427"
       d="m 252.84245,385.94596 a 1.9418574,1.9418574 0 0 1 -1.94186,1.94187 1.9418574,1.9418574 0 0 1 -1.94187,-1.94187 1.9418574,1.9418574 0 0 1 1.94187,-1.94187 1.9418574,1.9418574 0 0 1 1.94186,1.94187 z" />
    <path
       id="path5-9-5-5-9-29"
       style="isolation:isolate;fill:#000000;fill-opacity:1;stroke:#000000;stroke-width:0.560149;stroke-linecap:square;stroke-miterlimit:3;stroke-dashoffset:147.427"
       d="m 290.06139,485.51776 a 1.9418574,1.9418574 0 0 1 -1.94186,1.94187 1.9418574,1.9418574 0 0 1 -1.94187,-1.94187 1.9418574,1.9418574 0 0 1 1.94187,-1.94187 1.9418574,1.9418574 0 0 1 1.94186,1.94187 z" />
    <path
       id="path5-9-5-5-9-99"
       style="isolation:isolate;fill:#000000;fill-opacity:1;stroke:#000000;stroke-width:0.560149;stroke-linecap:square;stroke-miterlimit:3;stroke-dashoffset:147.427"
       d="m 292.23542,463.77755 a 1.9418574,1.9418574 0 0 1 -1.94186,1.94187 1.9418574,1.9418574 0 0 1 -1.94187,-1.94187 1.9418574,1.9418574 0 0 1 1.94187,-1.94187 1.9418574,1.9418574 0 0 1 1.94186,1.94187 z" />
    <path
       id="path5-9-5-5-9-26"
       style="isolation:isolate;fill:#000000;fill-opacity:1;stroke:#000000;stroke-width:0.560149;stroke-linecap:square;stroke-miterlimit:3;stroke-dashoffset:147.427"
       d="m 274.84325,478.27103 a 1.9418574,1.9418574 0 0 1 -1.94186,1.94187 1.9418574,1.9418574 0 0 1 -1.94187,-1.94187 1.9418574,1.9418574 0 0 1 1.94187,-1.94187 1.9418574,1.9418574 0 0 1 1.94186,1.94187 z" />
    <path
       id="path5-9-5-5-9-37"
       style="isolation:isolate;fill:#000000;fill-opacity:1;stroke:#000000;stroke-width:0.560149;stroke-linecap:square;stroke-miterlimit:3;stroke-dashoffset:147.427"
       d="m 236.43554,481.16972 a 1.9418574,1.9418574 0 0 1 -1.94186,1.94187 1.9418574,1.9418574 0 0 1 -1.94187,-1.94187 1.9418574,1.9418574 0 0 1 1.94187,-1.94187 1.9418574,1.9418574 0 0 1 1.94186,1.94187 z" />
    <path
       id="path5-9-5-5-9-65"
       style="isolation:isolate;fill:#000000;fill-opacity:1;stroke:#000000;stroke-width:0.560149;stroke-linecap:square;stroke-miterlimit:3;stroke-dashoffset:147.427"
       d="m 221.94206,507.25798 a 1.9418574,1.9418574 0 0 1 -1.94186,1.94187 1.9418574,1.9418574 0 0 1 -1.94187,-1.94187 1.9418574,1.9418574 0 0 1 1.94187,-1.94187 1.9418574,1.9418574 0 0 1 1.94186,1.94187 z" />
    <path
       id="path5-9-5-5-9-90"
       style="isolation:isolate;fill:#000000;fill-opacity:1;stroke:#000000;stroke-width:0.560149;stroke-linecap:square;stroke-miterlimit:3;stroke-dashoffset:147.427"
       d="m 192.23044,428.99321 a 1.9418574,1.9418574 0 0 1 -1.94186,1.94187 1.9418574,1.9418574 0 0 1 -1.94187,-1.94187 1.9418574,1.9418574 0 0 1 1.94187,-1.94187 1.9418574,1.9418574 0 0 1 1.94186,1.94187 z" />
    <path
       id="path5-9-5-5-9-38"
       style="isolation:isolate;fill:#000000;fill-opacity:1;stroke:#000000;stroke-width:0.560149;stroke-linecap:square;stroke-miterlimit:3;stroke-dashoffset:147.427"
       d="m 169.04088,454.35679 a 1.9418574,1.9418574 0 0 1 -1.94186,1.94187 1.9418574,1.9418574 0 0 1 -1.94187,-1.94187 1.9418574,1.9418574 0 0 1 1.94187,-1.94187 1.9418574,1.9418574 0 0 1 1.94186,1.94187 z" />
    <path
       id="path5-9-5-5-9-91"
       style="isolation:isolate;fill:#000000;fill-opacity:1;stroke:#000000;stroke-width:0.560149;stroke-linecap:square;stroke-miterlimit:3;stroke-dashoffset:147.427"
       d="m 181.36033,480.44505 a 1.9418574,1.9418574 0 0 1 -1.94186,1.94187 1.9418574,1.9418574 0 0 1 -1.94187,-1.94187 1.9418574,1.9418574 0 0 1 1.94187,-1.94187 1.9418574,1.9418574 0 0 1 1.94186,1.94187 z" />
    <path
       id="path5-9-5-5-9-10"
       style="isolation:isolate;fill:#000000;fill-opacity:1;stroke:#000000;stroke-width:0.560149;stroke-linecap:square;stroke-miterlimit:3;stroke-dashoffset:147.427"
       d="m 163.24349,430.44256 a 1.9418574,1.9418574 0 0 1 -1.94186,1.94187 1.9418574,1.9418574 0 0 1 -1.94187,-1.94187 1.9418574,1.9418574 0 0 1 1.94187,-1.94187 1.9418574,1.9418574 0 0 1 1.94186,1.94187 z" />
    <path
       id="path5-9-5-5-9-317"
       style="isolation:isolate;fill:#000000;fill-opacity:1;stroke:#000000;stroke-width:0.560149;stroke-linecap:square;stroke-miterlimit:3;stroke-dashoffset:147.427"
       d="m 160.34479,406.52833 a 1.9418574,1.9418574 0 0 1 -1.94186,1.94187 1.9418574,1.9418574 0 0 1 -1.94187,-1.94187 1.9418574,1.9418574 0 0 1 1.94187,-1.94187 1.9418574,1.9418574 0 0 1 1.94186,1.94187 z" />
    <path
       id="path5-9-5-5-9-49"
       style="isolation:isolate;fill:#000000;fill-opacity:1;stroke:#000000;stroke-width:0.560149;stroke-linecap:square;stroke-miterlimit:3;stroke-dashoffset:147.427"
       d="m 216.51823,340.68974 a 1.9418574,1.9418574 0 0 1 -1.94186,1.94187 1.9418574,1.9418574 0 0 1 -1.94187,-1.94187 1.9418574,1.9418574 0 0 1 1.94187,-1.94187 1.9418574,1.9418574 0 0 1 1.94186,1.94187 z" />
    <path
       id="path5-9-5-5-9-907"
       style="isolation:isolate;fill:#000000;fill-opacity:1;stroke:#000000;stroke-width:0.560149;stroke-linecap:square;stroke-miterlimit:3;stroke-dashoffset:147.427"
       d="m 180.63566,353.62714 a 1.9418574,1.9418574 0 0 1 -1.94186,1.94187 1.9418574,1.9418574 0 0 1 -1.94187,-1.94187 1.9418574,1.9418574 0 0 1 1.94187,-1.94187 1.9418574,1.9418574 0 0 1 1.94186,1.94187 z" />
    <path
       id="path5-9-5-5-9-296"
       style="isolation:isolate;fill:#000000;fill-opacity:1;stroke:#000000;stroke-width:0.560149;stroke-linecap:square;stroke-miterlimit:3;stroke-dashoffset:147.427"
       d="m 190.05642,337.68432 a 1.9418574,1.9418574 0 0 1 -1.94186,1.94187 1.9418574,1.9418574 0 0 1 -1.94187,-1.94187 1.9418574,1.9418574 0 0 1 1.94187,-1.94187 1.9418574,1.9418574 0 0 1 1.94186,1.94187 z" />
    <path
       id="path5-9-5-5-9-48"
       style="isolation:isolate;fill:#000000;fill-opacity:1;stroke:#000000;stroke-width:0.560149;stroke-linecap:square;stroke-miterlimit:3;stroke-dashoffset:147.427"
       d="m 265.42249,300.72596 a 1.9418574,1.9418574 0 0 1 -1.94186,1.94187 1.9418574,1.9418574 0 0 1 -1.94187,-1.94187 1.9418574,1.9418574 0 0 1 1.94187,-1.94187 1.9418574,1.9418574 0 0 1 1.94186,1.94187 z" />
    <path
       id="path5-9-5-5-9-115"
       style="isolation:isolate;fill:#000000;fill-opacity:1;stroke:#000000;stroke-width:0.560149;stroke-linecap:square;stroke-miterlimit:3;stroke-dashoffset:147.427"
       d="m 263.97314,323.19084 a 1.9418574,1.9418574 0 0 1 -1.94186,1.94187 1.9418574,1.9418574 0 0 1 -1.94187,-1.94187 1.9418574,1.9418574 0 0 1 1.94187,-1.94187 1.9418574,1.9418574 0 0 1 1.94186,1.94187 z" />
    <path
       id="path5-9-5-5-9-53"
       style="isolation:isolate;fill:#000000;fill-opacity:1;stroke:#000000;stroke-width:0.560149;stroke-linecap:square;stroke-miterlimit:3;stroke-dashoffset:147.427"
       d="m 361.07942,321.7415 a 1.9418574,1.9418574 0 0 1 -1.94186,1.94187 1.9418574,1.9418574 0 0 1 -1.94187,-1.94187 1.9418574,1.9418574 0 0 1 1.94187,-1.94187 1.9418574,1.9418574 0 0 1 1.94186,1.94187 z" />
    <path
       id="path5-9-5-5-9-43"
       style="isolation:isolate;fill:#000000;fill-opacity:1;stroke:#000000;stroke-width:0.560149;stroke-linecap:square;stroke-miterlimit:3;stroke-dashoffset:147.427"
       d="m 340.78856,289.85585 a 1.9418574,1.9418574 0 0 1 -1.94186,1.94187 1.9418574,1.9418574 0 0 1 -1.94187,-1.94187 1.9418574,1.9418574 0 0 1 1.94187,-1.94187 1.9418574,1.9418574 0 0 1 1.94186,1.94187 z" />
    <path
       id="path5-9-5-5-9-54"
       style="isolation:isolate;fill:#000000;fill-opacity:1;stroke:#000000;stroke-width:0.560149;stroke-linecap:square;stroke-miterlimit:3;stroke-dashoffset:147.427"
       d="m 345.37394,268.5271 a 1.9418574,1.9418574 0 0 1 -1.94186,1.94187 1.9418574,1.9418574 0 0 1 -1.94187,-1.94187 1.9418574,1.9418574 0 0 1 1.94187,-1.94187 1.9418574,1.9418574 0 0 1 1.94186,1.94187 z" />
    <path
       id="path5-9-5-5-9-264"
       style="isolation:isolate;fill:#000000;fill-opacity:1;stroke:#000000;stroke-width:0.560149;stroke-linecap:square;stroke-miterlimit:3;stroke-dashoffset:147.427"
       d="m 378.47159,257.97021 a 1.9418574,1.9418574 0 0 1 -1.94186,1.94187 1.9418574,1.9418574 0 0 1 -1.94187,-1.94187 1.9418574,1.9418574 0 0 1 1.94187,-1.94187 1.9418574,1.9418574 0 0 1 1.94186,1.94187 z" />
    <path
       id="path5-9-5-5-9-95"
       style="isolation:isolate;fill:#000000;fill-opacity:1;stroke:#000000;stroke-width:0.560149;stroke-linecap:square;stroke-miterlimit:3;stroke-dashoffset:147.427"
       d="m 248.75499,409.42702 a 1.9418574,1.9418574 0 0 1 -1.94186,1.94187 1.9418574,1.9418574 0 0 1 -1.94187,-1.94187 1.9418574,1.9418574 0 0 1 1.94187,-1.94187 1.9418574,1.9418574 0 0 1 1.94186,1.94187 z" />
    <path
       id="path5-9-5-5-9-1"
       style="isolation:isolate;fill:#000000;fill-opacity:1;stroke:#000000;stroke-width:0.560149;stroke-linecap:square;stroke-miterlimit:3;stroke-dashoffset:147.427"
       d="m 232.81217,379.7154 a 1.9418574,1.9418574 0 0 1 -1.94186,1.94187 1.9418574,1.9418574 0 0 1 -1.94187,-1.94187 1.9418574,1.9418574 0 0 1 1.94187,-1.94187 1.9418574,1.9418574 0 0 1 1.94186,1.94187 z" />
    <path
       id="path5-9-5-5-9-2"
       style="isolation:isolate;fill:#000000;fill-opacity:1;stroke:#000000;stroke-width:0.560149;stroke-linecap:square;stroke-miterlimit:3;stroke-dashoffset:147.427"
       d="m 235.71086,355.80116 a 1.9418574,1.9418574 0 0 1 -1.94186,1.94187 1.9418574,1.9418574 0 0 1 -1.94187,-1.94187 1.9418574,1.9418574 0 0 1 1.94187,-1.94187 1.9418574,1.9418574 0 0 1 1.94186,1.94187 z" />
    <path
       id="path5-9-5-5-9-7"
       style="isolation:isolate;fill:#000000;fill-opacity:1;stroke:#000000;stroke-width:0.560149;stroke-linecap:square;stroke-miterlimit:3;stroke-dashoffset:147.427"
       d="m 249.47966,342.03236 a 1.9418574,1.9418574 0 0 1 -1.94186,1.94187 1.9418574,1.9418574 0 0 1 -1.94187,-1.94187 1.9418574,1.9418574 0 0 1 1.94187,-1.94187 1.9418574,1.9418574 0 0 1 1.94186,1.94187 z" />
    <path
       id="path5-9-5-9"
       style="isolation:isolate;fill:#000000;fill-opacity:1;stroke:#000000;stroke-width:0.560149;stroke-linecap:square;stroke-miterlimit:3;stroke-dashoffset:147.427"
       d="m 320.49769,416.67375 a 1.9418574,1.9418574 0 0 1 -1.94186,1.94186 1.9418574,1.9418574 0 0 1 -1.94187,-1.94186 1.9418574,1.9418574 0 0 1 1.94187,-1.94186 1.9418574,1.9418574 0 0 1 1.94186,1.94186 z" />
    <path
       id="path5-9-5-6"
       style="isolation:isolate;fill:#000000;fill-opacity:1;stroke:#000000;stroke-width:0.560149;stroke-linecap:square;stroke-miterlimit:3;stroke-dashoffset:147.427"
       d="m 347.31062,445.6607 a 1.9418574,1.9418574 0 0 1 -1.94186,1.94186 1.9418574,1.9418574 0 0 1 -1.94187,-1.94186 1.9418574,1.9418574 0 0 1 1.94187,-1.94186 1.9418574,1.9418574 0 0 1 1.94186,1.94186 z" />
    <path
       id="path5-9-5-4"
       style="isolation:isolate;fill:#000000;fill-opacity:1;stroke:#000000;stroke-width:0.560149;stroke-linecap:square;stroke-miterlimit:3;stroke-dashoffset:147.427"
       d="m 322.67171,455.80613 a 1.9418574,1.9418574 0 0 1 -1.94186,1.94186 1.9418574,1.9418574 0 0 1 -1.94187,-1.94186 1.9418574,1.9418574 0 0 1 1.94187,-1.94186 1.9418574,1.9418574 0 0 1 1.94186,1.94186 z" />
    <path
       id="path5-9-5-48"
       style="isolation:isolate;fill:#000000;fill-opacity:1;stroke:#000000;stroke-width:0.560149;stroke-linecap:square;stroke-miterlimit:3;stroke-dashoffset:147.427"
       d="m 293.68476,447.11005 a 1.9418574,1.9418574 0 0 1 -1.94186,1.94186 1.9418574,1.9418574 0 0 1 -1.94187,-1.94186 1.9418574,1.9418574 0 0 1 1.94187,-1.94186 1.9418574,1.9418574 0 0 1 1.94186,1.94186 z" />
    <path
       id="path5-9-5-98"
       style="isolation:isolate;fill:#000000;fill-opacity:1;stroke:#000000;stroke-width:0.560149;stroke-linecap:square;stroke-miterlimit:3;stroke-dashoffset:147.427"
       d="m 282.81466,419.57244 a 1.9418574,1.9418574 0 0 1 -1.94186,1.94186 1.9418574,1.9418574 0 0 1 -1.94187,-1.94186 1.9418574,1.9418574 0 0 1 1.94187,-1.94186 1.9418574,1.9418574 0 0 1 1.94186,1.94186 z" />
    <path
       id="path5-9-5-94"
       style="isolation:isolate;fill:#000000;fill-opacity:1;stroke:#000000;stroke-width:0.560149;stroke-linecap:square;stroke-miterlimit:3;stroke-dashoffset:147.427"
       d="m 292.23542,391.31017 a 1.9418574,1.9418574 0 0 1 -1.94186,1.94186 1.9418574,1.9418574 0 0 1 -1.94187,-1.94186 1.9418574,1.9418574 0 0 1 1.94187,-1.94186 1.9418574,1.9418574 0 0 1 1.94186,1.94186 z" />
    <path
       id="path5-9-5-65"
       style="isolation:isolate;fill:#000000;fill-opacity:1;stroke:#000000;stroke-width:0.560149;stroke-linecap:square;stroke-miterlimit:3;stroke-dashoffset:147.427"
       d="m 321.22237,379.71539 a 1.9418574,1.9418574 0 0 1 -1.94186,1.94186 1.9418574,1.9418574 0 0 1 -1.94187,-1.94186 1.9418574,1.9418574 0 0 1 1.94187,-1.94186 1.9418574,1.9418574 0 0 1 1.94186,1.94186 z" />
    <path
       id="path5-9-5-5-9-93"
       style="isolation:isolate;fill:#000000;fill-opacity:1;stroke:#000000;stroke-width:0.560149;stroke-linecap:square;stroke-miterlimit:3;stroke-dashoffset:147.427"
       d="m 409.63256,324.64019 a 1.9418574,1.9418574 0 0 1 -1.94186,1.94187 1.9418574,1.9418574 0 0 1 -1.94187,-1.94187 1.9418574,1.9418574 0 0 1 1.94187,-1.94187 1.9418574,1.9418574 0 0 1 1.94186,1.94187 z" />
    <path
       id="path5-9-5-5-9-900"
       style="isolation:isolate;fill:#000000;fill-opacity:1;stroke:#000000;stroke-width:0.560149;stroke-linecap:square;stroke-miterlimit:3;stroke-dashoffset:147.427"
       d="m 427.02474,346.3804 a 1.9418574,1.9418574 0 0 1 -1.94187,1.94187 1.9418574,1.9418574 0 0 1 -1.94187,-1.94187 1.9418574,1.9418574 0 0 1 1.94187,-1.94187 1.9418574,1.9418574 0 0 1 1.94187,1.94187 z" />
    <path
       id="path5-9-5-5-9-24"
       style="isolation:isolate;fill:#000000;fill-opacity:1;stroke:#000000;stroke-width:0.560149;stroke-linecap:square;stroke-miterlimit:3;stroke-dashoffset:147.427"
       d="m 454.56234,345.65573 a 1.9418574,1.9418574 0 0 1 -1.94186,1.94187 1.9418574,1.9418574 0 0 1 -1.94187,-1.94187 1.9418574,1.9418574 0 0 1 1.94187,-1.94187 1.9418574,1.9418574 0 0 1 1.94186,1.94187 z" />
    <path
       id="path5-9-5-5-9-06"
       style="isolation:isolate;fill:#000000;fill-opacity:1;stroke:#000000;stroke-width:0.560149;stroke-linecap:square;stroke-miterlimit:3;stroke-dashoffset:147.427"
       d="m 479.20125,336.95965 a 1.9418574,1.9418574 0 0 1 -1.94187,1.94187 1.9418574,1.9418574 0 0 1 -1.94186,-1.94187 1.9418574,1.9418574 0 0 1 1.94186,-1.94187 1.9418574,1.9418574 0 0 1 1.94187,1.94187 z" />
    <path
       id="path5-9-5-5-9-32"
       style="isolation:isolate;fill:#000000;fill-opacity:1;stroke:#000000;stroke-width:0.560149;stroke-linecap:square;stroke-miterlimit:3;stroke-dashoffset:147.427"
       d="m 446.59093,392.75952 a 1.9418574,1.9418574 0 0 1 -1.94186,1.94187 1.9418574,1.9418574 0 0 1 -1.94187,-1.94187 1.9418574,1.9418574 0 0 1 1.94187,-1.94187 1.9418574,1.9418574 0 0 1 1.94186,1.94187 z" />
    <path
       id="path5-9-5-5-9-87"
       style="isolation:isolate;fill:#000000;fill-opacity:1;stroke:#000000;stroke-width:0.560149;stroke-linecap:square;stroke-miterlimit:3;stroke-dashoffset:147.427"
       d="m 448.76495,417.39843 a 1.9418574,1.9418574 0 0 1 -1.94186,1.94187 1.9418574,1.9418574 0 0 1 -1.94187,-1.94187 1.9418574,1.9418574 0 0 1 1.94187,-1.94187 1.9418574,1.9418574 0 0 1 1.94186,1.94187 z" />
    <path
       id="path5-9-5-5-9-290"
       style="isolation:isolate;fill:#000000;fill-opacity:1;stroke:#000000;stroke-width:0.560149;stroke-linecap:square;stroke-miterlimit:3;stroke-dashoffset:147.427"
       d="m 424.85071,490.59048 a 1.9418574,1.9418574 0 0 1 -1.94186,1.94187 1.9418574,1.9418574 0 0 1 -1.94187,-1.94187 1.9418574,1.9418574 0 0 1 1.94187,-1.94187 1.9418574,1.9418574 0 0 1 1.94186,1.94187 z" />
    <path
       id="path5-9-5-5-9-16"
       style="isolation:isolate;fill:#000000;fill-opacity:1;stroke:#000000;stroke-width:0.560149;stroke-linecap:square;stroke-miterlimit:3;stroke-dashoffset:147.427"
       d="m 465.43244,524.65015 a 1.9418574,1.9418574 0 0 1 -1.94186,1.94187 1.9418574,1.9418574 0 0 1 -1.94187,-1.94187 1.9418574,1.9418574 0 0 1 1.94187,-1.94187 1.9418574,1.9418574 0 0 1 1.94186,1.94187 z" />
    <path
       id="path5-9-5-5-9-79"
       style="isolation:isolate;fill:#000000;fill-opacity:1;stroke:#000000;stroke-width:0.560149;stroke-linecap:square;stroke-miterlimit:3;stroke-dashoffset:147.427"
       d="m 364.70279,510.88135 a 1.9418574,1.9418574 0 0 1 -1.94186,1.94187 1.9418574,1.9418574 0 0 1 -1.94187,-1.94187 1.9418574,1.9418574 0 0 1 1.94187,-1.94187 1.9418574,1.9418574 0 0 1 1.94186,1.94187 z" />
    <path
       id="path5-9-5-5-9-84"
       style="isolation:isolate;fill:#000000;fill-opacity:1;stroke:#000000;stroke-width:0.560149;stroke-linecap:square;stroke-miterlimit:3;stroke-dashoffset:147.427"
       d="m 363.97812,537.69428 a 1.9418574,1.9418574 0 0 1 -1.94186,1.94187 1.9418574,1.9418574 0 0 1 -1.94187,-1.94187 1.9418574,1.9418574 0 0 1 1.94187,-1.94187 1.9418574,1.9418574 0 0 1 1.94186,1.94187 z" />
    <path
       id="path5-9-5-5-9-903"
       style="isolation:isolate;fill:#000000;fill-opacity:1;stroke:#000000;stroke-width:0.560149;stroke-linecap:square;stroke-miterlimit:3;stroke-dashoffset:147.427"
       d="m 330.64312,571.75394 a 1.9418574,1.9418574 0 0 1 -1.94186,1.94187 1.9418574,1.9418574 0 0 1 -1.94187,-1.94187 1.9418574,1.9418574 0 0 1 1.94187,-1.94187 1.9418574,1.9418574 0 0 1 1.94186,1.94187 z" />
    <path
       id="path5-9-5-5-9-08"
       style="isolation:isolate;fill:#000000;fill-opacity:1;stroke:#000000;stroke-width:0.560149;stroke-linecap:square;stroke-miterlimit:3;stroke-dashoffset:147.427"
       d="m 287.1627,541.31764 a 1.9418574,1.9418574 0 0 1 -1.94186,1.94187 1.9418574,1.9418574 0 0 1 -1.94187,-1.94187 1.9418574,1.9418574 0 0 1 1.94187,-1.94187 1.9418574,1.9418574 0 0 1 1.94186,1.94187 z" />
    <path
       id="path5-9-5-5-9-161"
       style="isolation:isolate;fill:#000000;fill-opacity:1;stroke:#000000;stroke-width:0.560149;stroke-linecap:square;stroke-miterlimit:3;stroke-dashoffset:147.427"
       d="m 243.68227,549.28906 a 1.9418574,1.9418574 0 0 1 -1.94186,1.94187 1.9418574,1.9418574 0 0 1 -1.94187,-1.94187 1.9418574,1.9418574 0 0 1 1.94187,-1.94187 1.9418574,1.9418574 0 0 1 1.94186,1.94187 z" />
    <path
       id="path5-9-5-5-9-28"
       style="isolation:isolate;fill:#000000;fill-opacity:1;stroke:#000000;stroke-width:0.560149;stroke-linecap:square;stroke-miterlimit:3;stroke-dashoffset:147.427"
       d="m 237.88488,570.3046 a 1.9418574,1.9418574 0 0 1 -1.94186,1.94187 1.9418574,1.9418574 0 0 1 -1.94187,-1.94187 1.9418574,1.9418574 0 0 1 1.94187,-1.94187 1.9418574,1.9418574 0 0 1 1.94186,1.94187 z" />
    <path
       id="path5-9-5-5-9-103"
       style="isolation:isolate;fill:#000000;fill-opacity:1;stroke:#000000;stroke-width:0.560149;stroke-linecap:square;stroke-miterlimit:3;stroke-dashoffset:147.427"
       d="m 253.10303,582.62405 a 1.9418574,1.9418574 0 0 1 -1.94186,1.94187 1.9418574,1.9418574 0 0 1 -1.94187,-1.94187 1.9418574,1.9418574 0 0 1 1.94187,-1.94187 1.9418574,1.9418574 0 0 1 1.94186,1.94187 z" />
    <path
       id="path5-9-5-5-9-81"
       style="isolation:isolate;fill:#000000;fill-opacity:1;stroke:#000000;stroke-width:0.560149;stroke-linecap:square;stroke-miterlimit:3;stroke-dashoffset:147.427"
       d="m 496.59342,407.253 a 1.9418574,1.9418574 0 0 1 -1.94186,1.94187 1.9418574,1.9418574 0 0 1 -1.94187,-1.94187 1.9418574,1.9418574 0 0 1 1.94187,-1.94187 1.9418574,1.9418574 0 0 1 1.94186,1.94187 z" />
    <path
       id="path5-9-5-5-9-996"
       style="isolation:isolate;fill:#000000;fill-opacity:1;stroke:#000000;stroke-width:0.560149;stroke-linecap:square;stroke-miterlimit:3;stroke-dashoffset:147.427"
       d="m 495.86874,429.71789 a 1.9418574,1.9418574 0 0 1 -1.94186,1.94187 1.9418574,1.9418574 0 0 1 -1.94187,-1.94187 1.9418574,1.9418574 0 0 1 1.94187,-1.94187 1.9418574,1.9418574 0 0 1 1.94186,1.94187 z" />
    <path
       id="path5-9-5-5-9-840"
       style="isolation:isolate;fill:#000000;fill-opacity:1;stroke:#000000;stroke-width:0.560149;stroke-linecap:square;stroke-miterlimit:3;stroke-dashoffset:147.427"
       d="m 503.84015,284.78313 a 1.9418574,1.9418574 0 0 1 -1.94186,1.94187 1.9418574,1.9418574 0 0 1 -1.94187,-1.94187 1.9418574,1.9418574 0 0 1 1.94187,-1.94187 1.9418574,1.9418574 0 0 1 1.94186,1.94187 z" />
    <path
       id="path5-9-5-5-9-96"
       style="isolation:isolate;fill:#000000;fill-opacity:1;stroke:#000000;stroke-width:0.560149;stroke-linecap:square;stroke-miterlimit:3;stroke-dashoffset:147.427"
       d="m 519.32513,309.23103 a 1.9418574,1.9418574 0 0 1 -1.94186,1.94187 1.9418574,1.9418574 0 0 1 -1.94187,-1.94187 1.9418574,1.9418574 0 0 1 1.94187,-1.94187 1.9418574,1.9418574 0 0 1 1.94186,1.94187 z" />
    <path
       id="path5-9-5-5-9-315"
       style="isolation:isolate;fill:#000000;fill-opacity:1;stroke:#000000;stroke-width:0.560149;stroke-linecap:square;stroke-miterlimit:3;stroke-dashoffset:147.427"
       d="m 529.92841,332.6116 a 1.9418574,1.9418574 0 0 1 -1.94186,1.94187 1.9418574,1.9418574 0 0 1 -1.94187,-1.94187 1.9418574,1.9418574 0 0 1 1.94187,-1.94187 1.9418574,1.9418574 0 0 1 1.94186,1.94187 z" />
    <path
       id="path5-9-5-5-9-288"
       style="isolation:isolate;fill:#000000;fill-opacity:1;stroke:#000000;stroke-width:0.560149;stroke-linecap:square;stroke-miterlimit:3;stroke-dashoffset:147.427"
       d="m 544.42188,385.51279 a 1.9418574,1.9418574 0 0 1 -1.94186,1.94187 1.9418574,1.9418574 0 0 1 -1.94187,-1.94187 1.9418574,1.9418574 0 0 1 1.94187,-1.94187 1.9418574,1.9418574 0 0 1 1.94186,1.94187 z" />
    <path
       id="path5-9-5-5-9-110"
       style="isolation:isolate;fill:#000000;fill-opacity:1;stroke:#000000;stroke-width:0.560149;stroke-linecap:square;stroke-miterlimit:3;stroke-dashoffset:147.427"
       d="m 546.5959,410.79208 a 1.9418574,1.9418574 0 0 1 -1.94186,1.94187 1.9418574,1.9418574 0 0 1 -1.94187,-1.94187 1.9418574,1.9418574 0 0 1 1.94187,-1.94187 1.9418574,1.9418574 0 0 1 1.94186,1.94187 z" />
    <path
       id="path5-9-5-5-9-297"
       style="isolation:isolate;fill:#000000;fill-opacity:1;stroke:#000000;stroke-width:0.560149;stroke-linecap:square;stroke-miterlimit:3;stroke-dashoffset:147.427"
       d="m 547.05375,442.27325 a 1.9418574,1.9418574 0 0 1 -1.94186,1.94187 1.9418574,1.9418574 0 0 1 -1.94187,-1.94187 1.9418574,1.9418574 0 0 1 1.94187,-1.94187 1.9418574,1.9418574 0 0 1 1.94186,1.94187 z" />
    <path
       id="path5-9-5-5-9-13"
       style="isolation:isolate;fill:#000000;fill-opacity:1;stroke:#000000;stroke-width:0.560149;stroke-linecap:square;stroke-miterlimit:3;stroke-dashoffset:147.427"
       d="m 542.81243,468.39242 a 1.9418574,1.9418574 0 0 1 -1.94186,1.94187 1.9418574,1.9418574 0 0 1 -1.94187,-1.94187 1.9418574,1.9418574 0 0 1 1.94187,-1.94187 1.9418574,1.9418574 0 0 1 1.94186,1.94187 z" />
    <path
       id="path5-9-5-5-9-106"
       style="isolation:isolate;fill:#000000;fill-opacity:1;stroke:#000000;stroke-width:0.560149;stroke-linecap:square;stroke-miterlimit:3;stroke-dashoffset:147.427"
       d="m 534.27645,489.14113 a 1.9418574,1.9418574 0 0 1 -1.94186,1.94187 1.9418574,1.9418574 0 0 1 -1.94187,-1.94187 1.9418574,1.9418574 0 0 1 1.94187,-1.94187 1.9418574,1.9418574 0 0 1 1.94186,1.94187 z" />
    <path
       id="path5-9-5-5-9-45"
       style="isolation:isolate;fill:#000000;fill-opacity:1;stroke:#000000;stroke-width:0.560149;stroke-linecap:square;stroke-miterlimit:3;stroke-dashoffset:147.427"
       d="m 435.72082,613.78502 a 1.9418574,1.9418574 0 0 1 -1.94186,1.94187 1.9418574,1.9418574 0 0 1 -1.94187,-1.94187 1.9418574,1.9418574 0 0 1 1.94187,-1.94187 1.9418574,1.9418574 0 0 1 1.94186,1.94187 z" />
    <path
       id="path5-9-5-5-9-095"
       style="isolation:isolate;fill:#000000;fill-opacity:1;stroke:#000000;stroke-width:0.560149;stroke-linecap:square;stroke-miterlimit:3;stroke-dashoffset:147.427"
       d="m 411.78414,627.66055 a 1.9418574,1.9418574 0 0 1 -1.94186,1.94187 1.9418574,1.9418574 0 0 1 -1.94187,-1.94187 1.9418574,1.9418574 0 0 1 1.94187,-1.94187 1.9418574,1.9418574 0 0 1 1.94186,1.94187 z" />
    <path
       id="path5-9-5-5-9-081"
       style="isolation:isolate;fill:#000000;fill-opacity:1;stroke:#000000;stroke-width:0.560149;stroke-linecap:square;stroke-miterlimit:3;stroke-dashoffset:147.427"
       d="m 380.24961,639.92664 a 1.9418574,1.9418574 0 0 1 -1.94186,1.94187 1.9418574,1.9418574 0 0 1 -1.94187,-1.94187 1.9418574,1.9418574 0 0 1 1.94187,-1.94187 1.9418574,1.9418574 0 0 1 1.94186,1.94187 z" />
    <path
       id="path5-9-5-5-9-02"
       style="isolation:isolate;fill:#000000;fill-opacity:1;stroke:#000000;stroke-width:0.560149;stroke-linecap:square;stroke-miterlimit:3;stroke-dashoffset:147.427"
       d="m 260.34977,637.69925 a 1.9418574,1.9418574 0 0 1 -1.94186,1.94187 1.9418574,1.9418574 0 0 1 -1.94187,-1.94187 1.9418574,1.9418574 0 0 1 1.94187,-1.94187 1.9418574,1.9418574 0 0 1 1.94186,1.94187 z" />
    <path
       id="path5-9-5-5-9-244"
       style="isolation:isolate;fill:#000000;fill-opacity:1;stroke:#000000;stroke-width:0.560149;stroke-linecap:square;stroke-miterlimit:3;stroke-dashoffset:147.427"
       d="m 230.26459,630.6969 a 1.9418574,1.9418574 0 0 1 -1.94186,1.94187 1.9418574,1.9418574 0 0 1 -1.94187,-1.94187 1.9418574,1.9418574 0 0 1 1.94187,-1.94187 1.9418574,1.9418574 0 0 1 1.94186,1.94187 z" />
    <path
       id="path5-9-5-5-9-154"
       style="isolation:isolate;fill:#000000;fill-opacity:1;stroke:#000000;stroke-width:0.560149;stroke-linecap:square;stroke-miterlimit:3;stroke-dashoffset:147.427"
       d="m 210.29392,618.69764 a 1.9418574,1.9418574 0 0 1 -1.94186,1.94187 1.9418574,1.9418574 0 0 1 -1.94187,-1.94187 1.9418574,1.9418574 0 0 1 1.94187,-1.94187 1.9418574,1.9418574 0 0 1 1.94186,1.94187 z" />
    <path
       id="path5-9-5-5-9-382"
       style="isolation:isolate;fill:#000000;fill-opacity:1;stroke:#000000;stroke-width:0.560149;stroke-linecap:square;stroke-miterlimit:3;stroke-dashoffset:147.427"
       d="m 166.14218,585.52274 a 1.9418574,1.9418574 0 0 1 -1.94186,1.94187 1.9418574,1.9418574 0 0 1 -1.94187,-1.94187 1.9418574,1.9418574 0 0 1 1.94187,-1.94187 1.9418574,1.9418574 0 0 1 1.94186,1.94187 z" />
    <path
       id="path5-9-5-5-9-156"
       style="isolation:isolate;fill:#000000;fill-opacity:1;stroke:#000000;stroke-width:0.560149;stroke-linecap:square;stroke-miterlimit:3;stroke-dashoffset:147.427"
       d="m 143.51719,566.0942 a 1.9418574,1.9418574 0 0 1 -1.94186,1.94187 1.9418574,1.9418574 0 0 1 -1.94187,-1.94187 1.9418574,1.9418574 0 0 1 1.94187,-1.94187 1.9418574,1.9418574 0 0 1 1.94186,1.94187 z" />
    <path
       id="path5-9-5-5-9-267"
       style="isolation:isolate;fill:#000000;fill-opacity:1;stroke:#000000;stroke-width:0.560149;stroke-linecap:square;stroke-miterlimit:3;stroke-dashoffset:147.427"
       d="m 128.56587,544.16298 a 1.9418574,1.9418574 0 0 1 -1.94186,1.94187 1.9418574,1.9418574 0 0 1 -1.94187,-1.94187 1.9418574,1.9418574 0 0 1 1.94187,-1.94187 1.9418574,1.9418574 0 0 1 1.94186,1.94187 z" />
    <path
       id="path5-9-5-5-9-36"
       style="isolation:isolate;fill:#000000;fill-opacity:1;stroke:#000000;stroke-width:0.560149;stroke-linecap:square;stroke-miterlimit:3;stroke-dashoffset:147.427"
       d="m 151.78636,265.85733 a 1.9418574,1.9418574 0 0 1 -1.94186,1.94187 1.9418574,1.9418574 0 0 1 -1.94187,-1.94187 1.9418574,1.9418574 0 0 1 1.94187,-1.94187 1.9418574,1.9418574 0 0 1 1.94186,1.94187 z" />
    <path
       id="path5-9-5-5-9-59"
       style="isolation:isolate;fill:#000000;fill-opacity:1;stroke:#000000;stroke-width:0.560149;stroke-linecap:square;stroke-miterlimit:3;stroke-dashoffset:147.427"
       d="m 173.01536,243.12561 a 1.9418574,1.9418574 0 0 1 -1.94186,1.94187 1.9418574,1.9418574 0 0 1 -1.94187,-1.94187 1.9418574,1.9418574 0 0 1 1.94187,-1.94187 1.9418574,1.9418574 0 0 1 1.94186,1.94187 z" />
    <path
       id="path5-9-5-5-9-266"
       style="isolation:isolate;fill:#000000;fill-opacity:1;stroke:#000000;stroke-width:0.560149;stroke-linecap:square;stroke-miterlimit:3;stroke-dashoffset:147.427"
       d="m 193.2753,226.64913 a 1.9418574,1.9418574 0 0 1 -1.94186,1.94187 1.9418574,1.9418574 0 0 1 -1.94187,-1.94187 1.9418574,1.9418574 0 0 1 1.94187,-1.94187 1.9418574,1.9418574 0 0 1 1.94186,1.94187 z" />
    <path
       id="path5-9-5-5-9-292"
       style="isolation:isolate;fill:#000000;fill-opacity:1;stroke:#000000;stroke-width:0.560149;stroke-linecap:square;stroke-miterlimit:3;stroke-dashoffset:147.427"
       d="m 213.97065,216.6638 a 1.9418574,1.9418574 0 0 1 -1.94186,1.94187 1.9418574,1.9418574 0 0 1 -1.94187,-1.94187 1.9418574,1.9418574 0 0 1 1.94187,-1.94187 1.9418574,1.9418574 0 0 1 1.94186,1.94187 z" />
    <path
       id="path5-9-5-5-9-67"
       style="isolation:isolate;fill:#000000;fill-opacity:1;stroke:#000000;stroke-width:0.560149;stroke-linecap:square;stroke-miterlimit:3;stroke-dashoffset:147.427"
       d="m 387.32778,199.43173 a 1.9418574,1.9418574 0 0 1 -1.94186,1.94187 1.9418574,1.9418574 0 0 1 -1.94187,-1.94187 1.9418574,1.9418574 0 0 1 1.94187,-1.94187 1.9418574,1.9418574 0 0 1 1.94186,1.94187 z" />
    <path
       id="path5-9-5-5-9-82"
       style="isolation:isolate;fill:#000000;fill-opacity:1;stroke:#000000;stroke-width:0.560149;stroke-linecap:square;stroke-miterlimit:3;stroke-dashoffset:147.427"
       d="m 414.01153,207.24304 a 1.9418574,1.9418574 0 0 1 -1.94186,1.94187 1.9418574,1.9418574 0 0 1 -1.94187,-1.94187 1.9418574,1.9418574 0 0 1 1.94187,-1.94187 1.9418574,1.9418574 0 0 1 1.94186,1.94187 z" />
    <path
       id="path5-9-5-5-9-23"
       style="isolation:isolate;fill:#000000;fill-opacity:1;stroke:#000000;stroke-width:0.560149;stroke-linecap:square;stroke-miterlimit:3;stroke-dashoffset:147.427"
       d="m 436.10285,217.89968 a 1.9418574,1.9418574 0 0 1 -1.94186,1.94187 1.9418574,1.9418574 0 0 1 -1.94187,-1.94187 1.9418574,1.9418574 0 0 1 1.94187,-1.94187 1.9418574,1.9418574 0 0 1 1.94186,1.94187 z" />
    <path
       id="path5-9-5-5-9-66"
       style="isolation:isolate;fill:#000000;fill-opacity:1;stroke:#000000;stroke-width:0.560149;stroke-linecap:square;stroke-miterlimit:3;stroke-dashoffset:147.427"
       d="m 457.14084,236.7412 a 1.9418574,1.9418574 0 0 1 -1.94186,1.94187 1.9418574,1.9418574 0 0 1 -1.94187,-1.94187 1.9418574,1.9418574 0 0 1 1.94187,-1.94187 1.9418574,1.9418574 0 0 1 1.94186,1.94187 z" />
    <path
       id="path5-9-5-5-9-57"
       style="isolation:isolate;fill:#000000;fill-opacity:1;stroke:#000000;stroke-width:0.560149;stroke-linecap:square;stroke-miterlimit:3;stroke-dashoffset:147.427"
       d="m 371.94953,278.50545 a 1.9418574,1.9418574 0 0 1 -1.94186,1.94187 1.9418574,1.9418574 0 0 1 -1.94187,-1.94187 1.9418574,1.9418574 0 0 1 1.94187,-1.94187 1.9418574,1.9418574 0 0 1 1.94186,1.94187 z" />
    <path
       id="path5-9-5-5-9-21"
       style="isolation:isolate;fill:#000000;fill-opacity:1;stroke:#000000;stroke-width:0.560149;stroke-linecap:square;stroke-miterlimit:3;stroke-dashoffset:147.427"
       d="m 260.34977,276.81172 a 1.9418574,1.9418574 0 0 1 -1.94186,1.94187 1.9418574,1.9418574 0 0 1 -1.94187,-1.94187 1.9418574,1.9418574 0 0 1 1.94187,-1.94187 1.9418574,1.9418574 0 0 1 1.94186,1.94187 z" />
    <path
       id="path5-9-5-5-9-44"
       style="isolation:isolate;fill:#000000;fill-opacity:1;stroke:#000000;stroke-width:0.560149;stroke-linecap:square;stroke-miterlimit:3;stroke-dashoffset:147.427"
       d="m 188.60707,295.65324 a 1.9418574,1.9418574 0 0 1 -1.94186,1.94187 1.9418574,1.9418574 0 0 1 -1.94187,-1.94187 1.9418574,1.9418574 0 0 1 1.94187,-1.94187 1.9418574,1.9418574 0 0 1 1.94186,1.94187 z" />
  </g>
</svg>
