<?xml version="1.0" encoding="UTF-8" standalone="no"?>
<svg
   style="isolation:isolate"
   width="357.15656"
   height="357.01138"
   viewBox="0 0 357.15656 357.01138"
   version="1.1"
   id="svg1"
   sodipodi:docname="smalldeer.svg"
   inkscape:export-filename="circletest8.svg"
   inkscape:export-xdpi="96"
   inkscape:export-ydpi="96"
   xmlns:inkscape="http://www.inkscape.org/namespaces/inkscape"
   xmlns:sodipodi="http://sodipodi.sourceforge.net/DTD/sodipodi-0.dtd"
   xmlns="http://www.w3.org/2000/svg"
   xmlns:svg="http://www.w3.org/2000/svg">
  <sodipodi:namedview
     id="namedview1"
     pagecolor="#ffffff"
     bordercolor="#000000"
     borderopacity="0.25"
     inkscape:showpageshadow="2"
     inkscape:pageopacity="0.0"
     inkscape:pagecheckerboard="0"
     inkscape:deskcolor="#d1d1d1">
    <inkscape:page
       x="0"
       y="0"
       width="357.15656"
       height="357.01138"
       id="page2"
       margin="0"
       bleed="0" />
  </sodipodi:namedview>
  <defs
     id="defs1">
    <clipPath
       id="_clipPath_ufUKWNh03Q0ow8cg9bS2G9dNbT4C2wP3">
      <rect
         width="636"
         height="833.5"
         id="rect1"
         x="0"
         y="0" />
    </clipPath>
  </defs>
  <g
     clip-path="url(#_clipPath_ufUKWNh03Q0ow8cg9bS2G9dNbT4C2wP3)"
     id="g1"
     transform="translate(-139.42172,-238.24431)">
    <path
       id="path3"
       style="isolation:isolate;fill:none;fill-opacity:1;stroke:#000000;stroke-width:1;stroke-linecap:square;stroke-miterlimit:3;stroke-dasharray:none;paint-order:normal"
       d="M 327.72713,416.75 A 9.7271376,9.7271579 0 0 1 318,426.47716 9.7271376,9.7271579 0 0 1 308.27286,416.75 9.7271376,9.7271579 0 0 1 318,407.02284 9.7271376,9.7271579 0 0 1 327.72713,416.75 Z" />
    <path
       id="path3-8"
       style="isolation:isolate;fill:none;fill-opacity:1;stroke:#000000;stroke-width:1;stroke-linecap:square;stroke-miterlimit:3;stroke-dasharray:none;paint-order:normal"
       d="M 337.84043,416.75 A 19.840427,19.840469 0 0 1 318.00002,436.59047 19.840427,19.840469 0 0 1 298.15958,416.75 19.840427,19.840469 0 0 1 318.00002,396.90953 19.840427,19.840469 0 0 1 337.84043,416.75 Z" />
    <path
       id="path3-8-2"
       style="isolation:isolate;fill:none;fill-opacity:1;stroke:#000000;stroke-width:1;stroke-linecap:square;stroke-miterlimit:3;stroke-dasharray:none;paint-order:normal"
       d="M 349.41026,416.75 A 31.410273,31.410339 0 0 1 318.00002,448.16034 31.410273,31.410339 0 0 1 286.58974,416.75 31.410273,31.410339 0 0 1 318.00002,385.33966 31.410273,31.410339 0 0 1 349.41026,416.75 Z" />
    <path
       id="path3-8-2-1"
       style="isolation:isolate;fill:none;fill-opacity:1;stroke:#000000;stroke-width:1;stroke-linecap:square;stroke-miterlimit:3;stroke-dasharray:1, 3;stroke-dashoffset:0;paint-order:normal"
       d="m 366.19115,416.74977 a 48.192985,48.193087 0 0 1 -48.19294,48.19309 48.192985,48.193087 0 0 1 -48.19301,-48.19309 48.192985,48.193087 0 0 1 48.19301,-48.19309 48.192985,48.193087 0 0 1 48.19294,48.19309 z" />
    <path
       id="path3-8-2-1-0"
       style="isolation:isolate;fill:none;fill-opacity:1;stroke:#000000;stroke-width:1;stroke-linecap:square;stroke-miterlimit:3;stroke-dasharray:1, 4;stroke-dashoffset:0;paint-order:normal"
       d="m 391.62048,416.75038 a 73.621275,73.621431 0 0 1 -73.62121,73.62144 73.621275,73.621431 0 0 1 -73.62132,-73.62144 73.621275,73.621431 0 0 1 73.62132,-73.62144 73.621275,73.621431 0 0 1 73.62121,73.62144 z" />
    <path
       id="path3-8-2-1-0-0"
       style="isolation:isolate;fill:none;fill-opacity:1;stroke:#000000;stroke-width:0.902272;stroke-linecap:square;stroke-miterlimit:3;stroke-dasharray:0.902272, 5.41363;stroke-dashoffset:0;paint-order:normal"
       d="M 420.21676,416.75478 A 102.21772,102.21794 0 0 1 317.99912,518.97274 102.21772,102.21794 0 0 1 215.78134,416.75478 102.21772,102.21794 0 0 1 317.99912,314.53682 102.21772,102.21794 0 0 1 420.21676,416.75478 Z" />
    <path
       id="path3-8-2-1-0-0-8"
       style="isolation:isolate;fill:none;fill-opacity:1;stroke:#000000;stroke-width:1.17274;stroke-linecap:square;stroke-miterlimit:3;stroke-dasharray:1.17274, 14.0729;stroke-dashoffset:0;paint-order:normal"
       d="M 450.82744,416.78148 A 132.85843,132.85871 0 0 1 317.96912,549.64022 132.85843,132.85871 0 0 1 185.11061,416.78148 132.85843,132.85871 0 0 1 317.96912,283.92274 132.85843,132.85871 0 0 1 450.82744,416.78148 Z" />
    <path
       id="path3-8-2-1-0-0-8-8"
       style="isolation:isolate;fill:none;fill-opacity:1;stroke:#000000;stroke-width:1.57283;stroke-linecap:square;stroke-miterlimit:3;stroke-dasharray:1.57283, 75.4958;stroke-dashoffset:0;paint-order:normal"
       d="M 495.78938,417.07142 A 178.18385,178.18423 0 0 1 317.60568,595.25569 178.18385,178.18423 0 0 1 139.42172,417.07142 178.18385,178.18423 0 0 1 317.60568,238.88715 178.18385,178.18423 0 0 1 495.78938,417.07142 Z" />
  </g>
</svg>
