<?xml version="1.0" encoding="UTF-8" standalone="no"?>
<svg
   style="isolation:isolate"
   width="583.65192"
   height="614.70282"
   viewBox="0 0 583.65192 614.70282"
   version="1.1"
   id="svg1"
   sodipodi:docname="circletest10.svg"
   inkscape:export-filename="circletest11.svg"
   inkscape:export-xdpi="96"
   inkscape:export-ydpi="96"
   xmlns:inkscape="http://www.inkscape.org/namespaces/inkscape"
   xmlns:sodipodi="http://sodipodi.sourceforge.net/DTD/sodipodi-0.dtd"
   xmlns="http://www.w3.org/2000/svg"
   xmlns:svg="http://www.w3.org/2000/svg">
  <sodipodi:namedview
     id="namedview1"
     pagecolor="#ffffff"
     bordercolor="#000000"
     borderopacity="0.25"
     inkscape:showpageshadow="2"
     inkscape:pageopacity="0.0"
     inkscape:pagecheckerboard="0"
     inkscape:deskcolor="#d1d1d1">
    <inkscape:page
       x="0"
       y="0"
       width="583.65192"
       height="614.70282"
       id="page1"
       margin="0"
       bleed="0" />
  </sodipodi:namedview>
  <defs
     id="defs1">
    <clipPath
       id="_clipPath_ufUKWNh03Q0ow8cg9bS2G9dNbT4C2wP3">
      <rect
         width="636"
         height="833.5"
         id="rect1"
         x="0"
         y="0" />
    </clipPath>
  </defs>
  <g
     clip-path="url(#_clipPath_ufUKWNh03Q0ow8cg9bS2G9dNbT4C2wP3)"
     id="g1"
     transform="matrix(1.3799313,0,0,1.3799313,-171.86883,-272.06477)">
    <g
       id="path3-8-2-1-0-0-8-8-5">
      <path
         style="stroke-linecap:square;stroke-miterlimit:3;stroke-dasharray:3.4555, 82.9322"
         d="m 386.42578,200.1582 -0.22266,0.69141 0.34571,0.10937 0.68945,0.22266 0.3457,0.11133 0.22071,-0.69141 -0.34375,-0.10937 -0.68946,-0.22266 z m 17.05664,6.17774 -0.27539,0.66992 0.33399,0.13867 0.66992,0.27539 0.33593,0.13867 0.2754,-0.66992 -0.33399,-0.13867 -0.66992,-0.27539 z m 16.50586,7.52539 -0.32812,0.64648 0.32421,0.16406 0.64454,0.32813 0.32421,0.16406 0.32813,-0.64648 -0.32422,-0.16406 -0.64453,-0.32813 z m -208.25586,1.68554 -0.32031,0.16993 -0.64063,0.33984 -0.31836,0.16992 0.33985,0.64063 0.32031,-0.17188 0.63867,-0.33984 0.32032,-0.16992 z m 224.10938,7.13477 -0.37891,0.61719 0.30859,0.18945 0.54688,0.33594 0.0703,0.041 0.30664,0.19141 0.38281,-0.61523 -0.30859,-0.19141 -0.0703,-0.043 -0.54883,-0.33594 z m -239.81641,1.94141 -0.30469,0.19336 -0.61133,0.38867 -0.30664,0.19531 0.38868,0.61133 0.30664,-0.19531 0.61132,-0.38868 0.30469,-0.19531 z m 254.91406,8.11132 -0.42383,0.5879 0.29297,0.21289 0.25196,0.18164 0.33203,0.24414 0.29101,0.21484 0.42969,-0.58594 -0.29297,-0.21289 -0.33398,-0.24609 -0.25196,-0.18359 z m -269.84961,2.1836 -0.28906,0.21875 -0.57812,0.43555 -0.29102,0.21875 0.4375,0.57812 0.28906,-0.2168 0.57813,-0.4375 0.28906,-0.21679 z m -14.07031,11.44922 -0.27148,0.24023 -0.26758,0.23633 -0.27539,0.24609 -0.27149,0.24024 0.48243,0.54101 0.27148,-0.24023 0.27344,-0.24609 0.26562,-0.23438 0.27149,-0.24023 z m -13.12305,12.52734 -0.25195,0.26172 -0.5,0.52344 -0.25195,0.25976 0.52344,0.50196 0.25,-0.26172 0.50195,-0.52149 0.25195,-0.26172 z m -12.08789,13.52734 -0.22851,0.2793 -0.46094,0.56055 -0.22852,0.2793 0.56055,0.46093 0.22852,-0.28125 0.46093,-0.56054 0.22852,-0.2793 z m 360.22071,11.44141 -0.58789,0.42578 0.21289,0.29297 0.0859,0.11914 0.33594,0.46875 0.21094,0.29492 0.58789,-0.42187 -0.21094,-0.29492 -0.33594,-0.47071 -0.0879,-0.11914 z m 10.04297,15.10938 -0.6211,0.375 0.1875,0.30859 0.375,0.62109 0.1875,0.31055 0.6211,-0.375 -0.1875,-0.31055 -0.375,-0.61914 z m 8.80664,15.85937 -0.64844,0.32422 0.16211,0.32422 0.32422,0.64844 0.16211,0.32421 0.64843,-0.32421 -0.16211,-0.32422 -0.32421,-0.64844 z m 7.50976,16.51367 -0.67187,0.27149 0.13672,0.33593 0.27148,0.67188 0.13672,0.33594 0.67187,-0.27149 -0.13672,-0.33593 -0.27148,-0.67188 z m 14.29688,52.39063 -0.71875,0.10351 0.0527,0.35938 0.10156,0.7168 0.0508,0.35937 0.71875,-0.10352 -0.0527,-0.35937 -0.10156,-0.7168 z m 1.92187,18.03906 -0.72265,0.0469 0.0234,0.36132 0.0274,0.4043 0.0195,0.31641 0.0215,0.36328 0.72266,-0.0449 -0.0215,-0.36133 -0.0195,-0.32031 -0.0273,-0.4043 z m -0.21094,15.02148 v 0.36133 l -0.004,0.72461 v 0.36328 l 0.72461,0.002 0.002,-0.36133 0.002,-0.72656 v -0.36133 z m -0.68164,18.07227 -0.0293,0.35938 -0.0566,0.72265 -0.0293,0.36133 0.72266,0.0586 0.0293,-0.36132 0.0566,-0.72266 0.0293,-0.36133 z m -2.10547,17.95898 -0.0586,0.35743 -0.11523,0.71484 -0.0586,0.35742 0.71485,0.11719 0.0586,-0.35742 0.11719,-0.7168 0.0566,-0.35742 z m -3.53515,17.73633 -0.084,0.35157 -0.0547,0.2246 -0.11719,0.47657 -0.0879,0.35156 0.70312,0.17383 0.0879,-0.35156 0.11719,-0.47852 0.0547,-0.22656 0.0859,-0.35352 z m -4.94336,17.39258 -0.11328,0.3457 -0.10156,0.31055 -0.125,0.375 -0.11524,0.34375 0.6875,0.22852 0.11524,-0.34375 0.125,-0.375 0.10351,-0.31446 0.11328,-0.34375 z m -404.67774,54.73047 -0.60156,0.40234 0.20117,0.30078 0.4043,0.60157 0.20117,0.30078 0.60157,-0.40235 -0.20118,-0.30078 -0.40429,-0.60156 z m 10.60743,14.64453 -0.56836,0.44922 0.22461,0.28516 0.45117,0.56836 0.22461,0.2832 0.56836,-0.44922 -0.22461,-0.28516 -0.45117,-0.56836 z m 11.73632,13.75781 -0.53125,0.49219 0.2461,0.26563 0.34375,0.37109 0.15039,0.16211 0.24805,0.26562 0.52929,-0.49609 -0.24804,-0.26562 -0.15039,-0.15821 -0.3418,-0.37109 z m 12.78907,12.78711 -0.49219,0.53125 0.26562,0.2461 0.0801,0.0762 0.45508,0.41601 0.26758,0.24414 0.49023,-0.53515 -0.26757,-0.24414 -0.45313,-0.41406 -0.0801,-0.0742 z m 269.83984,28.3711 -0.31055,0.18554 -0.31054,0.1836 -0.31055,0.18359 -0.3125,0.18359 0.36523,0.625 0.3125,-0.18359 0.3125,-0.18359 0.31446,-0.1875 0.31054,-0.18555 z m -225.99219,3.375 -0.35156,0.63476 0.31836,0.17578 0.39063,0.2168 0.24414,0.13477 0.31836,0.17382 0.34765,-0.63671 -0.31836,-0.17383 -0.24219,-0.13282 -0.38867,-0.21679 z m 210.09961,5.25 -0.32617,0.16015 -0.10156,0.0508 -0.54688,0.26563 -0.32617,0.1582 0.31641,0.65235 L 416.875,622 l 0.54883,-0.26563 0.10351,-0.0508 0.32618,-0.16015 z m -193.95312,2.89648 -0.30078,0.66016 0.32812,0.15039 0.21485,0.0957 0.44921,0.20313 0.33008,0.14648 0.29688,-0.66016 -0.33008,-0.14843 -0.44922,-0.20118 -0.21094,-0.0957 z m 177.42383,4.43164 -0.33789,0.13086 -0.67579,0.26367 -0.33789,0.13282 0.26563,0.67382 0.33594,-0.13086 0.67578,-0.26367 0.33789,-0.13281 z m -160.67969,2.39649 -0.24805,0.67968 0.3418,0.125 0.12305,0.0449 0.56054,0.19921 0.3418,0.1211 0.24219,-0.6836 -0.33985,-0.12109 -0.55859,-0.19922 -0.12305,-0.043 z m 143.61328,3.58007 -0.34766,0.10547 -0.69336,0.20899 -0.34765,0.10351 0.20898,0.69336 0.34766,-0.10351 0.69336,-0.20899 0.34765,-0.10351 z m -126.375,1.88086 -0.19141,0.69922 0.34961,0.0957 0.16992,0.0469 0.53125,0.14063 0.34961,0.0937 0.1875,-0.69922 -0.34961,-0.0937 -0.52929,-0.14063 -0.16797,-0.0469 z m 108.88086,2.70703 -0.35352,0.0781 -0.10156,0.0215 -0.60547,0.13086 -0.35351,0.0762 0.15234,0.70898 0.35352,-0.0762 0.60742,-0.13086 0.10351,-0.0234 0.35352,-0.0781 z"
         id="path2" />
      <path
         style="stroke-linecap:square;stroke-miterlimit:3;stroke-dasharray:3.4555, 82.9322"
         d="m 384.88672,197.1582 -0.73047,2.26953 -0.95898,2.98047 2.29492,0.7168 c 0.43559,0.13604 0.88937,0.28724 1.36523,0.43945 l 2.27149,0.72657 1.67187,-5.23829 -2.25,-0.71484 -0.54101,-0.17383 -0.59571,-0.19336 -1.67187,-0.53906 v 0.002 z m 17.29687,6.06641 -0.90625,2.20508 -1.17578,2.86133 2.18555,0.91406 c 0.46236,0.19327 0.91208,0.37676 1.3457,0.55664 l 2.20899,0.91601 2.08984,-5.08007 -1.33984,-0.55664 0.002,-0.004 -1.19531,-0.49024 -0.18555,-0.0762 -2.20508,-0.90625 z m 16.75782,7.43164 -1.08008,2.12695 -1.41016,2.7793 2.13672,1.07422 c 0.41786,0.21038 0.84744,0.43193 1.29297,0.65625 l 2.12305,1.06836 2.48437,-4.89258 -1.29492,-0.6543 -1.1582,-0.58789 -0.16797,-0.084 -0.78321,-0.39844 -1.34179,-0.68359 v 0.002 z m -206.22266,1.66602 -2.10547,1.11914 c -0.42155,0.22399 -0.84995,0.45047 -1.28516,0.68359 l -2.09375,1.12109 2.57618,4.85743 2.11328,-1.13672 c 0.36661,-0.19755 0.73942,-0.39532 1.11719,-0.59571 l 2.10546,-1.11718 -0.33984,-0.64063 0.15039,-0.0801 z m 222.33789,7.08007 -1.24609,2.03125 -1.62305,2.64453 2.02344,1.25 c 0.42635,0.26333 0.8339,0.50916 1.21875,0.75 l 2.02734,1.26758 2.89453,-4.65234 -1.23828,-0.78516 0.008,-0.0117 -1.27343,-0.78125 -2.03125,-1.24609 z m -238.29492,1.92969 -2.01367,1.27734 c -0.40935,0.25962 -0.81784,0.52077 -1.22657,0.78125 l -2.00781,1.2793 2.94727,4.63867 2.01562,-1.28906 c 0.34956,-0.2235 0.71245,-0.45123 1.08594,-0.69141 l 2.00586,-1.28906 -0.38281,-0.5957 0.13086,-0.084 z m 253.63867,8.07422 -1.39453,1.93359 -1.81445,2.51758 1.92578,1.39649 c 0.39152,0.28362 0.77374,0.55927 1.14258,0.83398 l 1.92578,1.43555 3.26562,-4.45508 -1.18945,-0.86524 0.006,-0.008 -1.47266,-1.0625 -1.63672,-1.20508 -0.0117,0.0156 z m -268.85156,2.17187 -1.90039,1.43946 c -0.37983,0.28802 -0.76203,0.5768 -1.14844,0.86719 l -1.91211,1.4375 3.30664,4.37109 1.89649,-1.41016 c 0.36483,-0.27131 0.70535,-0.53301 1.02734,-0.77343 l 1.91016,-1.42774 -0.44336,-0.59375 0.14453,-0.11133 z m -14.3125,11.42383 -1.79102,1.57422 c -0.37469,0.32951 -0.73749,0.65545 -1.09179,0.96875 l -1.79297,1.58594 3.65234,4.09375 1.77734,-1.5625 c 0.34289,-0.30154 0.65508,-0.58699 0.94922,-0.84375 l 1.79688,-1.56836 -0.48242,-0.55273 0.13086,-0.11329 z m -13.39063,12.52149 -1.66015,1.71093 c -0.3592,0.37002 -0.68635,0.71925 -0.9961,1.03516 l -1.6875,1.72266 3.99219,3.82812 1.65039,-1.73633 c 0.28392,-0.29861 0.5768,-0.60198 0.87695,-0.91406 l 1.65235,-1.71875 -0.51563,-0.49609 0.10938,-0.11133 z m -12.3789,13.54492 -1.50586,1.84766 c -0.29484,0.36188 -0.60331,0.73295 -0.91797,1.11914 l -1.5,1.83984 4.2539,3.49805 1.51172,-1.875 c 0.24954,-0.30992 0.52015,-0.63589 0.80274,-0.98243 l 1.50586,-1.84765 -0.56055,-0.45703 0.10547,-0.13086 z m 361.0957,11.46484 -1.93164,1.39844 -2.52734,1.83203 1.41406,1.9336 c 0.27197,0.37185 0.54733,0.75871 0.83203,1.15625 l 1.38867,1.93945 4.46094,-3.20117 -0.84961,-1.1875 0.01,-0.008 -1.21093,-1.67187 -1.04297,-1.46094 -0.01,0.006 z m -3.00977,3.95899 0.84766,1.1875 -0.84961,-1.18555 z m 13.32813,11.20703 -2.04102,1.23242 -2.67187,1.61328 1.24805,2.04492 c 0.24537,0.40237 0.49108,0.81396 0.74414,1.23243 l 1.23437,2.0371 4.70117,-2.83789 -1.41992,-2.35351 -0.10156,-0.16602 -0.39063,-0.64453 z m 9.06445,15.93359 -2.13281,1.06641 -2.78125,1.39062 1.06641,2.13282 c 0.21613,0.43226 0.43226,0.86454 0.64843,1.29687 l 1.06641,2.13281 4.91406,-2.45703 -0.64844,-1.29687 -0.58007,-1.16016 -0.0859,-0.17187 -1.06641,-2.13282 z m 7.75977,16.60938 -2.20899,0.89258 -2.89257,1.16992 0.90625,2.21679 c 0.17709,0.43253 0.35574,0.88168 0.54492,1.34375 l 0.90039,2.19532 5.08789,-2.05664 -1.03711,-2.54688 -0.0703,-0.17578 -0.89453,-2.21094 z m 15,52.79492 -2.35938,0.33984 -3.09179,0.44532 0.35546,2.36914 c 0.0685,0.45838 0.13177,0.93253 0.20118,1.41992 l 0.33789,2.36523 5.44726,-0.78515 -0.21093,-1.43555 -0.0312,-0.2207 -0.28516,-1.97266 -0.23047,-1.63281 h -0.004 z m 2.12695,18.20508 -2.37891,0.15429 -3.0996,0.20118 0.15234,2.37695 c 0.0316,0.49505 0.0651,0.96793 0.0898,1.42187 l 0.13086,2.40039 5.49414,-0.34179 L 547.13281,404 h 0.008 l -0.084,-1.28125 -0.008,-0.14648 -0.004,-0.0527 -0.14453,-2.37891 h -0.01 z m -0.0625,15.16015 -4.76758,0.0215 0.01,2.38476 c 0.002,0.44801 -0.006,0.93102 -0.004,1.44922 l 0.0117,2.36524 5.4668,0.0156 0.0156,-2.375 c 0.003,-0.43142 0.004,-0.86475 0.004,-1.29883 l -0.002,-2.38476 h -0.73438 z m -5.23047,17.89063 -0.19922,2.37695 c -0.0421,0.5002 -0.0766,0.98073 -0.11523,1.44336 l -0.19922,2.38281 5.47461,0.44336 0.19727,-2.36914 c 0.0372,-0.44384 0.0697,-0.87101 0.10351,-1.28125 l 0.19531,-2.37695 -0.71875,-0.0586 0.0137,-0.16016 z m -1.89062,17.79297 -0.39063,2.35156 c -0.082,0.49311 -0.15603,0.97023 -0.23242,1.42969 l -0.39258,2.35742 5.42969,0.88867 0.38281,-2.35547 c 0.0669,-0.41141 0.13977,-0.83715 0.20899,-1.27929 l 0.36718,-2.35547 -0.69531,-0.10938 0.0254,-0.14648 z m -3.34375,17.60937 -0.55078,2.32031 c -0.10794,0.45544 -0.22034,0.91294 -0.33594,1.37305 l -0.58399,2.32031 5.32813,1.31641 0.58203,-2.29687 c 0.11014,-0.43456 0.21232,-0.85856 0.3125,-1.27149 l 0.5625,-2.31836 -0.7168,-0.17383 0.041,-0.16992 z m -4.70117,17.25586 -0.74024,2.26563 c -0.14861,0.4556 -0.29499,0.9069 -0.44531,1.35156 l -0.76758,2.26953 5.21484,1.73438 0.75782,-2.25 c 0.13895,-0.41239 0.27528,-0.82523 0.41015,-1.23633 l 0.74219,-2.26563 -0.69141,-0.22656 0.0527,-0.16406 z m -402.49415,54.42969 -1.98242,1.32422 -2.57812,1.72656 1.31836,1.98047 c 0.27557,0.4137 0.54685,0.81313 0.80664,1.20312 l 1.32422,1.98829 4.56836,-3.05665 -1.52735,-2.28515 -0.11133,-0.16602 -0.51757,-0.77148 z m 10.34375,14.60156 -1.87109,1.47852 -2.43164,1.92187 1.46484,1.86914 c 0.30867,0.39375 0.61438,0.77315 0.90821,1.14453 l 1.47851,1.86914 4.30469,-3.40234 -0.89648,-1.13867 -0.008,-0.01 -0.79492,-1.00976 -0.125,-0.15625 -0.39844,-0.50196 z m 11.47266,13.73828 -1.75,1.6211 -2.28125,2.11328 1.62305,1.74804 c 0.32452,0.34965 0.65467,0.71003 0.99609,1.07422 l 1.63086,1.73828 4.00586,-3.7539 -1.88086,-2.01172 -0.13672,-0.14648 z m 12.53125,12.78711 -1.61914,1.74805 -2.10547,2.27148 1.73242,1.6211 c 0.36879,0.34533 0.73393,0.67785 1.0918,1.0039 l 1.75781,1.60157 3.70899,-4.04883 -2.03125,-1.85352 -0.14063,-0.1289 -0.27344,-0.25 z m 270.78711,28.46875 -2.04492,1.22656 c -0.40231,0.24116 -0.80999,0.48292 -1.22461,0.72657 l -2.05078,1.20508 2.76953,4.73828 2.05859,-1.20703 c 0.36986,-0.21689 0.7483,-0.4378 1.13086,-0.66797 l 2.04297,-1.23047 -0.37109,-0.61524 0.14258,-0.0859 z m -227.74023,3.40625 -1.15625,2.08594 -1.50977,2.72656 2.0957,1.15235 c 0.40808,0.22412 0.83414,0.46506 1.28516,0.70898 l 2.08984,1.12891 2.62696,-4.8125 -2.40821,-1.31641 -0.16406,-0.0898 -0.0644,-0.0352 z m -1.03516,4.88672 1.56836,0.86133 -1.57031,-0.85938 z m 213.14258,0.4082 -2.13672,1.0586 c -0.42019,0.20802 -0.84698,0.41459 -1.28125,0.625 l -2.14649,1.04101 2.40821,4.96485 2.15625,-1.07227 c 0.35201,-0.17505 0.73636,-0.35639 1.14844,-0.56055 l 2.13671,-1.05859 -0.32226,-0.64844 0.1543,-0.0762 z m -196.21289,2.9336 -0.98828,2.16992 -1.28711,2.82617 2.16406,0.99024 c 0.44754,0.20482 0.89776,0.4073 1.34961,0.60742 l 2.16601,0.96094 2.24805,-4.99805 -2.50586,-1.12695 -0.17969,-0.0801 -0.21289,-0.0957 z m 179.9707,4.50586 -2.22461,0.85937 c -0.456,0.17617 -0.91221,0.35391 -1.36719,0.53321 l -2.21679,0.875 2.00976,5.10156 2.21485,-0.86328 c 0.39385,-0.15364 0.79333,-0.30883 1.19921,-0.46875 l 2.21875,-0.87305 -0.25976,-0.6582 0.14453,-0.0566 z m -163.4668,2.42383 -0.81836,2.24023 -1.06054,2.90625 2.22265,0.82422 c 0.48298,0.17939 0.95164,0.34266 1.40039,0.50195 l 2.24805,0.79883 1.83399,-5.17578 -2.58204,-0.91992 -0.18164,-0.0645 -0.77148,-0.27539 z m 146.62305,3.6621 -2.28125,0.69336 c -0.46213,0.1403 -0.9196,0.27981 -1.37305,0.41407 l -2.29687,0.67968 1.58398,5.25391 2.27344,-0.66797 c 0.43074,-0.12674 0.83965,-0.25348 1.23047,-0.36914 l 2.28516,-0.67578 -0.21094,-0.71289 0.17578,-0.0527 z m -146.88281,1.32618 1.7207,0.61328 0.18164,0.0664 -1.90234,-0.67773 z m 17.25,0.59961 -0.62891,2.30078 -0.81836,2.98437 2.28321,0.63867 c 0.49833,0.13969 0.9733,0.26368 1.42187,0.38477 l 2.30469,0.62109 1.42383,-5.30859 -2.6543,-0.71094 -0.19141,-0.0508 -0.10156,-0.0273 z m 112.35937,2.79101 -2.32617,0.51758 c -0.45431,0.1011 -0.9212,0.20086 -1.40039,0.30469 l -2.32617,0.5039 1.15234,5.3711 2.33594,-0.50586 c 0.40775,-0.0884 0.83189,-0.17655 1.27148,-0.27539 l 2.32618,-0.52344 -0.15821,-0.70313 0.16211,-0.0352 z"
         id="path4" />
    </g>
    <path
       style="stroke-linecap:square;stroke-miterlimit:3"
       d="m 318,415.2793 c -0.8075,-10e-6 -1.4707,0.66319 -1.4707,1.4707 0,0.80751 0.6632,1.47071 1.4707,1.4707 0.8075,0 1.4707,-0.6632 1.4707,-1.4707 0,-0.8075 -0.6632,-1.4707 -1.4707,-1.4707 z m 0,0.72461 c 0.41586,0 0.74609,0.33023 0.74609,0.74609 0,0.41586 -0.33023,0.74609 -0.74609,0.74609 -0.41586,0 -0.74609,-0.33023 -0.74609,-0.74609 0,-0.41586 0.33023,-0.74609 0.74609,-0.74609 z"
       id="path3" />
    <path
       style="stroke-linecap:square;stroke-miterlimit:3"
       d="m 318,392.45312 c -13.41465,-1e-5 -24.29687,10.8822 -24.29688,24.29688 10e-6,13.41468 10.88223,24.29689 24.29688,24.29687 13.41463,-1e-5 24.29687,-10.88221 24.29687,-24.29687 0,-13.41466 -10.88224,-24.29686 -24.29687,-24.29688 z m 0,0.72461 c 13.02299,2e-5 23.57227,10.54925 23.57227,23.57227 0,13.02302 -10.54928,23.57225 -23.57227,23.57227 -13.02301,10e-6 -23.57227,-10.54924 -23.57227,-23.57227 0,-13.02303 10.54926,-23.57228 23.57227,-23.57227 z"
       id="path3-8-7" />
    <path
       style="stroke-linecap:square;stroke-miterlimit:3;stroke-dasharray:0.624485, 1.87346"
       d="m 318.04102,374.90625 -0.3125,0.002 -0.27149,0.002 -0.35742,0.008 -0.3125,0.006 0.0117,0.62304 0.3125,-0.006 0.35351,-0.006 0.26758,-0.002 0.3125,-0.002 z m 1.25976,0.0215 -0.0195,0.625 0.31055,0.01 0.52734,0.0234 0.0898,0.004 0.3125,0.0176 0.0352,-0.62305 -0.3125,-0.0176 -0.0937,-0.006 -0.53516,-0.0234 h -0.002 z m -3.77734,0.0488 -0.31055,0.0234 -0.43359,0.0293 -0.19336,0.0156 -0.3125,0.0254 0.0527,0.62305 0.31055,-0.0254 0.18945,-0.0156 0.42969,-0.0312 0.31055,-0.0215 z m 6.29101,0.10352 -0.0605,0.62109 0.31054,0.0293 0.14844,0.0137 0.46875,0.0508 0.31055,0.0332 0.0684,-0.62109 -0.31055,-0.0332 -0.47461,-0.0508 -0.15039,-0.0137 z m -8.79492,0.12109 -0.30859,0.0371 -0.041,0.006 -0.52344,0.0684 -0.0625,0.01 -0.30859,0.0449 0.0898,0.61914 0.3086,-0.0469 0.0605,-0.008 0.51368,-0.0684 0.0371,-0.004 0.31054,-0.0391 z m 11.29297,0.17969 -0.0977,0.61523 0.3086,0.0508 0.26367,0.041 0.34766,0.0605 0.30859,0.0527 0.10547,-0.61523 -0.3086,-0.0527 -0.35156,-0.0605 -0.26758,-0.043 z m -13.78125,0.19141 -0.30859,0.0566 -0.14454,0.0273 -0.4707,0.0937 -0.30664,0.0605 0.12109,0.61132 0.30665,-0.0605 0.46679,-0.0918 0.14258,-0.0273 0.30664,-0.0566 z m 16.25781,0.25976 -0.13672,0.60742 0.30469,0.0684 0.34961,0.0801 0.25586,0.0605 0.30273,0.0723 0.14454,-0.60937 -0.30274,-0.0703 -0.25976,-0.0625 -0.35352,-0.0801 z m -18.7207,0.25977 -0.30274,0.0762 -0.2246,0.0566 -0.38477,0.10156 -0.30078,0.0801 0.1582,0.60352 0.30274,-0.0801 0.38086,-0.0996 0.21875,-0.0566 0.30273,-0.0742 z m 21.16601,0.33984 -0.17578,0.59961 0.30078,0.0859 0.41016,0.11914 0.18555,0.0566 0.29883,0.0918 0.18164,-0.59766 -0.29883,-0.0918 -0.18945,-0.0566 -0.41407,-0.12109 z m -23.59375,0.33008 -0.29687,0.0937 -0.27734,0.0879 -0.32032,0.10742 -0.29687,0.0977 0.19726,0.59179 0.29688,-0.0976 0.31445,-0.10352 0.27539,-0.0879 0.29688,-0.0957 z m 25.9961,0.41601 -0.21094,0.58789 0.29492,0.10547 0.44922,0.16211 0.13477,0.0488 0.29101,0.10938 0.21875,-0.58399 -0.29297,-0.10937 -0.13671,-0.0508 -0.45313,-0.16407 z m -28.37695,0.39844 -0.29102,0.11328 -0.3125,0.1211 -0.27148,0.10742 -0.29102,0.11719 0.23242,0.58007 0.29102,-0.11718 0.26758,-0.10743 0.30859,-0.11914 0.29101,-0.11328 z m 30.72656,0.49414 -0.24024,0.57813 0.28907,0.11914 0.008,0.004 0.46094,0.19727 0.0976,0.043 0.28516,0.12695 0.2539,-0.57031 -0.28515,-0.12695 -0.10156,-0.0449 -0.46875,-0.20117 -0.01,-0.004 z m -33.05469,0.46289 -0.2832,0.13086 -0.33203,0.15235 -0.23829,0.11132 -0.28125,0.13477 0.26758,0.56445 0.28125,-0.13476 0.23438,-0.11133 0.33008,-0.15039 0.2832,-0.13086 z m 35.34961,0.57032 -0.27344,0.56054 0.2793,0.13672 0.0293,0.0156 0.44531,0.22461 0.0762,0.0391 0.27734,0.14453 0.28711,-0.55469 -0.27539,-0.14453 -0.0801,-0.041 -0.45312,-0.22851 -0.0312,-0.0156 z m -37.61523,0.52539 -0.2754,0.14843 -0.33789,0.17969 -0.21289,0.11914 -0.27343,0.15039 0.30078,0.54688 0.27343,-0.15039 0.21094,-0.11719 0.33399,-0.17774 0.27539,-0.14843 z m 39.84375,0.64257 -0.3086,0.54297 0.27344,0.1543 0.0391,0.0234 0.43164,0.25 0.0605,0.0391 0.26758,0.16016 0.32226,-0.53711 -0.26758,-0.16016 -0.0664,-0.0391 -0.43555,-0.25391 -0.0449,-0.0254 z m -42.03711,0.58789 -0.26758,0.16407 -0.33399,0.20703 -0.19922,0.125 -0.26367,0.16797 0.33399,0.52734 0.26367,-0.16797 0.19726,-0.12304 0.33008,-0.20508 0.26563,-0.16211 z m 44.1914,0.7129 -0.33984,0.52343 0.26172,0.17188 0.0449,0.0273 0.41211,0.27539 0.0566,0.0391 0.25781,0.17579 0.35156,-0.51563 -0.25781,-0.17578 -0.0586,-0.041 -0.41797,-0.27929 -0.0488,-0.0312 z m -46.30859,0.64843 -0.25586,0.17969 -0.32422,0.22656 -0.18945,0.13672 -0.25196,0.18164 0.36524,0.50781 0.25195,-0.18359 0.1875,-0.13281 0.32031,-0.22461 0.25391,-0.17969 z m 48.38086,0.7793 -0.3711,0.50195 0.25196,0.18555 0.043,0.0332 0.39453,0.29883 0.0527,0.041 0.24805,0.1914 0.38281,-0.49218 -0.24805,-0.19141 -0.0566,-0.0449 -0.40039,-0.30274 -0.0449,-0.0352 z m -50.41211,0.70508 -0.24414,0.19531 -0.3086,0.24414 -0.18164,0.14844 -0.24218,0.19726 0.39453,0.48438 0.24218,-0.19727 0.17969,-0.14648 0.30469,-0.24219 0.24414,-0.19336 z m 52.39453,0.84375 -0.40039,0.48047 0.24023,0.19922 0.0371,0.0332 0.37696,0.32031 0.0547,0.0488 0.23438,0.20508 0.41211,-0.46875 -0.23438,-0.20703 -0.0586,-0.0488 -0.38086,-0.32617 -0.041,-0.0352 z m -54.33398,0.76172 -0.23243,0.20898 -0.28711,0.25781 -0.17773,0.16407 -0.23047,0.21093 0.42383,0.45899 0.22851,-0.21094 0.17579,-0.16016 0.28515,-0.25781 0.23242,-0.20703 z m 56.2207,0.90429 -0.42774,0.45508 0.22657,0.21289 0.0312,0.0312 0.35742,0.3418 0.0547,0.0566 0.22265,0.21875 0.43946,-0.44336 -0.22266,-0.2207 -0.0586,-0.0566 -0.36133,-0.34961 -0.0352,-0.0312 z m -58.06055,0.8125 -0.21875,0.22266 -0.26758,0.26953 -0.17187,0.17774 -0.2168,0.2246 0.44922,0.4336 0.2168,-0.22461 0.16992,-0.17578 0.26367,-0.26758 0.2207,-0.2207 z m 59.84375,0.96289 -0.45312,0.42774 0.21289,0.22656 0.0254,0.0273 0.33398,0.36329 0.0586,0.0644 0.20898,0.23242 0.46289,-0.41797 -0.20703,-0.23242 -0.0605,-0.0664 -0.33984,-0.36914 -0.0273,-0.0293 z m -61.57617,0.86133 -0.20703,0.23438 -0.2461,0.28125 -0.16601,0.19336 -0.20313,0.23632 0.47461,0.40625 0.20313,-0.23632 0.16406,-0.19141 0.24414,-0.27734 0.20508,-0.23633 z m 63.25195,1.01563 -0.48047,0.40039 0.20118,0.24023 0.0195,0.0234 0.3125,0.38281 0.0566,0.0723 0.19336,0.24414 0.49023,-0.38867 -0.19531,-0.24414 -0.0586,-0.0742 -0.31836,-0.38867 -0.0215,-0.0274 z m -64.875,0.9082 -0.1914,0.24609 -0.22657,0.29297 -0.15625,0.20508 -0.1875,0.25 0.49805,0.37695 0.1875,-0.25 0.1543,-0.20312 0.22461,-0.28906 0.1914,-0.2461 z m 66.4336,1.06641 -0.50196,0.37109 0.18555,0.25195 0.0156,0.0215 0.28906,0.40234 0.0547,0.0781 0.17968,0.2539 0.50977,-0.35742 -0.17774,-0.25586 -0.0566,-0.0801 -0.29492,-0.4082 -0.0176,-0.0254 z m -67.93555,0.95117 -0.17773,0.25781 -0.20704,0.30469 -0.14453,0.21484 -0.17383,0.25977 0.51954,0.34765 0.17382,-0.25976 0.14258,-0.21289 0.20508,-0.30274 0.17578,-0.25586 z m 69.37305,1.11523 -0.52344,0.33985 0.16992,0.26172 0.0156,0.0234 0.26562,0.41992 0.0488,0.0781 0.16211,0.26562 0.5332,-0.32617 -0.16406,-0.26758 -0.0508,-0.0801 -0.26953,-0.42578 -0.0176,-0.0274 z m -70.75391,0.98828 -0.16016,0.26954 -0.1914,0.32031 -0.12891,0.21875 -0.1582,0.26953 0.54101,0.31445 0.15625,-0.26953 0.12696,-0.2168 0.18945,-0.3164 0.16016,-0.26758 z m 72.06641,1.15821 -0.54493,0.30859 0.1543,0.27149 0.0195,0.0312 0.24024,0.4375 0.0391,0.0723 0.14648,0.27539 0.55079,-0.29492 -0.14844,-0.27539 -0.0391,-0.0762 -0.24415,-0.44336 -0.0215,-0.0352 z m -73.31641,1.02539 -0.14453,0.27734 -0.17774,0.34375 -0.10937,0.21485 -0.14063,0.27929 0.55665,0.28125 0.14062,-0.27929 0.10742,-0.21094 0.17774,-0.33985 0.14257,-0.27734 z m 74.49609,1.19726 -0.56054,0.27539 0.13672,0.2793 0.0234,0.0488 0.21485,0.45117 0.0254,0.0586 0.13086,0.28321 0.5664,-0.25977 -0.1289,-0.28515 -0.0293,-0.0606 -0.2168,-0.45899 -0.0254,-0.0508 z m -75.61328,1.0586 -0.12695,0.28515 -0.16602,0.37305 -0.0879,0.20313 -0.12304,0.28515 0.57422,0.24805 0.12304,-0.28711 0.084,-0.19922 0.16601,-0.36914 0.12696,-0.28516 z m 76.65625,1.23242 -0.57617,0.23828 0.11914,0.28906 0.0312,0.0742 0.1875,0.4668 0.0117,0.0312 0.11328,0.29101 0.58203,-0.22461 -0.11328,-0.29101 -0.0137,-0.0371 -0.18945,-0.47266 -0.0312,-0.0781 z m -77.63672,1.08594 -0.10937,0.29297 -0.1543,0.41601 -0.0625,0.17383 -0.10547,0.29297 0.58789,0.21094 0.10547,-0.29297 0.0605,-0.16993 0.1543,-0.4121 0.10937,-0.29297 z m 78.54102,1.26172 -0.58984,0.20507 0.10156,0.29493 0.0391,0.11328 0.15625,0.47461 0.0996,0.29687 0.5918,-0.19726 -0.0977,-0.29493 -0.1582,-0.47851 -0.041,-0.11914 z m -79.37891,1.11132 -0.0898,0.29883 -0.14453,0.47461 -0.0371,0.12695 -0.0879,0.30079 0.59961,0.17382 0.0879,-0.29882 0.0371,-0.125 0.14258,-0.47071 0.0898,-0.29687 z m 80.13868,1.28907 -0.60157,0.16601 0.082,0.30078 0.0488,0.17188 0.11328,0.42773 0.0781,0.30274 0.60351,-0.16016 -0.0781,-0.30078 -0.11524,-0.43164 -0.0488,-0.17578 z m -80.82422,1.1289 -0.0762,0.30274 -0.0117,0.0469 -0.1211,0.50586 -0.0137,0.0625 -0.0684,0.30469 0.60938,0.13672 0.0684,-0.30469 0.0137,-0.0586 0.11718,-0.49805 0.0117,-0.043 0.0762,-0.30273 z m 81.4375,1.3125 -0.61133,0.12891 0.0644,0.30469 0.0527,0.25195 0.0703,0.35742 0.0605,0.30469 0.61328,-0.1211 -0.0605,-0.30468 -0.0723,-0.36328 -0.0527,-0.25391 z m -81.98243,1.14453 -0.0566,0.3086 -0.0254,0.13281 -0.082,0.48633 -0.0547,0.30664 0.61719,0.10547 0.0527,-0.30664 0.082,-0.48243 0.0234,-0.1289 0.0586,-0.30664 z m 82.44727,1.33008 -0.61914,0.0899 0.0449,0.30859 0.0527,0.35351 0.0351,0.26172 0.041,0.3086 0.61914,-0.082 -0.041,-0.31055 -0.0352,-0.26367 -0.0527,-0.35742 z m -82.8418,1.15625 -0.0371,0.31055 -0.0293,0.24609 -0.041,0.37891 -0.0351,0.31055 0.62109,0.0664 0.0352,-0.31055 0.0391,-0.375 0.0293,-0.24218 0.0371,-0.3086 z m 83.15625,1.33985 -0.62304,0.0527 0.0273,0.31055 0.0391,0.48632 0.01,0.13282 0.0215,0.31054 0.62305,-0.043 -0.0215,-0.3125 -0.01,-0.13477 -0.041,-0.49023 z m -83.40234,1.16601 -0.0176,0.3125 -0.0215,0.39063 -0.0117,0.23632 -0.0137,0.3125 0.625,0.0274 0.0137,-0.3125 0.01,-0.23242 0.0215,-0.38672 0.0176,-0.3125 z m 83.5625,1.34375 -0.62305,0.0195 0.01,0.31055 0.004,0.11719 0.01,0.5039 0.006,0.29492 v 0.0176 l -0.002,0.2461 -0.004,0.53515 -0.002,0.0859 -0.006,0.31055 0.625,0.0117 0.006,-0.31055 0.002,-0.0898 0.002,-0.53907 0.002,-0.26172 v -0.0508 l -0.006,-0.26172 -0.01,-0.50781 -0.002,-0.12109 z m -83.6543,1.16797 -0.002,0.3125 v 0.0312 l 0.004,0.54102 v 0.0605 l 0.006,0.3125 0.625,-0.0137 -0.006,-0.31055 -0.002,-0.0566 -0.002,-0.5332 v -0.0273 l 0.002,-0.3125 z m 0.67774,2.48047 -0.625,0.0371 0.0176,0.31054 0.0117,0.20313 0.0293,0.42383 0.0234,0.3125 0.62305,-0.043 -0.0234,-0.3125 -0.0293,-0.42188 -0.01,-0.19726 z m 82.32422,0.0293 -0.0176,0.3125 -0.01,0.16796 -0.0312,0.45118 -0.0215,0.31054 0.62304,0.0449 0.0215,-0.3125 0.0312,-0.45312 0.01,-0.17383 0.0176,-0.31055 z m -82.12696,2.4414 -0.61914,0.0742 0.0371,0.31055 0.041,0.33593 0.0391,0.28711 0.041,0.31055 0.61914,-0.084 -0.041,-0.3086 -0.0391,-0.2832 -0.0391,-0.33203 z m 81.92578,0.0293 -0.0371,0.31055 -0.0371,0.30273 -0.041,0.3125 -0.041,0.30859 0.61914,0.084 0.041,-0.31055 0.041,-0.31641 0.0371,-0.30664 0.0371,-0.31054 z m -81.57812,2.42383 -0.61328,0.11523 0.0566,0.30664 0.0801,0.4375 0.0352,0.17969 0.0605,0.30664 0.61328,-0.12109 -0.0605,-0.30664 -0.0351,-0.17579 -0.0801,-0.43359 z m 81.23047,0.0293 -0.0566,0.30664 -0.0762,0.40625 -0.041,0.20313 -0.0605,0.30664 0.61328,0.12109 0.0605,-0.30468 0.041,-0.20899 0.0762,-0.41015 0.0566,-0.30665 z m -80.73242,2.40235 -0.60743,0.14453 0.0723,0.30469 0.004,0.0117 0.125,0.50391 0.0254,0.0957 0.0801,0.30274 0.60352,-0.16016 -0.0781,-0.30078 -0.0254,-0.0937 -0.125,-0.49414 -0.002,-0.01 z m 80.23632,0.0254 -0.0762,0.30273 -0.12109,0.48047 -0.0312,0.12109 -0.0801,0.30274 0.60352,0.1582 0.0801,-0.30078 0.0332,-0.125 0.12109,-0.48437 0.0762,-0.30274 z m -79.59375,2.36914 -0.59765,0.18164 0.0898,0.29883 0.0234,0.0742 0.15625,0.49023 0.0117,0.0371 0.0976,0.29687 0.59375,-0.19726 -0.0976,-0.29492 -0.0117,-0.0332 -0.1543,-0.48242 -0.0215,-0.0723 z m 78.94532,0.0273 -0.0898,0.29883 -0.0137,0.043 -0.1543,0.48437 -0.0195,0.0605 -0.0977,0.29688 0.59179,0.19531 0.0996,-0.29688 0.0215,-0.0644 0.15429,-0.49023 0.0156,-0.0469 0.0898,-0.29883 z m -78.16016,2.32227 -0.58594,0.21875 0.10938,0.29297 0.043,0.11718 0.18164,0.46875 0.11328,0.29102 0.58203,-0.22461 -0.11328,-0.29102 -0.17969,-0.46484 -0.043,-0.11523 z m 77.375,0.0273 -0.10937,0.29297 -0.0332,0.0879 -0.18164,0.46875 -0.008,0.0195 -0.11524,0.28906 0.57813,0.23243 0.11719,-0.28907 0.008,-0.0234 0.18555,-0.47657 0.0332,-0.0898 0.10937,-0.29297 z m -76.44922,2.27149 -0.57226,0.2539 0.12695,0.28516 0.0645,0.14453 0.19727,0.42773 0.13086,0.28321 0.5664,-0.25977 -0.13086,-0.2832 -0.19336,-0.42383 -0.0625,-0.14258 z m 75.52149,0.0273 -0.12696,0.28516 -0.0508,0.11523 -0.20703,0.44922 -0.13086,0.2832 0.56641,0.26172 0.13086,-0.2832 0.20898,-0.45508 0.0527,-0.11719 0.12695,-0.28515 z m -74.45899,2.21289 -0.55469,0.28711 0.14454,0.27734 0.082,0.15821 0.21289,0.39648 0.14648,0.27539 0.55078,-0.29492 -0.14648,-0.27539 -0.21094,-0.39258 -0.0801,-0.15625 z m 73.39258,0.0254 -0.14258,0.27734 -0.0684,0.12891 -0.22461,0.41797 -0.14648,0.27539 0.55078,0.29492 0.14648,-0.27539 0.22657,-0.42187 0.0684,-0.13282 0.14453,-0.27734 z m -72.19531,2.14453 -0.53711,0.32031 0.16211,0.26954 0.0957,0.16211 0.23047,0.37304 0.16406,0.26563 0.53125,-0.32617 -0.16211,-0.26758 -0.22851,-0.36914 -0.0957,-0.16016 z m 70.99804,0.0254 -0.16015,0.26758 -0.0801,0.13477 -0.24414,0.39453 -0.16406,0.26562 0.53125,0.32813 0.16406,-0.26563 0.24609,-0.39843 0.082,-0.13868 0.16016,-0.26757 z m -69.67382,2.07032 -0.51563,0.35156 0.17578,0.25781 0.10938,0.16016 0.25,0.35547 0.17968,0.25585 0.51172,-0.35937 -0.17968,-0.25586 -0.24805,-0.35156 -0.10742,-0.15625 z m 68.34765,0.0234 -0.17578,0.25782 -0.0918,0.13281 -0.26367,0.37695 -0.17969,0.25391 0.51172,0.35937 0.17774,-0.25586 0.26758,-0.3789 0.0918,-0.13477 0.17774,-0.25781 z m -66.89844,1.98828 -0.49414,0.38282 0.19141,0.24609 0.11719,0.15039 0.27148,0.3418 0.19531,0.24609 0.48829,-0.39062 -0.19336,-0.24414 -0.26953,-0.33789 -0.11524,-0.14844 z m 65.44922,0.0215 -0.19336,0.24805 -0.0957,0.125 -0.28906,0.36132 -0.19336,0.24414 0.48828,0.38868 0.19531,-0.24414 0.28907,-0.36524 0.0996,-0.12695 0.19141,-0.2461 z m -63.88281,1.89844 -0.4707,0.41211 0.20703,0.23437 0.12305,0.14063 0.29492,0.32812 0.20703,0.23242 0.46484,-0.41601 -0.20898,-0.23243 -0.29102,-0.32617 -0.12109,-0.13672 z m 62.31445,0.0234 -0.20703,0.23438 -0.0996,0.11523 -0.3125,0.34766 -0.20898,0.23242 0.46484,0.41797 0.20899,-0.23242 0.31445,-0.35156 0.10352,-0.11719 0.20507,-0.23633 z m -60.63671,1.80274 -0.44532,0.4375 0.22071,0.22265 0.12695,0.12696 0.31836,0.3164 0.22265,0.21875 0.4375,-0.44336 -0.2207,-0.2207 -0.3164,-0.3125 -0.125,-0.125 z m 58.95703,0.0195 -0.21875,0.22266 -0.10352,0.10351 -0.33789,0.33399 -0.22266,0.21875 0.43946,0.44531 0.22265,-0.22071 0.33985,-0.33593 0.10547,-0.10547 0.21875,-0.22266 z m -57.17188,1.70117 -0.41797,0.46289 0.23242,0.20899 0.12891,0.11718 0.3418,0.29883 0.23437,0.20703 0.41211,-0.4707 -0.23437,-0.20508 -0.33985,-0.29883 -0.12695,-0.11328 z m 55.38672,0.0195 -0.23242,0.20703 -0.10547,0.0937 -0.36133,0.31836 -0.23437,0.20508 0.41211,0.46875 0.23437,-0.20508 0.36328,-0.31836 0.10742,-0.0976 0.23243,-0.20899 z m -53.50391,1.58985 -0.38867,0.49023 0.24414,0.19336 0.13282,0.10547 0.36328,0.28125 0.24609,0.1914 0.38281,-0.49218 -0.24609,-0.19141 -0.36133,-0.28125 -0.12891,-0.10156 z m 51.61719,0.0195 -0.24414,0.19336 -0.10547,0.084 -0.38281,0.29883 -0.24609,0.19141 0.38281,0.49218 0.24609,-0.1914 0.38672,-0.29883 0.10742,-0.0859 0.2461,-0.19531 z m -49.64062,1.47656 -0.35743,0.51172 0.25391,0.17969 0.13672,0.0957 0.38086,0.25976 0.25781,0.17579 0.35352,-0.51368 -0.25782,-0.17773 -0.3789,-0.25781 -0.13281,-0.0937 z m 47.66406,0.0176 -0.25586,0.17969 -0.10938,0.0762 -0.40234,0.27539 -0.25781,0.17578 0.35351,0.51562 0.25782,-0.17578 0.40429,-0.27734 0.11328,-0.0801 0.25391,-0.17969 z m -45.59961,1.35742 -0.32813,0.53125 0.26563,0.16406 0.14453,0.0899 0.39258,0.23437 0.26758,0.16016 0.32226,-0.53516 -0.26758,-0.16016 L 296.625,452 l -0.14063,-0.0859 z m 43.53516,0.0156 -0.26563,0.16211 -0.11719,0.0723 -0.41406,0.25 -0.26758,0.16016 0.32032,0.53515 0.26757,-0.16015 0.41797,-0.25 0.1211,-0.0742 0.26562,-0.16407 z m -41.39454,1.23243 -0.29492,0.55078 0.27539,0.14648 0.16016,0.0859 0.39648,0.20508 0.27735,0.14453 0.28711,-0.55469 -0.27539,-0.14258 -0.39453,-0.20507 -0.15625,-0.084 z m 39.25196,0.0137 -0.27539,0.14648 -0.13086,0.0703 -0.41797,0.21875 -0.27734,0.14257 0.2871,0.55469 0.27735,-0.14453 0.42187,-0.21875 0.13477,-0.0723 0.27539,-0.14648 z m -37.03906,1.10156 -0.25977,0.56836 0.2832,0.13086 0.1836,0.084 0.38867,0.17188 0.28515,0.12695 0.25391,-0.57031 -0.28516,-0.12695 -0.38671,-0.17188 -0.17969,-0.082 z m 34.82617,0.0137 -0.28516,0.12891 -0.15234,0.0703 -0.41407,0.1836 -0.28515,0.12695 0.2539,0.57226 0.28516,-0.12695 0.41797,-0.18555 0.15625,-0.0723 0.2832,-0.13086 z m -32.55078,0.96875 -0.22461,0.58203 0.29101,0.11133 0.21875,0.0859 0.36914,0.13672 0.29297,0.10937 0.21875,-0.58398 -0.29297,-0.10938 -0.36718,-0.13671 -0.2129,-0.084 z m 30.27343,0.01 -0.29101,0.11328 -0.1875,0.0723 -0.39258,0.14648 -0.29297,0.10937 0.21875,0.58399 0.29102,-0.10742 0.39843,-0.14844 0.18946,-0.0742 0.29101,-0.11328 z m -27.9414,0.83008 -0.18946,0.5957 0.29883,0.0937 0.26758,0.0859 0.33203,0.10156 0.29883,0.0898 0.18164,-0.59765 -0.29883,-0.0899 -0.32812,-0.0996 -0.26563,-0.084 z m 25.60937,0.01 -0.29687,0.0937 -0.23633,0.0762 -0.35742,0.10743 -0.29883,0.0918 0.18164,0.59766 0.29883,-0.0918 0.36133,-0.10937 0.24023,-0.0762 0.29688,-0.0937 z m -23.23242,0.68946 -0.15039,0.60546 0.30273,0.0762 0.33594,0.084 0.27344,0.0664 0.30469,0.0723 0.14453,-0.60937 -0.30469,-0.0703 -0.27148,-0.0645 -0.33204,-0.084 z m 20.85352,0.008 -0.30274,0.0762 -0.30273,0.0762 -0.29883,0.0703 -0.30469,0.0723 0.14453,0.60742 0.30469,-0.0723 0.30273,-0.0723 0.30665,-0.0762 0.30273,-0.0762 z m -18.4375,0.54687 -0.11329,0.61328 0.30665,0.0566 0.42578,0.0801 0.19336,0.0332 0.30664,0.0527 0.10547,-0.61523 -0.30665,-0.0527 -0.18945,-0.0332 -0.42187,-0.0781 z m 16.02343,0.006 -0.30859,0.0566 -0.39258,0.0723 -0.2168,0.0371 -0.30859,0.0527 0.10547,0.61524 0.30859,-0.0527 0.22071,-0.0371 0.39843,-0.0742 0.30664,-0.0566 z m -13.57422,0.39844 -0.082,0.61914 0.3086,0.041 0.0215,0.002 0.52344,0.0645 0.082,0.008 0.31055,0.0332 0.0684,-0.6211 -0.31055,-0.0332 -0.0781,-0.008 -0.51757,-0.0625 -0.0176,-0.002 z m 11.12891,0.006 -0.31055,0.0371 -0.50781,0.0625 -0.10742,0.0117 -0.31055,0.0332 0.0664,0.62109 0.31055,-0.0332 0.11132,-0.0117 0.51172,-0.0625 0.31055,-0.0371 z m -8.66406,0.25195 -0.0449,0.62305 0.3125,0.0215 0.15625,0.0117 0.4707,0.0254 0.3125,0.0195 0.0352,-0.625 -0.3125,-0.0176 -0.46485,-0.0254 -0.15429,-0.0117 z m 6.19531,0.002 -0.3125,0.0215 -0.12305,0.01 -0.49609,0.0273 -0.31055,0.0176 0.0352,0.62304 0.31055,-0.0176 0.5,-0.0274 0.1289,-0.01 0.31055,-0.0215 z m -3.7207,0.10937 -0.004,0.625 0.3125,0.002 0.32813,0.002 0.30078,-0.002 0.31054,-0.002 -0.004,-0.62305 -0.31055,0.002 h -0.29687 l -0.32422,-0.002 z"
       id="path3-8-2-1" />
    <path
       style="stroke-linecap:square;stroke-miterlimit:3;stroke-dasharray:0.724674, 2.17403"
       d="m 318.43555,357.50977 -0.0137,0.7246 0.36133,0.008 0.72461,0.0137 0.36328,0.006 0.0137,-0.72461 -0.36329,-0.006 -0.72461,-0.0137 z m -1.46289,0.0117 -0.36329,0.006 -0.14062,0.004 -0.58789,0.0176 -0.36133,0.0117 0.0215,0.72461 0.36328,-0.0117 0.58398,-0.0176 0.13477,-0.004 0.36328,-0.006 z m 4.37304,0.084 -0.041,0.72461 0.36133,0.0195 0.0898,0.006 0.62891,0.043 0.36132,0.0254 0.0508,-0.72266 -0.36132,-0.0254 -0.63282,-0.043 -0.0957,-0.006 z m -7.28711,0.0351 -0.36132,0.0254 -0.25782,0.0176 -0.4707,0.0391 -0.35938,0.0312 0.0586,0.7207 0.36133,-0.0293 0.46679,-0.0391 0.25196,-0.0176 0.36132,-0.0254 z m 10.19532,0.19922 -0.0781,0.71875 0.35938,0.0391 0.18164,0.0195 0.53515,0.0645 0.35938,0.0449 0.0859,-0.7207 -0.35938,-0.043 -0.53906,-0.0645 -0.18555,-0.0215 z m -13.10157,0.0625 -0.35937,0.0449 -0.33985,0.041 -0.38281,0.0508 -0.35937,0.0469 0.0957,0.71875 0.35938,-0.0469 0.3789,-0.0508 0.33594,-0.041 0.35937,-0.043 z m 15.99414,0.3125 -0.11523,0.71485 0.35937,0.0566 0.24415,0.0391 0.46484,0.0801 0.35742,0.0625 0.12305,-0.71485 -0.35742,-0.0605 -0.47071,-0.082 -0.24804,-0.0391 z m -18.88086,0.0918 -0.35742,0.0625 -0.39648,0.0684 -0.32227,0.0586 -0.35547,0.0664 0.13086,0.71289 0.35743,-0.0664 0.3164,-0.0586 0.39258,-0.0684 0.35547,-0.0605 z m 21.75,0.42578 -0.14843,0.70899 0.35351,0.0742 0.28321,0.0605 0.41992,0.0937 0.35351,0.0801 0.16016,-0.70703 -0.35547,-0.0801 -0.42383,-0.0957 -0.28711,-0.0605 z m -24.61523,0.1211 -0.35352,0.0801 -0.42773,0.0957 -0.2832,0.0664 -0.35352,0.084 0.16797,0.70508 0.35156,-0.084 0.28125,-0.0664 0.42188,-0.0937 0.35351,-0.0801 z m 27.45703,0.5371 -0.18555,0.70118 0.35157,0.0918 0.29687,0.0801 0.39649,0.10938 0.34961,0.0977 0.19336,-0.69922 -0.34766,-0.0976 -0.40234,-0.10938 -0.30274,-0.0801 z m -30.29297,0.1504 -0.34765,0.0976 -0.43555,0.1211 -0.26758,0.0762 -0.34765,0.10156 0.20312,0.69531 0.34766,-0.10156 0.26172,-0.0762 0.43164,-0.11914 0.34961,-0.0957 z m 33.09766,0.65039 -0.21875,0.68945 0.34375,0.10937 0.29687,0.0937 0.38868,0.12891 0.34375,0.11523 0.22851,-0.6875 -0.34375,-0.11523 -0.39453,-0.13086 -0.29883,-0.0937 z m -35.89258,0.17773 -0.34375,0.11328 -0.42773,0.14258 -0.26368,0.0898 -0.34375,0.11914 0.23829,0.68555 0.34179,-0.11914 0.25977,-0.0898 0.42187,-0.14063 0.34375,-0.11328 z m 38.6543,0.75781 -0.25391,0.67969 0.33985,0.12695 0.27734,0.10352 0.39453,0.15234 0.33789,0.13086 0.26172,-0.67578 -0.33789,-0.13086 -0.39844,-0.1543 -0.28125,-0.10546 z m -41.40625,0.20703 -0.33789,0.13086 -0.40235,0.15625 -0.27734,0.11133 -0.33594,0.13477 0.26953,0.67187 0.33594,-0.13476 0.27344,-0.10938 0.39844,-0.1543 0.33789,-0.13085 z m 44.11719,0.86719 -0.28516,0.66602 0.33203,0.14258 0.24609,0.10546 0.41407,0.1836 0.33007,0.14844 0.29493,-0.66211 -0.33203,-0.14844 -0.41602,-0.18555 -0.25,-0.10742 z m -46.81836,0.23438 -0.33204,0.14648 -0.36523,0.16211 -0.29883,0.13672 -0.32812,0.15234 0.30273,0.65821 0.32813,-0.15039 0.29492,-0.13672 0.36133,-0.16016 0.33203,-0.14648 z m 49.47265,0.9707 -0.31836,0.65234 0.32617,0.15821 0.20508,0.10156 0.43946,0.2207 0.32421,0.16406 0.32618,-0.64843 -0.32422,-0.16211 -0.44141,-0.22266 -0.21094,-0.10351 z m -52.11523,0.26172 -0.32422,0.16211 -0.32031,0.16211 -0.32813,0.16992 -0.32226,0.16797 0.33593,0.64258 0.32032,-0.16602 0.32421,-0.16992 0.31641,-0.1582 L 292,364.31445 Z m 54.70898,1.07422 -0.34961,0.63476 0.31641,0.17578 0.1582,0.0879 0.46875,0.26563 0.31641,0.17773 0.35742,-0.6289 -0.31641,-0.17969 -0.47265,-0.26758 -0.16211,-0.0898 z m -57.28711,0.28711 -0.3164,0.17773 -0.26758,0.15234 -0.36328,0.2129 -0.3125,0.18164 0.36523,0.62695 0.3125,-0.18359 0.35938,-0.20899 0.26367,-0.15039 0.3164,-0.17773 z m 59.8086,1.17578 -0.37891,0.61719 0.30859,0.18945 0.10547,0.0664 0.50391,0.31836 0.30664,0.19336 0.38672,-0.61328 -0.30664,-0.19336 -0.50586,-0.32031 -0.11133,-0.0684 z m -62.31641,0.31054 -0.30664,0.19532 -0.21289,0.13281 -0.40039,0.26172 -0.30469,0.19726 0.39649,0.60743 0.30273,-0.19727 0.39844,-0.25781 0.20703,-0.13281 0.30664,-0.19336 z m 64.76563,1.27344 -0.41016,0.59766 0.29883,0.20508 0.0527,0.0352 0.53711,0.37891 0.29688,0.20703 0.41601,-0.5918 -0.29687,-0.20898 -0.54102,-0.38086 -0.0547,-0.0371 z m -67.19922,0.33594 -0.29493,0.20898 -0.15429,0.10743 -0.43946,0.3164 -0.29296,0.21094 0.42187,0.58789 0.29492,-0.21094 0.43555,-0.31445 0.15039,-0.10547 0.29688,-0.20703 z m 69.57226,1.36523 -0.44531,0.57227 0.28711,0.22266 0.55469,0.43164 0.0137,0.01 0.2832,0.22656 0.45117,-0.5664 -0.2832,-0.22656 -0.0176,-0.0137 -0.55859,-0.43359 z m -71.92187,0.36133 -0.28516,0.22266 -0.0937,0.0723 -0.47851,0.37891 -0.28321,0.22656 0.45117,0.56641 0.28321,-0.22461 0.47461,-0.37695 0.0898,-0.0703 0.28711,-0.22265 z m 74.20117,1.45703 -0.4707,0.55078 0.27539,0.23438 0.48047,0.41211 0.0664,0.0586 0.27149,0.23828 0.47851,-0.54492 -0.27344,-0.23828 -0.0684,-0.0625 -0.48437,-0.41406 z m -76.46289,0.38086 -0.27539,0.23633 -0.0371,0.0312 -0.51172,0.44922 -0.27148,0.23828 0.47656,0.54492 0.27344,-0.23828 0.50781,-0.44726 0.0332,-0.0274 0.27539,-0.23633 z m 78.65234,1.54492 -0.49804,0.52735 0.26367,0.24805 0.4082,0.38476 0.11523,0.11133 0.26172,0.25195 0.50196,-0.52148 -0.25977,-0.25196 -0.11914,-0.11523 -0.41016,-0.38672 z m -80.82812,0.4043 -0.26172,0.25 -0.49024,0.47461 -0.0332,0.0332 -0.25781,0.25391 0.50976,0.51563 0.25782,-0.25391 0.0293,-0.0312 0.48828,-0.4707 0.25977,-0.25 z m 82.91992,1.62695 -0.52149,0.50391 0.25196,0.25977 0.33594,0.34961 0.1621,0.17187 0.24805,0.26367 0.52735,-0.49804 -0.24805,-0.26368 -0.16406,-0.17382 -0.33985,-0.35157 z m -84.99219,0.42383 -0.24805,0.26367 -0.41601,0.44336 -0.082,0.0879 -0.2461,0.26758 0.53321,0.49024 0.24609,-0.26563 0.0781,-0.0859 0.41406,-0.43945 0.24805,-0.26367 z m 86.98242,1.70703 -0.54492,0.47852 0.23828,0.27148 0.27149,0.31055 0.20117,0.23438 0.23437,0.27539 0.55079,-0.47071 -0.23438,-0.27539 -0.20312,-0.23828 -0.2754,-0.3125 z m -88.95117,0.44336 -0.23437,0.27539 -0.34961,0.40821 -0.12305,0.14843 -0.23242,0.27735 0.55664,0.46484 0.23242,-0.27734 0.12109,-0.14649 0.34571,-0.40234 0.23437,-0.27539 z m 90.83399,1.78321 -0.56641,0.45117 0.22461,0.2832 0.21289,0.26758 0.23242,0.29883 0.22266,0.28711 0.57226,-0.44532 -0.22265,-0.28515 -0.23438,-0.30469 -0.21484,-0.26953 z m -92.69532,0.46289 -0.2207,0.28515 -0.28516,0.36719 -0.16015,0.21094 -0.21875,0.28906 0.57812,0.4375 0.21875,-0.28906 0.15625,-0.20703 0.28321,-0.36328 0.2207,-0.28711 z m 94.4668,1.85156 -0.58789,0.42383 0.21289,0.29492 0.16016,0.2207 0.25586,0.36719 0.20898,0.29492 0.5918,-0.41601 -0.20703,-0.29688 -0.25977,-0.36914 -0.16211,-0.22461 z m -96.21484,0.48047 -0.20899,0.29687 -0.22851,0.32618 -0.1875,0.27343 -0.20313,0.29883 0.59766,0.4082 0.20508,-0.29882 0.18359,-0.26954 0.22656,-0.32226 0.20899,-0.29688 z m 97.87304,1.91992 -0.60742,0.39453 0.19727,0.30469 0.11328,0.17383 0.27344,0.43359 0.19336,0.30469 0.61328,-0.38672 -0.19532,-0.30664 -0.27539,-0.43555 -0.11523,-0.17969 z m -99.50586,0.49609 -0.19336,0.30664 -0.17968,0.28321 -0.20703,0.33594 -0.18946,0.30859 0.61719,0.37891 0.18945,-0.3086 0.20508,-0.33008 0.17578,-0.28125 0.19532,-0.30468 z m 101.04297,1.98243 -0.62695,0.36328 0.18164,0.31445 0.0781,0.13086 0.27929,0.49414 0.17969,0.31445 0.62891,-0.35742 -0.17774,-0.31445 -0.2832,-0.49805 -0.0781,-0.13476 z m -102.55468,0.51171 -0.17969,0.31446 -0.13672,0.24414 -0.2168,0.39258 -0.17578,0.31836 0.63477,0.34961 0.17578,-0.31836 0.21484,-0.38868 0.13477,-0.24023 0.17968,-0.31445 z m 103.96679,2.03907 -0.64258,0.33398 0.16602,0.32031 0.0469,0.0899 0.2793,0.55273 0.16406,0.32422 0.64649,-0.32617 -0.16406,-0.32422 -0.2793,-0.55664 -0.0488,-0.0937 z m -105.35351,0.52539 -0.16407,0.32422 -0.10351,0.20507 -0.21875,0.44727 -0.16016,0.32617 0.65039,0.31836 0.16016,-0.32617 0.2168,-0.44336 0.10156,-0.20117 0.16406,-0.32422 z m 106.63867,2.09179 -0.6582,0.30274 0.15234,0.32812 0.0234,0.0547 0.26953,0.60352 0.14648,0.33008 0.66211,-0.29297 -0.14648,-0.33203 -0.27149,-0.60743 -0.0254,-0.0586 z m -107.89844,0.53907 -0.14844,0.33008 -0.0781,0.17578 -0.21094,0.49218 -0.14258,0.33399 0.66407,0.28711 0.14453,-0.33399 0.20898,-0.48828 0.0762,-0.17187 0.14844,-0.33203 z m 109.05274,2.13867 -0.67188,0.26953 0.13477,0.33594 0.0117,0.0273 0.24805,0.64453 0.13086,0.33789 0.67578,-0.26172 -0.13086,-0.33789 -0.25,-0.64843 -0.0137,-0.0312 z m -110.17969,0.54883 -0.13086,0.33789 -0.0606,0.15429 -0.19726,0.5293 -0.12696,0.33985 0.67969,0.25195 0.12695,-0.33789 0.19532,-0.52539 0.0586,-0.15039 0.13086,-0.33789 z M 374,397.39258 l -0.68555,0.23633 0.11914,0.34375 0.004,0.01 0.22266,0.67383 0.11328,0.34375 0.6875,-0.22852 -0.11328,-0.34375 -0.22461,-0.67773 -0.006,-0.0137 z m -112.19531,0.56054 -0.11328,0.34375 -0.0469,0.14454 -0.17578,0.55078 -0.10938,0.3457 0.68946,0.21875 0.10937,-0.3457 0.17383,-0.54688 0.0469,-0.13867 0.11328,-0.34375 z m 113.07812,2.21875 -0.69531,0.20313 0.10156,0.34766 0.002,0.008 0.1914,0.68555 0.0957,0.3496 0.69922,-0.19335 -0.0976,-0.34961 -0.19141,-0.68946 -0.004,-0.0137 z m -113.93359,0.57032 -0.0977,0.34961 -0.0391,0.14648 -0.14844,0.55664 -0.0918,0.35156 0.70117,0.1836 0.0918,-0.34961 0.14649,-0.55469 0.0391,-0.14062 0.0957,-0.34961 z m 114.67969,2.25 -0.70508,0.16797 0.084,0.35156 0.004,0.0234 0.1543,0.67968 0.0781,0.35352 0.70703,-0.1582 -0.0781,-0.35352 -0.1543,-0.68555 -0.006,-0.0273 z m -115.39649,0.57617 -0.0801,0.35351 -0.0371,0.16797 -0.11523,0.54493 -0.0742,0.35546 0.70899,0.15039 0.0742,-0.35546 0.11524,-0.54102 0.0371,-0.16406 0.0781,-0.35352 z m 116,2.27734 -0.71289,0.13086 0.0664,0.35742 0.0117,0.0566 0.11132,0.65235 0.0625,0.35742 0.71289,-0.12305 -0.0605,-0.35742 -0.11328,-0.65625 -0.0117,-0.0625 z m -116.57617,0.58203 -0.0605,0.35743 -0.0371,0.20898 -0.0801,0.50977 -0.0566,0.35937 0.71485,0.11328 0.0566,-0.35742 0.0801,-0.50586 0.0351,-0.20508 0.0625,-0.35742 z m 117.03906,2.29688 -0.71875,0.0957 0.0488,0.35938 0.0156,0.11718 0.0723,0.59766 0.043,0.35938 0.71875,-0.0859 -0.043,-0.35938 -0.0723,-0.60351 -0.0156,-0.1211 z m -117.47265,0.58789 -0.043,0.35937 -0.0332,0.2754 -0.0488,0.44921 -0.0391,0.35938 0.72071,0.0781 0.0391,-0.35937 0.0469,-0.44336 0.0332,-0.27148 0.043,-0.36133 z m 117.79296,2.31055 -0.72265,0.0605 0.0312,0.36133 0.0156,0.20313 0.0371,0.51562 0.0254,0.36133 0.72266,-0.0508 -0.0254,-0.36133 -0.0371,-0.52148 -0.0176,-0.20704 z m -118.08398,0.59179 -0.0254,0.36133 -0.0254,0.36914 -0.0215,0.35742 -0.0195,0.36329 0.72266,0.041 0.0215,-0.36133 0.0195,-0.35351 0.0254,-0.36524 0.0254,-0.36133 z m 118.26367,2.32032 -0.72461,0.0234 0.0117,0.36133 0.01,0.32031 0.008,0.40039 0.006,0.36133 0.72461,-0.0137 -0.006,-0.36133 -0.008,-0.40625 -0.01,-0.32422 z m -118.41406,0.59179 -0.008,0.36328 -0.008,0.49414 -0.002,0.23438 -0.002,0.36133 0.72461,0.006 0.002,-0.36328 0.002,-0.22852 0.008,-0.49023 0.008,-0.36329 z m 117.73242,1.25782 -0.002,0.36328 -0.006,0.72461 -0.002,0.36132 0.72461,0.006 0.002,-0.36328 0.006,-0.72461 0.002,-0.36133 z m -117.01758,1.63671 -0.72461,0.0234 0.0117,0.36133 0.0195,0.63281 0.004,0.0957 0.0176,0.36132 0.72265,-0.0312 -0.0156,-0.36132 -0.004,-0.0918 -0.0195,-0.62891 z m 116.96094,1.24805 -0.0156,0.36133 -0.006,0.13086 -0.0352,0.58789 -0.0195,0.36328 0.72266,0.041 0.0215,-0.36329 0.0332,-0.59375 0.006,-0.13281 0.0156,-0.36328 z m -116.83008,1.62891 -0.72265,0.0586 0.0293,0.36133 0.0586,0.72266 0.0312,0.36132 0.7207,-0.0586 -0.0293,-0.36133 -0.0586,-0.72265 z m 116.63867,1.24414 -0.0351,0.36133 -0.0215,0.22851 -0.0527,0.48828 -0.0391,0.35938 0.7207,0.0781 0.0391,-0.36133 0.0527,-0.49023 0.0215,-0.23437 0.0352,-0.36133 z m -116.36328,1.62695 -0.71875,0.0879 0.043,0.35938 0.01,0.0781 0.0859,0.64453 0.0469,0.35938 0.71875,-0.0957 -0.0469,-0.35937 -0.0859,-0.64063 -0.01,-0.0742 z m 116.03125,1.23438 -0.0527,0.35937 -0.0449,0.29883 -0.0645,0.41211 -0.0566,0.35742 0.71485,0.11328 0.0566,-0.35742 0.0664,-0.41602 0.0449,-0.30468 0.0527,-0.35743 z m -115.61914,1.61718 -0.71484,0.12305 0.0625,0.35547 0.0234,0.13672 0.10742,0.58203 0.0664,0.35547 0.7129,-0.13086 -0.0664,-0.35742 -0.10742,-0.57813 -0.0215,-0.13086 z m 115.14649,1.22461 -0.0703,0.35547 -0.0684,0.3418 -0.0762,0.36328 -0.0762,0.35352 0.70899,0.15039 0.0762,-0.35547 0.0762,-0.36719 0.0703,-0.3457 0.0703,-0.35547 z m -114.59375,1.60157 -0.70703,0.1582 0.0781,0.35351 0.0391,0.16797 0.12891,0.54297 0.082,0.35156 0.70508,-0.16796 -0.082,-0.35157 -0.12891,-0.53711 -0.0371,-0.16406 z m 113.98047,1.21289 -0.0879,0.35156 -0.0918,0.36133 -0.0879,0.33593 -0.0918,0.34961 0.70117,0.18555 0.0918,-0.35156 0.0898,-0.33789 0.0918,-0.36719 0.0879,-0.35156 z m -113.28907,1.58398 -0.69922,0.19336 0.0977,0.34766 0.0508,0.18164 0.15039,0.51953 0.10157,0.34765 0.69531,-0.20117 -0.10156,-0.34765 -0.14844,-0.51563 -0.0488,-0.17773 z m 112.53711,1.19531 -0.10547,0.34766 -0.10937,0.36328 -0.10352,0.32422 -0.10937,0.3457 0.68945,0.21875 0.11133,-0.3457 0.10352,-0.32813 0.11132,-0.36718 0.10547,-0.34766 z m -111.70703,1.5625 -0.6875,0.22852 0.11328,0.34375 0.0586,0.17578 0.17773,0.51367 0.11719,0.3418 0.68555,-0.23633 -0.11915,-0.3418 -0.17578,-0.50976 -0.0566,-0.17188 z m 110.81836,1.17774 -0.12109,0.34179 -0.125,0.34766 -0.12305,0.32813 -0.12695,0.33984 0.67968,0.25391 0.12696,-0.33985 0.12304,-0.33398 0.12696,-0.35157 0.12304,-0.33984 z m -109.85351,1.53515 -0.67579,0.26172 0.13086,0.33789 0.0606,0.15625 0.20898,0.52149 0.13477,0.33593 0.67383,-0.26953 -0.13672,-0.33593 -0.20703,-0.51758 -0.0586,-0.15235 z m 108.83007,1.15821 -0.13867,0.33398 -0.13281,0.31836 -0.14844,0.3457 -0.14258,0.33203 0.66602,0.28711 0.14258,-0.33398 0.15039,-0.34766 0.13476,-0.32226 0.13868,-0.33594 z m -107.73047,1.50586 -0.6621,0.29296 0.14648,0.33204 0.0547,0.125 0.24804,0.53906 0.15235,0.32812 0.6582,-0.30273 -0.15234,-0.32813 -0.2461,-0.53515 -0.0527,-0.1211 z m 106.57618,1.13281 -0.15625,0.32617 -0.13282,0.2793 -0.17968,0.37109 -0.16016,0.32422 0.65234,0.31836 0.15821,-0.32422 0.18359,-0.375 0.13281,-0.2832 0.15625,-0.32617 z m -105.34766,1.47265 -0.64648,0.32618 0.16211,0.32226 0.043,0.0859 0.29297,0.5625 0.16797,0.32031 0.64258,-0.33398 -0.16797,-0.32031 -0.29101,-0.5586 -0.0391,-0.082 z m 104.0625,1.10547 -0.17187,0.32032 -0.12305,0.23046 -0.2207,0.4004 -0.17579,0.31835 0.63477,0.34961 0.17578,-0.31836 0.22266,-0.40429 0.125,-0.23438 0.17187,-0.32031 z m -102.70508,1.43555 -0.63086,0.35742 0.17774,0.31446 0.0234,0.0391 0.34375,0.59179 0.1836,0.3125 0.625,-0.36523 -0.18164,-0.3125 -0.34375,-0.58789 -0.0195,-0.0352 z m 101.29492,1.07617 -0.1875,0.31055 -0.10546,0.17773 -0.26954,0.4375 -0.18945,0.3086 0.61719,0.3789 0.18945,-0.30859 0.27149,-0.43945 0.10742,-0.18164 0.1875,-0.31055 z m -99.82226,1.39258 -0.60742,0.39648 0.19726,0.30274 0.37891,0.58398 0.0195,0.0274 0.20117,0.30078 0.60156,-0.40039 -0.19921,-0.30274 -0.0176,-0.0234 -0.37696,-0.58008 z m 98.28906,1.04688 -0.20117,0.30078 -0.082,0.12304 -0.32422,0.47266 -0.20313,0.29883 0.59766,0.41015 0.20508,-0.29882 0.32617,-0.47657 0.084,-0.12695 0.20118,-0.30078 z m -96.6875,1.3496 -0.58789,0.42383 0.21094,0.29297 0.36914,0.51367 0.0586,0.0781 0.21485,0.29101 0.58398,-0.42968 -0.2168,-0.29102 -0.0547,-0.0762 -0.36719,-0.50781 z m 95.03711,1.01172 -0.21484,0.29102 -0.0488,0.0664 -0.38672,0.50976 -0.21875,0.28906 0.57812,0.4375 0.21875,-0.28906 0.38868,-0.51367 0.0508,-0.0684 0.21484,-0.29297 z m -93.32031,1.30274 -0.56836,0.45117 0.22656,0.2832 0.34961,0.43946 0.10547,0.13086 0.22851,0.27929 0.5625,-0.45703 -0.23046,-0.28125 -0.10157,-0.125 -0.34765,-0.4375 z m 91.55469,0.97461 -0.22852,0.28125 -0.006,0.008 -0.45117,0.53906 -0.002,0.002 -0.23438,0.27539 0.54883,0.47265 0.23633,-0.27539 0.004,-0.006 0.45703,-0.54492 0.01,-0.0137 0.22852,-0.2793 z m -89.72852,1.25195 -0.54492,0.47852 0.24023,0.27148 0.32227,0.36914 0.16015,0.17774 0.24219,0.26953 0.53906,-0.48438 -0.24218,-0.26953 -0.15625,-0.17383 -0.32032,-0.36523 z m 87.86133,0.93555 -0.2461,0.26758 -0.43554,0.4746 -0.0527,0.0547 -0.24804,0.26367 0.52734,0.4961 0.24805,-0.26367 0.0547,-0.0566 0.43946,-0.47852 0.24609,-0.26758 z m -85.92578,1.20117 -0.52149,0.50195 0.25,0.26172 0.29102,0.30078 0.21875,0.22071 0.2539,0.25781 0.51563,-0.50977 -0.25391,-0.25781 -0.21679,-0.21875 -0.28711,-0.29688 z m 83.94726,0.89258 -0.25781,0.25586 -0.4082,0.40234 -0.10547,0.10156 -0.26172,0.25196 0.50391,0.52148 0.25976,-0.25195 0.10938,-0.10547 0.41015,-0.4043 0.25781,-0.25586 z m -81.91211,1.14453 -0.49609,0.52734 0.26367,0.25 0.25,0.23438 0.2832,0.26172 0.26758,0.24414 0.49024,-0.53321 -0.26758,-0.24414 -0.2793,-0.25781 -0.24805,-0.23437 z m 79.83203,0.85156 -0.26953,0.24219 -0.37109,0.33203 -0.16602,0.14648 -0.27343,0.23829 0.47851,0.54492 0.27149,-0.23828 0.16992,-0.14844 0.375,-0.33594 0.26953,-0.24219 z m -77.69726,1.08594 -0.47266,0.54883 0.27539,0.23632 0.20703,0.17579 0.35157,0.29492 0.27734,0.23242 0.46484,-0.55664 -0.27734,-0.23242 -0.34961,-0.29102 -0.20117,-0.17383 z m 75.52344,0.80469 -0.28125,0.22851 -0.33008,0.26953 -0.23047,0.18164 -0.2832,0.22657 0.45117,0.5664 0.2832,-0.22461 0.23242,-0.18554 0.33399,-0.27344 0.28125,-0.22852 z m -73.29883,1.02343 -0.44336,0.57227 0.28515,0.22266 0.15821,0.12304 0.42187,0.31836 0.28907,0.21875 0.4375,-0.57617 -0.28907,-0.21875 -0.41797,-0.31641 -0.15429,-0.12109 z m 71.03515,0.75782 -0.29296,0.21484 -0.28711,0.21289 -0.29493,0.21094 -0.29296,0.21289 0.42382,0.58789 0.29297,-0.21289 0.29883,-0.21289 0.29102,-0.2168 0.29101,-0.21484 z m -68.72265,0.96093 -0.41602,0.59375 0.29688,0.20703 0.10937,0.0781 0.49024,0.33594 0.29882,0.20508 0.41016,-0.59961 -0.29883,-0.20313 -0.48828,-0.33398 -0.10547,-0.0742 z m 66.37304,0.70703 -0.30078,0.20118 -0.24414,0.16211 -0.35742,0.23437 -0.30469,0.19727 0.39453,0.60742 0.30469,-0.19727 0.36133,-0.23633 0.24805,-0.16406 0.30078,-0.20117 z m -63.97851,0.89649 -0.38672,0.61133 0.30469,0.19336 0.0605,0.0391 0.56055,0.34375 0.3086,0.19141 0.3789,-0.61719 -0.30859,-0.18946 -0.55469,-0.34375 -0.0566,-0.0351 z m 61.55078,0.6543 -0.31055,0.1875 -0.20117,0.11914 -0.41992,0.24609 -0.3125,0.18164 0.36523,0.62695 0.3125,-0.18359 0.42383,-0.24609 0.20508,-0.12305 0.31055,-0.18555 z m -59.08203,0.82812 -0.35742,0.63086 0.3164,0.17773 0.0137,0.008 0.625,0.34375 0.3164,0.17578 0.34961,-0.63477 -0.31641,-0.17578 -0.62109,-0.3418 -0.01,-0.006 z m 56.58203,0.60352 -0.32031,0.16992 -0.16016,0.0859 -0.47656,0.24804 -0.32227,0.16797 0.33399,0.64258 0.32226,-0.16797 0.48047,-0.25 0.16406,-0.0879 0.32032,-0.16992 z m -54.04687,0.75781 -0.31836,0.65039 0.32421,0.16016 0.61329,0.29882 0.043,0.0195 0.32813,0.15625 0.31055,-0.6543 -0.32813,-0.15625 -0.0391,-0.0176 -0.60742,-0.29883 z m 51.47851,0.54687 -0.32812,0.1543 -0.12305,0.0586 -0.53125,0.24415 -0.32813,0.15039 0.30274,0.66015 0.32812,-0.15234 0.53516,-0.24414 0.12695,-0.0625 0.32813,-0.1543 z m -48.875,0.68555 -0.28516,0.66602 0.33204,0.14257 0.59179,0.25391 0.0781,0.0332 0.33398,0.13868 0.2793,-0.66993 -0.33399,-0.13867 -0.0742,-0.0312 -0.58789,-0.25195 z m 46.24414,0.49024 -0.33398,0.13867 -0.0957,0.041 -0.57226,0.22852 -0.33594,0.13476 0.26953,0.67383 0.33594,-0.13672 0.57617,-0.23047 0.10156,-0.041 0.33399,-0.13867 z m -43.58203,0.61132 -0.25391,0.67774 0.33985,0.12695 0.58008,0.2168 0.10351,0.0371 0.3418,0.12304 0.24414,-0.68164 -0.33984,-0.12304 -0.0996,-0.0352 -0.57618,-0.21484 z m 40.89844,0.4336 -0.3418,0.12304 -0.0762,0.0274 -0.60352,0.20703 -0.34179,0.11914 0.23632,0.68555 0.3418,-0.11914 0.60742,-0.20899 0.082,-0.0293 0.33985,-0.12304 z m -38.18555,0.53515 -0.21875,0.68946 0.34375,0.11132 0.58203,0.1836 0.11328,0.0351 0.34766,0.10547 0.21094,-0.69336 -0.34766,-0.10546 -0.10937,-0.0332 -0.57618,-0.18359 z m 35.45313,0.375 -0.34766,0.10547 -0.0723,0.0215 -0.61914,0.17968 -0.34765,0.10157 0.20312,0.69531 0.34766,-0.0996 0.62305,-0.18164 0.0762,-0.0234 0.34765,-0.10547 z m -32.69532,0.45703 -0.18554,0.70118 0.34961,0.0918 0.5957,0.15821 0.11133,0.0273 0.35156,0.0879 0.17578,-0.70312 -0.35156,-0.0879 -0.10547,-0.0254 -0.5918,-0.15625 z m 29.91993,0.31641 -0.35157,0.0879 -0.084,0.0215 -0.61524,0.14648 -0.35351,0.084 0.16797,0.70508 0.35156,-0.084 0.62109,-0.14844 0.0879,-0.0215 0.35157,-0.0879 z m -27.125,0.37891 -0.1504,0.70898 0.35547,0.0762 0.62696,0.13282 0.0859,0.0156 0.35547,0.0703 0.14063,-0.71093 -0.35547,-0.0703 -0.082,-0.0156 -0.62305,-0.13086 z m 24.3164,0.25586 -0.35547,0.0703 -0.11523,0.0234 -0.59375,0.10937 -0.35547,0.0664 0.13281,0.71094 0.35547,-0.0645 0.59766,-0.11133 0.11914,-0.0234 0.35547,-0.0703 z m -21.49023,0.30078 -0.11328,0.71679 0.35742,0.0566 0.67773,0.10742 0.043,0.006 0.35742,0.0527 0.10547,-0.7168 -0.35937,-0.0527 -0.0371,-0.004 -0.67383,-0.10742 z m 18.65234,0.19531 -0.35742,0.0508 -0.16797,0.0254 -0.54687,0.0723 -0.35938,0.0488 0.0977,0.71875 0.35742,-0.0488 0.55078,-0.0723 0.17187,-0.0254 0.35938,-0.0527 z m -15.79687,0.21875 -0.0879,0.71875 0.35937,0.043 0.0137,0.002 0.71289,0.0762 0.35938,0.0391 0.0781,-0.72071 -0.36133,-0.0391 -0.70507,-0.0762 h -0.01 z m 12.93945,0.13477 -0.36133,0.0351 -0.24609,0.0234 -0.47071,0.0391 -0.36132,0.0293 0.0586,0.72266 0.36133,-0.0293 0.47656,-0.0391 0.25,-0.0254 0.36133,-0.0332 z m -10.07227,0.13867 -0.0508,0.72461 0.36133,0.0234 0.10547,0.008 0.62305,0.0351 0.36132,0.0215 0.041,-0.72461 -0.36133,-0.0195 -0.61719,-0.0352 -0.10156,-0.008 z m 7.19922,0.0762 -0.36133,0.0176 -0.35546,0.0156 -0.36329,0.0117 -0.36328,0.0117 0.0234,0.72266 0.36133,-0.0117 0.36914,-0.01 0.35937,-0.0176 0.36329,-0.0156 z m -4.32226,0.0605 -0.0156,0.72461 0.36328,0.006 0.23047,0.004 0.49805,0.004 0.36328,0.002 0.004,-0.72461 -0.36133,-0.002 -0.49414,-0.004 -0.22657,-0.004 z"
       id="path3-8-2-1-04" />
    <path
       style="stroke-linecap:square;stroke-miterlimit:3;stroke-dasharray:0.724674, 2.89869"
       d="m 318.50195,342.76953 -0.006,0.72461 0.36328,0.002 c 0.23939,0.002 0.47876,0.006 0.71875,0.0117 l 0.36133,0.01 0.0176,-0.72461 -0.36133,-0.01 c -0.24298,-0.006 -0.48675,-0.01 -0.73047,-0.0117 z m -2.18554,0.0156 -0.36329,0.01 -0.33789,0.01 -0.38867,0.0137 -0.36133,0.0117 0.0254,0.72461 0.36133,-0.0117 0.38477,-0.0137 0.33789,-0.01 0.36133,-0.0117 z m 5.82617,0.0957 -0.043,0.72266 0.36133,0.0215 c 0.24059,0.0142 0.48064,0.0295 0.71875,0.0469 l 0.36133,0.0254 0.0527,-0.72266 -0.36133,-0.0254 c -0.24373,-0.0178 -0.48684,-0.0326 -0.72851,-0.0469 z m -9.46289,0.0742 -0.36133,0.0273 c -0.24374,0.0177 -0.48537,0.0377 -0.72656,0.0586 l -0.36133,0.0312 0.0625,0.7207 0.36133,-0.0312 c 0.24011,-0.0208 0.47869,-0.0393 0.71679,-0.0566 l 0.36133,-0.0274 z m 13.09375,0.21289 -0.0801,0.7207 0.35937,0.041 0.35938,0.0391 0.35742,0.043 0.36133,0.041 0.084,-0.71875 -0.35937,-0.043 -0.36133,-0.041 -0.36133,-0.041 z m -16.7168,0.13476 -0.35937,0.043 c -0.24172,0.0296 -0.4836,0.0624 -0.72461,0.0957 l -0.35938,0.0488 0.0996,0.71875 0.35938,-0.0508 c 0.23755,-0.0328 0.47507,-0.0626 0.71289,-0.0918 l 0.35937,-0.0449 z m 20.32813,0.33204 -0.11719,0.71679 0.35742,0.0566 0.43945,0.0723 0.27344,0.0449 0.35742,0.0605 0.1211,-0.71289 -0.35743,-0.0605 -0.27734,-0.0469 -0.43945,-0.0723 z m -23.93165,0.1914 -0.35742,0.0625 c -0.23919,0.0416 -0.47906,0.0835 -0.71875,0.12891 l -0.35547,0.0684 0.13477,0.71093 0.35547,-0.0664 c 0.23499,-0.0445 0.47221,-0.0877 0.70898,-0.12891 l 0.35547,-0.0605 z m 27.51172,0.45508 -0.14648,0.70898 0.35351,0.0742 c 0.23394,0.0485 0.46816,0.10009 0.70313,0.15235 l 0.35547,0.0781 0.15625,-0.70703 -0.35352,-0.0781 c -0.23661,-0.0526 -0.47377,-0.10474 -0.71289,-0.1543 z m -31.08593,0.24609 -0.35157,0.0801 c -0.23627,0.0534 -0.47345,0.10874 -0.71093,0.16602 l -0.35352,0.084 0.16992,0.70508 0.35352,-0.0859 c 0.23216,-0.056 0.46429,-0.10896 0.69922,-0.16211 l 0.35351,-0.0801 z m 34.63281,0.57422 -0.18164,0.70313 0.35156,0.0898 c 0.23146,0.0601 0.46161,0.12365 0.69336,0.1875 l 0.34961,0.0957 0.19336,-0.69921 -0.34961,-0.0957 c -0.23401,-0.0645 -0.46893,-0.12814 -0.70508,-0.18945 z m -38.16602,0.30274 -0.34961,0.0977 c -0.23305,0.0651 -0.46668,0.13217 -0.70117,0.20117 l -0.34765,0.10157 0.20507,0.69531 0.34766,-0.10156 c 0.22897,-0.0674 0.45918,-0.13236 0.69141,-0.19727 l 0.34961,-0.0976 z m 41.66797,0.69336 -0.2168,0.6914 0.34571,0.10938 c 0.22824,0.0715 0.45729,0.14544 0.68554,0.2207 l 0.34375,0.11328 0.22657,-0.68945 -0.34375,-0.11328 c -0.23056,-0.076 -0.46254,-0.14972 -0.69532,-0.22266 z m -45.1543,0.35937 -0.34375,0.11524 c -0.22957,0.0766 -0.4587,0.15383 -0.68945,0.23437 l -0.3418,0.11914 0.23829,0.68359 0.34179,-0.11914 c 0.22538,-0.0787 0.45296,-0.15415 0.68164,-0.23046 l 0.34375,-0.11524 z m 48.60352,0.80859 -0.25,0.67969 0.33984,0.125 c 0.22431,0.0827 0.44745,0.16938 0.67188,0.25586 l 0.33789,0.12891 0.26172,-0.67578 -0.33789,-0.13086 c -0.22637,-0.0872 -0.45461,-0.17339 -0.6836,-0.25782 z m -52.03125,0.41407 -0.33789,0.13281 c -0.22581,0.0879 -0.45338,0.17577 -0.67969,0.26758 l -0.33398,0.13672 0.27148,0.67187 0.33594,-0.13672 c 0.22137,-0.0898 0.44357,-0.17827 0.66797,-0.26562 l 0.33789,-0.13086 z m 55.41797,0.92383 -0.28516,0.66601 0.33399,0.14258 c 0.21971,0.0936 0.43984,0.1896 0.66015,0.28711 l 0.33008,0.14648 0.29492,-0.66211 -0.33203,-0.14648 c -0.22146,-0.098 -0.44322,-0.19527 -0.66797,-0.29102 z m -58.7832,0.46875 -0.33008,0.14843 c -0.22166,0.099 -0.44285,0.19804 -0.66406,0.30078 l -0.33008,0.15235 0.30664,0.6582 0.32812,-0.15234 c 0.21695,-0.10076 0.43484,-0.20081 0.6543,-0.29883 l 0.33203,-0.14649 z m 62.10156,1.0332 -0.32031,0.65039 0.32421,0.16016 0.38672,0.18945 0.26172,0.13086 0.32422,0.16211 0.32422,-0.64649 -0.32422,-0.16211 -0.26367,-0.13281 -0.38672,-0.19141 z m -65.39258,0.52344 -0.32227,0.16406 c -0.21703,0.10993 -0.43487,0.22072 -0.65039,0.33398 l -0.32031,0.16797 0.33789,0.64258 0.32031,-0.16992 c 0.21214,-0.11149 0.42472,-0.21976 0.63868,-0.32813 l 0.32422,-0.16406 z m 68.63086,1.14257 -0.35156,0.63282 0.3164,0.17578 0.32227,0.17969 0.30859,0.17382 0.31446,0.17774 0.35546,-0.63086 -0.31445,-0.17774 -0.31055,-0.17382 -0.32421,-0.18164 z m -71.8418,0.57422 -0.31445,0.17969 c -0.21188,0.12067 -0.42163,0.24196 -0.63086,0.36523 l -0.3125,0.1836 0.36719,0.625 0.3125,-0.1836 c 0.20701,-0.12196 0.41511,-0.2429 0.62304,-0.36132 l 0.31446,-0.17969 z m 74.99219,1.25 -0.38281,0.61524 0.30859,0.1914 0.25586,0.15821 0.35742,0.22461 0.30664,0.1914 0.38477,-0.61328 -0.30664,-0.19141 -0.35742,-0.22656 -0.25782,-0.16015 z m -78.11328,0.62305 -0.30664,0.19336 c -0.20616,0.13122 -0.40896,0.2658 -0.61133,0.39844 l -0.30273,0.19726 0.39648,0.60742 0.30273,-0.19921 c 0.20169,-0.1322 0.40407,-0.26439 0.60547,-0.39258 l 0.30469,-0.19336 z m 81.16992,1.35156 -0.41016,0.59766 0.29883,0.20508 c 0.19837,0.13623 0.39473,0.274 0.58985,0.41211 l 0.29687,0.20898 0.41797,-0.5918 -0.29492,-0.20898 c -0.19922,-0.14101 -0.39974,-0.28071 -0.59961,-0.41797 z m -84.19922,0.67188 -0.29492,0.21093 -0.31055,0.22266 -0.27929,0.20117 -0.29297,0.21289 0.42578,0.58789 0.29297,-0.21289 0.27734,-0.20117 0.3086,-0.2207 0.29492,-0.21094 z m 87.15625,1.45312 -0.43945,0.57617 0.28906,0.21875 c 0.19094,0.14505 0.38158,0.29161 0.57031,0.43946 l 0.28516,0.22461 0.44727,-0.57032 -0.28516,-0.22461 c -0.19159,-0.15007 -0.38436,-0.29811 -0.57813,-0.44531 z m -90.07812,0.7168 -0.28516,0.22461 -0.23242,0.18555 -0.33594,0.26757 -0.2832,0.22657 0.45312,0.5664 0.28321,-0.22656 0.33398,-0.26758 0.23047,-0.18359 0.28516,-0.22461 z m 92.92773,1.54883 -0.4668,0.55468 0.27735,0.23243 c 0.18312,0.15366 0.36668,0.30952 0.54883,0.46679 l 0.27343,0.23828 0.47461,-0.54882 -0.27539,-0.23828 c -0.18351,-0.15846 -0.36772,-0.31578 -0.55468,-0.47266 z m -95.74023,0.76172 -0.27344,0.23828 c -0.18318,0.15916 -0.36702,0.3198 -0.54883,0.48242 l -0.26953,0.24219 0.48438,0.53906 0.26953,-0.24024 c 0.17828,-0.15946 0.35756,-0.31885 0.53906,-0.47656 l 0.27344,-0.23633 z m 98.47851,1.64062 -0.49609,0.5293 0.26562,0.24609 0.29688,0.2793 0.22851,0.2168 0.26368,0.25 0.49804,-0.52735 -0.26367,-0.24805 -0.23047,-0.21875 -0.29883,-0.27929 z m -101.17578,0.80664 -0.26172,0.25 c -0.17599,0.16835 -0.35024,0.33718 -0.52343,0.50781 l -0.25782,0.25586 0.50977,0.51563 0.25781,-0.25391 c 0.17095,-0.16843 0.34251,-0.33635 0.51563,-0.50195 l 0.26171,-0.25 z m 103.78906,1.72656 -0.51953,0.50391 0.25196,0.26172 0.2207,0.22656 0.28125,0.29297 0.25,0.26172 0.52344,-0.50195 -0.25,-0.26172 -0.28321,-0.29492 -0.22265,-0.22852 z m -106.36132,0.84766 -0.25,0.26172 c -0.16811,0.17723 -0.33383,0.35727 -0.49805,0.53516 l -0.24609,0.26562 0.5332,0.49023 0.24609,-0.26562 c 0.16348,-0.17708 0.32587,-0.35211 0.49024,-0.52539 l 0.25,-0.26367 z m 108.84765,1.81055 -0.54297,0.48047 0.24024,0.27148 c 0.15945,0.18028 0.31683,0.35975 0.47265,0.54102 l 0.23633,0.27539 0.55078,-0.47266 -0.23632,-0.27539 c -0.15912,-0.18509 -0.31985,-0.36723 -0.48047,-0.54883 z m -111.29687,0.88672 -0.23438,0.27539 -0.24804,0.29101 -0.22071,0.26367 -0.23437,0.27735 0.55468,0.46679 0.23438,-0.27734 0.2207,-0.26172 0.2461,-0.28906 0.23437,-0.27734 z m 113.65039,1.89062 -0.56446,0.45313 0.22657,0.2832 c 0.15009,0.18696 0.29995,0.37527 0.44726,0.56445 l 0.22266,0.28516 0.57031,-0.44531 -0.22265,-0.28516 c -0.14951,-0.192 -0.30078,-0.3825 -0.45313,-0.57227 z m -115.95899,0.92383 -0.22265,0.28711 -0.17969,0.23242 -0.26172,0.34375 -0.21875,0.28906 0.57617,0.4375 0.21875,-0.28711 0.26172,-0.34179 0.17774,-0.23243 0.22265,-0.2871 z m 118.17578,1.96484 -0.58789,0.42578 0.21289,0.29297 c 0.14044,0.19345 0.27937,0.38922 0.41797,0.58594 l 0.20899,0.29688 0.59375,-0.41797 -0.20899,-0.29688 c -0.13965,-0.19821 -0.28044,-0.39624 -0.42382,-0.59375 z m -120.34375,0.95899 -0.20898,0.29687 c -0.13912,0.19879 -0.27708,0.39774 -0.41406,0.59961 l -0.20313,0.30078 0.59961,0.40625 0.20313,-0.30078 c 0.13428,-0.19789 0.27032,-0.39477 0.4082,-0.5918 l 0.20898,-0.29687 z m 122.41797,2.03515 -0.60937,0.39258 0.19726,0.30469 0.22657,0.35351 0.16406,0.25391 0.19336,0.30664 0.61133,-0.38867 -0.19532,-0.30664 -0.16406,-0.25781 -0.22851,-0.35352 z m -124.4414,0.99024 -0.19336,0.30664 c -0.12981,0.20591 -0.2581,0.41335 -0.38477,0.62109 l -0.18945,0.3086 0.61914,0.37695 0.18945,-0.30859 c 0.12484,-0.20475 0.25108,-0.40856 0.37891,-0.61133 l 0.19336,-0.30664 z m 126.36328,2.10156 -0.62695,0.36328 0.17968,0.31445 0.17578,0.30079 0.18555,0.32617 0.17969,0.31445 0.6289,-0.35937 -0.17968,-0.31446 -0.1875,-0.32812 -0.17383,-0.30274 z m -128.23633,1.02148 -0.17773,0.31446 c -0.1199,0.21251 -0.23738,0.42567 -0.35352,0.63867 l -0.17383,0.31836 0.63672,0.34766 0.17383,-0.31836 c 0.11514,-0.21116 0.23016,-0.42066 0.34766,-0.62891 l 0.17773,-0.31641 z m 130.00195,2.16211 -0.64257,0.33204 0.16601,0.32226 0.13086,0.25391 0.19727,0.38867 0.16406,0.32422 0.64648,-0.32813 -0.16406,-0.32422 -0.19922,-0.39062 -0.13281,-0.25586 z m -131.71875,1.04883 -0.16211,0.32422 c -0.10947,0.21858 -0.21487,0.43664 -0.32031,0.6543 l -0.1582,0.32617 0.65234,0.31641 0.15821,-0.32618 c 0.10517,-0.21712 0.20952,-0.43309 0.3164,-0.64648 l 0.16211,-0.32422 z m 133.32618,2.2168 -0.65821,0.30273 0.15039,0.32813 c 0.10016,0.21898 0.19864,0.43761 0.29492,0.65625 l 0.14649,0.33203 0.66406,-0.29102 -0.14648,-0.33203 c -0.0984,-0.2235 -0.2,-0.44565 -0.30078,-0.66601 z m -134.88477,1.07617 -0.14453,0.33203 -0.16211,0.375 -0.125,0.29297 -0.14063,0.33203 0.66602,0.28516 0.14258,-0.33399 0.12304,-0.29101 0.16211,-0.37305 0.14454,-0.33203 z m 136.33008,2.26563 -0.67383,0.26953 0.13477,0.33593 c 0.0892,0.22321 0.17626,0.44654 0.26171,0.66993 l 0.13086,0.33984 0.67578,-0.25977 -0.1289,-0.33789 c -0.0872,-0.22783 -0.17555,-0.45426 -0.26563,-0.67968 z m -137.72071,1.09765 -0.12695,0.33985 -0.13281,0.35351 -0.12109,0.32813 -0.12696,0.33984 0.67969,0.25 0.12695,-0.33984 0.1211,-0.32618 0.13086,-0.3496 0.1289,-0.33985 z m 138.99805,2.3125 -0.68555,0.23633 0.11719,0.3418 c 0.078,0.22711 0.15417,0.45414 0.22852,0.68164 l 0.11328,0.34375 0.68945,-0.22461 -0.11328,-0.34375 c -0.0757,-0.23172 -0.15348,-0.46162 -0.23242,-0.69141 z m -140.2207,1.11719 -0.10938,0.3457 -0.11132,0.34571 -0.10938,0.34765 -0.10937,0.34571 0.6914,0.21679 0.10938,-0.3457 0.10742,-0.3457 0.11133,-0.34375 0.11132,-0.34375 z m 141.32617,2.35156 -0.69531,0.20117 0.0996,0.34766 c 0.0667,0.23069 0.13234,0.46246 0.19531,0.69336 l 0.0957,0.34961 0.69922,-0.19141 -0.0957,-0.34961 c -0.0641,-0.23519 -0.1298,-0.46969 -0.19727,-0.70312 z m -142.37695,1.13477 -0.0937,0.34961 -0.0937,0.35742 -0.0918,0.3457 -0.0898,0.35156 0.70117,0.18165 0.0898,-0.34961 0.0898,-0.34375 0.0957,-0.35547 0.0937,-0.34961 z m 143.31054,2.38476 -0.70507,0.16602 0.084,0.35351 c 0.0551,0.23396 0.10878,0.46761 0.16016,0.70118 l 0.0781,0.35351 0.70703,-0.15625 -0.0781,-0.35351 c -0.0524,-0.23827 -0.10642,-0.47662 -0.16211,-0.71289 z m -144.1875,1.15039 -0.0762,0.35352 -0.082,0.38867 -0.0684,0.32227 -0.0723,0.35547 0.70898,0.14648 0.0742,-0.35352 0.0664,-0.32031 0.082,-0.38672 0.0762,-0.35547 z m 144.94727,2.41016 -0.71289,0.13086 0.0645,0.35742 c 0.0434,0.237 0.0873,0.47158 0.12696,0.70703 l 0.0586,0.35742 0.71484,-0.11914 -0.0605,-0.35742 c -0.0406,-0.24094 -0.0833,-0.48054 -0.12696,-0.71875 z m -145.64844,1.16211 -0.0586,0.35742 -0.0723,0.44922 -0.041,0.26953 -0.0566,0.35742 0.71679,0.11133 0.0547,-0.35742 0.043,-0.26758 0.0723,-0.44531 0.0566,-0.35742 z m 146.23047,2.43359 -0.71875,0.0937 0.0469,0.35938 0.041,0.31445 0.0488,0.40235 0.0449,0.35937 0.71875,-0.0898 -0.043,-0.35938 -0.0508,-0.4043 -0.041,-0.3164 z m -146.75195,1.16797 -0.041,0.35938 c -0.0287,0.2422 -0.0551,0.48499 -0.0801,0.72656 l -0.0371,0.35937 0.72071,0.0742 0.0371,-0.35937 c 0.0247,-0.23898 0.05,-0.47729 0.0781,-0.71485 l 0.043,-0.36132 z m 147.15625,2.45117 -0.72266,0.0566 0.0293,0.36133 0.0332,0.42383 0.0215,0.29688 0.0254,0.36132 0.72265,-0.0527 -0.0254,-0.36133 -0.0215,-0.29883 -0.0352,-0.42578 z m -147.50196,1.17383 -0.0254,0.36133 c -0.0165,0.24219 -0.03,0.48489 -0.043,0.72852 l -0.0195,0.36132 0.72266,0.0391 0.0195,-0.36328 c 0.0127,-0.23881 0.0286,-0.47699 0.0449,-0.7168 l 0.0234,-0.36133 z m 147.72461,2.45703 -0.72265,0.0274 0.0117,0.36133 c 0.009,0.23931 0.0165,0.47884 0.0215,0.71875 l 0.006,0.36132 0.72461,-0.0137 -0.006,-0.36328 c -0.005,-0.2431 -0.0127,-0.48503 -0.0215,-0.72852 z m -147.89453,1.17969 -0.006,0.36328 -0.006,0.34961 -0.004,0.37695 -0.004,0.36133 0.72656,0.008 0.002,-0.36329 0.004,-0.375 0.006,-0.3457 0.006,-0.36328 z m 147.22657,1.30469 -0.002,0.36328 -0.002,0.47461 -0.002,0.24609 -0.004,0.36328 0.72461,0.006 0.004,-0.36132 0.002,-0.25 0.002,-0.47657 0.002,-0.36328 z m -146.49415,2.31445 -0.7246,0.0195 0.0117,0.36328 c 0.007,0.24396 0.0151,0.48612 0.0254,0.72852 l 0.0156,0.36328 0.72461,-0.0312 -0.0156,-0.36133 c -0.0102,-0.24027 -0.0207,-0.48173 -0.0273,-0.7207 z m 146.42188,1.29297 -0.0176,0.36133 c -0.0111,0.23984 -0.0225,0.47984 -0.0371,0.71875 l -0.0234,0.36133 0.72461,0.0449 0.0215,-0.36328 c 0.0149,-0.24331 0.0279,-0.48576 0.0391,-0.72852 l 0.0176,-0.36133 z m -146.24023,2.30664 -0.72266,0.0566 0.0293,0.36133 c 0.0188,0.24204 0.038,0.4856 0.0605,0.72852 l 0.0332,0.35937 0.72265,-0.0664 -0.0332,-0.36132 c -0.0221,-0.23814 -0.0419,-0.47718 -0.0606,-0.7168 z m 145.99609,1.28906 -0.0352,0.36133 -0.0273,0.28906 -0.0449,0.42774 -0.0391,0.36133 0.72071,0.0762 0.0391,-0.36133 0.0449,-0.42969 0.0274,-0.29297 0.0371,-0.36132 z m -145.63867,2.29883 -0.71875,0.0937 0.0469,0.35938 0.0371,0.29297 0.0586,0.42773 0.0488,0.35742 0.71875,-0.0976 -0.0488,-0.35938 -0.0586,-0.42383 -0.0391,-0.29101 z m 145.21875,1.28125 -0.0527,0.35742 -0.0566,0.38086 -0.0527,0.33399 -0.0547,0.35742 0.71484,0.11328 0.0566,-0.35937 0.0527,-0.33594 0.0566,-0.38281 0.0527,-0.35743 z m -144.6875,2.2832 -0.71289,0.13086 0.0644,0.35547 0.0664,0.36133 0.0664,0.35352 0.0664,0.35547 0.71289,-0.13282 -0.0664,-0.35742 -0.0664,-0.34961 -0.0664,-0.35937 z m 144.09375,1.27149 -0.0723,0.35547 -0.0879,0.43554 -0.0566,0.27344 -0.0742,0.35352 0.71094,0.14844 0.0723,-0.35547 0.0586,-0.27539 0.0879,-0.4375 0.0703,-0.35352 z m -143.38477,2.26367 -0.70703,0.16602 0.084,0.35156 0.0937,0.40039 0.0742,0.30664 0.084,0.35352 0.70508,-0.16993 -0.0859,-0.35351 -0.0723,-0.30469 -0.0937,-0.39648 z m 142.60938,1.25977 -0.0859,0.35156 c -0.0573,0.2318 -0.11669,0.46415 -0.17774,0.69726 l -0.0918,0.35157 0.69922,0.18359 0.0918,-0.35156 c 0.0613,-0.23424 0.12305,-0.46981 0.18164,-0.70703 l 0.0879,-0.35157 z m -141.72852,2.23632 -0.69531,0.19922 0.0996,0.34766 0.11719,0.41211 0.0859,0.28711 0.10157,0.34765 0.69531,-0.20507 -0.10156,-0.34766 -0.084,-0.28516 -0.11719,-0.4082 z m 140.78516,1.24415 -0.10547,0.3457 c -0.0687,0.22875 -0.14036,0.45784 -0.21289,0.6875 l -0.10742,0.3457 0.68945,0.21875 0.10937,-0.3457 c 0.073,-0.23102 0.14654,-0.46332 0.2168,-0.69727 l 0.10352,-0.34765 z m -139.73047,2.20312 -0.68555,0.23438 0.11719,0.34179 0.13672,0.40039 0.10156,0.28711 0.11914,0.3418 0.68359,-0.23828 -0.11914,-0.3418 -0.0996,-0.28516 -0.13671,-0.39843 z m 138.61328,1.22461 -0.12109,0.33984 c -0.0799,0.225 -0.16228,0.4518 -0.2461,0.67774 l -0.12695,0.33984 0.67969,0.25195 0.12695,-0.33984 c 0.0842,-0.227 0.1682,-0.4553 0.25,-0.68555 l 0.12109,-0.34179 z m -137.38867,2.16602 -0.67188,0.26757 0.13282,0.33594 0.14843,0.37109 0.12305,0.30469 0.13477,0.33594 0.67187,-0.27344 -0.13477,-0.33594 -0.12304,-0.30078 -0.14649,-0.36914 z m 136.10742,1.20117 -0.14063,0.33398 -0.16992,0.4082 -0.10937,0.25782 -0.14258,0.33203 0.66602,0.28515 0.14257,-0.33398 0.10938,-0.25781 0.17383,-0.41211 0.13867,-0.33399 z m -134.71484,2.125 -0.66016,0.30078 0.15039,0.32812 0.15039,0.33008 0.15234,0.33203 0.15235,0.32813 0.6582,-0.30469 -0.15234,-0.32812 -0.15235,-0.33008 -0.14843,-0.32617 z m 133.26562,1.17578 -0.15625,0.32617 -0.17187,0.36133 -0.14258,0.28906 -0.15821,0.32617 0.65235,0.31641 0.1582,-0.32422 0.14258,-0.29297 0.17187,-0.36328 0.15625,-0.32617 z m -131.71289,2.07617 -0.64258,0.33398 0.16602,0.32032 0.14062,0.27539 0.19532,0.37109 0.16796,0.32031 0.64063,-0.33593 -0.16797,-0.32227 -0.19336,-0.36719 -0.13867,-0.27343 z m 130.10156,1.14844 -0.17187,0.31836 -0.16406,0.30273 -0.18165,0.33203 -0.17382,0.31836 0.63476,0.34766 0.17383,-0.31836 0.18359,-0.33399 0.16407,-0.30468 0.17187,-0.31836 z m -128.38672,2.02539 -0.6289,0.36133 0.18164,0.31445 c 0.12112,0.20978 0.2441,0.42106 0.36914,0.63086 l 0.18555,0.31055 0.62109,-0.3711 -0.18359,-0.31054 c -0.12231,-0.2052 -0.24284,-0.41249 -0.36329,-0.6211 z m 126.61719,1.11719 -0.1875,0.31054 c -0.1245,0.20673 -0.24923,0.41243 -0.375,0.61524 l -0.18945,0.30664 0.61523,0.38281 0.19141,-0.30859 c 0.12884,-0.20777 0.25417,-0.41593 0.37891,-0.62305 l 0.1875,-0.31055 z m -124.75,1.96679 -0.60937,0.39258 0.19531,0.30469 c 0.13148,0.20442 0.26361,0.40839 0.39844,0.61133 l 0.20117,0.30078 0.60351,-0.40039 -0.19921,-0.30078 c -0.13252,-0.19947 -0.26467,-0.40162 -0.39454,-0.60352 z m 122.82813,1.08399 -0.20118,0.30078 c -0.13366,0.19978 -0.26839,0.39883 -0.40429,0.5957 l -0.20508,0.29883 0.5957,0.41016 0.20508,-0.29688 c 0.13855,-0.20071 0.27518,-0.40372 0.41016,-0.60547 l 0.20117,-0.30078 z m -120.8125,1.90429 -0.58985,0.42188 0.21094,0.29492 c 0.14164,0.1984 0.28373,0.39621 0.42773,0.5918 l 0.21485,0.29101 0.58398,-0.42968 -0.21484,-0.29102 c -0.14243,-0.19345 -0.28281,-0.38919 -0.42188,-0.58398 z m 118.74414,1.04883 -0.2168,0.29102 c -0.14265,0.19248 -0.28593,0.38358 -0.43164,0.57422 l -0.2207,0.28711 0.57617,0.4414 0.21875,-0.28906 c 0.14766,-0.19319 0.29445,-0.38637 0.43945,-0.58203 l 0.2168,-0.29102 z m -116.58399,1.83789 -0.56836,0.44922 0.22461,0.28516 c 0.15157,0.19175 0.30459,0.3806 0.45703,0.56836 l 0.22852,0.28125 0.5625,-0.45703 -0.22852,-0.28125 c -0.15207,-0.1873 -0.30315,-0.37329 -0.45117,-0.56055 z m 114.37305,1.00977 -0.23047,0.28125 c -0.15141,0.18478 -0.30571,0.3685 -0.46094,0.55273 l -0.23242,0.27735 0.55469,0.46679 0.23242,-0.27734 c 0.15606,-0.18522 0.31201,-0.37164 0.4668,-0.56055 l 0.23047,-0.28125 z m -112.07617,1.76758 -0.54297,0.48047 0.23828,0.27148 0.24219,0.27344 0.24023,0.26953 0.24219,0.26953 0.54102,-0.48242 -0.24219,-0.26953 -0.24024,-0.26953 -0.23828,-0.27149 z m 109.73047,0.96875 -0.24414,0.26757 -0.26172,0.28516 -0.22657,0.24609 -0.24609,0.26563 0.53125,0.49219 0.24609,-0.26563 0.22852,-0.24804 0.26367,-0.28711 0.24414,-0.26758 z m -107.29688,1.69336 -0.52148,0.5039 0.25195,0.25977 c 0.16828,0.17371 0.33938,0.34817 0.51172,0.52148 l 0.25391,0.25781 0.51367,-0.51171 -0.25391,-0.25586 c -0.16831,-0.16927 -0.33604,-0.34235 -0.50391,-0.51563 z m 104.81836,0.92578 -0.25781,0.2539 -0.20899,0.20899 -0.30468,0.29883 -0.25782,0.2539 0.50782,0.51758 0.25781,-0.25391 0.30469,-0.30078 0.21289,-0.21093 0.25781,-0.25391 z m -102.25781,1.61328 -0.4961,0.52734 0.26368,0.24805 c 0.17707,0.16633 0.3551,0.33186 0.53515,0.49609 l 0.26758,0.24414 0.48828,-0.53515 -0.26758,-0.24414 c -0.17688,-0.16134 -0.35229,-0.32385 -0.52734,-0.48828 z m 99.65234,0.8789 -0.26758,0.24415 c -0.17816,0.16144 -0.35755,0.32241 -0.53711,0.48046 l -0.27148,0.23829 0.47852,0.54492 0.27148,-0.24024 c 0.18309,-0.16116 0.36509,-0.32337 0.54492,-0.48633 l 0.26758,-0.24414 z m -96.97265,1.53125 -0.46875,0.55274 0.27539,0.23437 c 0.18549,0.15817 0.3715,0.31389 0.55859,0.46875 l 0.2793,0.23243 0.46289,-0.5586 -0.2793,-0.23242 c -0.18506,-0.15319 -0.37061,-0.30564 -0.55273,-0.46094 z m 94.25,0.83399 -0.2793,0.22851 c -0.18502,0.15219 -0.37102,0.30345 -0.55859,0.45313 l -0.28321,0.22656 0.45117,0.56641 0.28321,-0.22656 c 0.19004,-0.15166 0.38026,-0.30428 0.56836,-0.45899 l 0.27929,-0.23047 z m -91.45508,1.44336 -0.44141,0.57422 0.28711,0.2207 c 0.19353,0.14933 0.38673,0.29619 0.58008,0.44141 l 0.28906,0.21679 0.43555,-0.57812 -0.28906,-0.21875 c -0.19294,-0.14491 -0.38526,-0.28779 -0.57422,-0.4336 z m 88.62109,0.7832 -0.29101,0.2168 c -0.19166,0.14259 -0.38679,0.28268 -0.58204,0.42383 l -0.29296,0.21289 0.42382,0.58789 0.29493,-0.21289 c 0.19627,-0.14189 0.39193,-0.2839 0.58789,-0.42969 l 0.29101,-0.2168 z m -85.71875,1.35547 -0.41211,0.5957 0.29883,0.20508 0.30273,0.20899 0.29688,0.20312 0.30078,0.20313 0.40625,-0.59961 -0.29883,-0.20313 -0.29492,-0.20117 -0.30273,-0.20703 z m 82.78125,0.73047 -0.30273,0.20117 -0.33008,0.21875 -0.27344,0.17774 -0.30273,0.19921 0.39648,0.60547 0.30274,-0.19726 0.27539,-0.17969 0.33203,-0.2207 0.30078,-0.19922 z m -79.77734,1.26172 -0.38086,0.61523 0.30859,0.19141 0.24805,0.1543 0.37109,0.22656 0.3086,0.18945 0.37695,-0.61914 -0.30859,-0.18945 -0.36914,-0.22461 -0.2461,-0.1543 z m 76.73633,0.67773 -0.31055,0.18555 -0.27734,0.16406 -0.34571,0.20313 -0.3125,0.18359 0.36719,0.625 0.3125,-0.18359 0.34766,-0.20313 0.27734,-0.16601 0.3125,-0.18555 z m -73.63477,1.16406 -0.35352,0.63282 0.31641,0.17578 c 0.21186,0.11798 0.4257,0.23587 0.64063,0.35156 l 0.31836,0.17188 0.34375,-0.63868 -0.31836,-0.17187 c -0.21048,-0.1133 -0.42064,-0.22863 -0.63086,-0.3457 z m 70.50195,0.62305 -0.31836,0.16992 c -0.21275,0.11339 -0.42451,0.22652 -0.63671,0.33594 l -0.32227,0.16602 0.33203,0.64453 0.32227,-0.16602 c 0.21718,-0.11199 0.43094,-0.22601 0.64453,-0.33984 l 0.32031,-0.17188 z m -67.3164,1.0625 -0.32032,0.65039 0.32422,0.16016 c 0.21789,0.10786 0.43633,0.21552 0.65625,0.32031 l 0.32618,0.15625 0.3125,-0.6543 -0.32618,-0.15625 c -0.2162,-0.10302 -0.43335,-0.20798 -0.64843,-0.31445 z m 64.10156,0.56836 -0.32813,0.1543 c -0.21738,0.1027 -0.43463,0.20375 -0.65234,0.30273 l -0.33008,0.15039 0.30078,0.66016 0.33008,-0.15039 c 0.22209,-0.10097 0.44267,-0.20492 0.66211,-0.3086 l 0.32617,-0.15429 z m -60.83594,0.96094 -0.28906,0.66406 0.33203,0.14453 c 0.2233,0.0972 0.44745,0.19144 0.67188,0.28516 l 0.33398,0.14062 0.2793,-0.66797 -0.33399,-0.14062 c -0.22138,-0.0924 -0.44247,-0.18561 -0.66211,-0.28125 z m 57.54297,0.50781 -0.33398,0.13867 c -0.22175,0.0918 -0.44339,0.18129 -0.66602,0.26953 l -0.33789,0.13477 0.26758,0.67383 0.33594,-0.13477 c 0.22649,-0.0898 0.45309,-0.18045 0.67773,-0.27344 l 0.33398,-0.13867 z m -54.20508,0.85547 -0.25781,0.67773 0.33984,0.12891 c 0.22808,0.0862 0.45707,0.16949 0.68555,0.25195 l 0.33984,0.12305 0.2461,-0.68164 -0.33985,-0.12305 c -0.22594,-0.0816 -0.45194,-0.16344 -0.67578,-0.24804 z m 50.84571,0.44922 -0.3418,0.12109 c -0.22577,0.0807 -0.45277,0.16107 -0.67969,0.23828 l -0.3418,0.11524 0.23243,0.6875 0.34375,-0.11719 c 0.23045,-0.0784 0.46027,-0.15834 0.68945,-0.24023 l 0.33984,-0.12305 z m -47.44532,0.74805 -0.22265,0.68945 0.34375,0.11133 c 0.23217,0.0748 0.46512,0.14771 0.69726,0.21875 l 0.34766,0.10547 0.21094,-0.69336 -0.34571,-0.10547 c -0.22982,-0.0703 -0.45985,-0.14147 -0.6875,-0.21485 z m 44.02344,0.38867 -0.34766,0.10547 c -0.22942,0.0694 -0.45894,0.13529 -0.68945,0.20117 l -0.34765,0.0996 0.19921,0.69726 0.34766,-0.0996 c 0.23401,-0.0669 0.46817,-0.13461 0.70117,-0.20507 l 0.34571,-0.10547 z m -40.56836,0.63867 -0.1875,0.69922 0.34961,0.0937 c 0.23555,0.0632 0.47156,0.12417 0.70703,0.18359 l 0.35156,0.0899 0.17579,-0.70313 -0.34961,-0.0879 c -0.23296,-0.0588 -0.46622,-0.11963 -0.69727,-0.18164 z m 37.0957,0.32617 -0.35156,0.0879 c -0.23273,0.0579 -0.46587,0.11367 -0.69922,0.16797 l -0.35351,0.082 0.16406,0.70703 0.35352,-0.082 c 0.23719,-0.0552 0.4729,-0.11311 0.70898,-0.17187 l 0.35156,-0.0879 z m -33.59375,0.5293 -0.15234,0.70703 0.35352,0.0762 c 0.23814,0.0514 0.47637,0.10079 0.71484,0.14844 l 0.35547,0.0723 0.14258,-0.71093 -0.35547,-0.0723 c -0.23528,-0.047 -0.47098,-0.094 -0.70508,-0.14453 z m 30.07618,0.26367 -0.35547,0.0703 c -0.23574,0.0463 -0.47162,0.0902 -0.70703,0.13281 l -0.35547,0.0645 0.1289,0.71289 0.35547,-0.0645 c 0.24,-0.0434 0.47849,-0.088 0.7168,-0.13477 l 0.35742,-0.0703 z m -26.53516,0.41602 -0.11719,0.71484 0.35742,0.0586 c 0.23987,0.0393 0.47962,0.0775 0.72071,0.11328 l 0.35937,0.0527 0.10547,-0.7168 -0.35937,-0.0527 c -0.2368,-0.0351 -0.47211,-0.0725 -0.70899,-0.11133 z m 22.98438,0.20117 -0.35938,0.0527 c -0.23862,0.0344 -0.4762,0.0668 -0.71289,0.0977 l -0.35938,0.0469 0.0937,0.71875 0.35938,-0.0469 c 0.24238,-0.0316 0.48312,-0.0651 0.72266,-0.0996 l 0.35937,-0.0527 z m -19.41602,0.30468 -0.0801,0.71875 0.35938,0.041 c 0.2405,0.027 0.48135,0.0542 0.72461,0.0781 l 0.36132,0.0351 0.0703,-0.7207 -0.35938,-0.0371 c -0.23754,-0.0233 -0.4772,-0.0493 -0.7168,-0.0762 z m 15.83789,0.13868 -0.35937,0.0332 -0.35157,0.0312 -0.36914,0.0312 -0.36133,0.0312 0.0625,0.72266 0.36133,-0.0312 0.3711,-0.0312 0.35351,-0.0332 0.35938,-0.0332 z m -12.24805,0.18945 -0.0449,0.72461 0.36328,0.0215 0.375,0.0234 0.34961,0.0176 0.36133,0.0195 0.0391,-0.72266 -0.36133,-0.0195 -0.34765,-0.0195 -0.37305,-0.0215 z m 8.65039,0.0742 -0.36132,0.0176 c -0.23854,0.0114 -0.47799,0.0212 -0.71875,0.0293 l -0.36133,0.0117 0.0234,0.72461 0.36132,-0.0137 c 0.24208,-0.008 0.48644,-0.0157 0.73047,-0.0273 l 0.36133,-0.0176 z m -5.04687,0.0781 -0.0117,0.72461 0.36133,0.006 c 0.24392,0.004 0.48771,0.005 0.73047,0.006 l 0.36328,0.002 v -0.7246 l -0.36133,-0.002 c -0.24035,-4.2e-4 -0.48157,-0.002 -0.7207,-0.006 z"
       id="path3-8-2-1-0" />
    <path
       style="stroke-linecap:square;stroke-miterlimit:3;stroke-dasharray:2.82623, 135.659;stroke-dashoffset:106.831"
       d="m 354.46289,336.47266 -1.21094,2.55468 1.27539,0.60547 c 0.83798,0.39789 1.67038,0.80795 2.49219,1.23242 l 1.25391,0.64844 1.29687,-2.51172 -1.2539,-0.64843 c -0.85223,-0.44019 -1.71214,-0.86318 -2.57618,-1.27344 z m -115.26172,40.72656 -0.61523,1.27148 c -0.41658,0.86213 -0.81933,1.73301 -1.20703,2.60938 l -0.57227,1.29101 2.58594,1.14453 0.57031,-1.29296 c 0.37458,-0.84669 0.76482,-1.68715 1.16797,-2.52149 l 0.61523,-1.27344 z m 159.01563,68.68555 -0.50196,1.32031 c -0.33021,0.86528 -0.67576,1.72485 -1.03515,2.57812 l -0.54883,1.30274 2.60547,1.09765 0.54687,-1.30273 c 0.37197,-0.88312 0.72876,-1.77295 1.07032,-2.66797 l 0.5039,-1.32031 z m -116.5586,48.08398 -1.16406,2.57617 1.28906,0.58203 c 0.87224,0.3937 1.75175,0.77391 2.63867,1.13867 l 1.30665,0.53711 1.07421,-2.61328 -1.30664,-0.53711 c -0.8556,-0.35189 -1.70572,-0.72013 -2.55078,-1.10156 z"
       id="path3-8-2-1-0-4" />
    <path
       style="stroke-linecap:square;stroke-miterlimit:3;stroke-dasharray:2.82623, 135.659;stroke-dashoffset:22.3272"
       d="m 357.57617,319.00586 -1.09375,2.60547 1.30274,0.54687 c 0.85583,0.35965 1.70703,0.73302 2.55273,1.11719 l 1.28516,0.58398 1.16992,-2.57421 -1.28711,-0.58399 c -0.86972,-0.39508 -1.74581,-0.77815 -2.62695,-1.14844 z m -121.67969,31.59961 -0.87109,1.11133 c -0.58921,0.75059 -1.17107,1.50871 -1.74023,2.27734 l -0.83985,1.13672 2.27149,1.68164 0.83984,-1.13477 c 0.55209,-0.74557 1.11722,-1.48338 1.69141,-2.21484 l 0.87304,-1.11328 z m 0.58399,128.4668 -2.2207,1.74804 0.87304,1.11133 c 0.59056,0.75041 1.19264,1.49243 1.80469,2.22656 l 0.9043,1.08594 2.16992,-1.81055 -0.9043,-1.08593 c -0.59446,-0.71305 -1.17924,-1.43385 -1.7539,-2.16407 z m 127.80469,29.28125 -1.26954,0.61914 c -0.83585,0.40856 -1.6754,0.80604 -2.51953,1.18945 l -1.28711,0.58594 1.16797,2.57226 1.28711,-0.58398 c 0.87136,-0.39578 1.73492,-0.80577 2.5918,-1.22461 l 1.26953,-0.61914 z"
       id="path3-8-2-1-0-0" />
    <path
       style="stroke-linecap:square;stroke-miterlimit:3;stroke-dasharray:1.59428, 76.5256"
       d="m 337.125,289.01172 -0.24414,1.57617 0.78906,0.12109 c 0.5225,0.0805 1.04249,0.16353 1.56055,0.25196 l 0.78515,0.13476 0.26954,-1.57226 -0.78711,-0.13282 c -0.52964,-0.0904 -1.05798,-0.17649 -1.58594,-0.25781 z m -73.58398,10.58398 -0.72266,0.33985 c -0.48731,0.2286 -0.96861,0.46201 -1.44727,0.69531 l -0.71679,0.34961 0.69922,1.43164 0.71679,-0.34766 c 0.47674,-0.23236 0.95085,-0.46274 1.42578,-0.68554 l 0.72071,-0.33985 z m 143.1621,23.30469 -1.10156,1.15234 0.57617,0.55079 c 0.38205,0.36494 0.7621,0.73023 1.13672,1.0996 l 0.56641,0.56055 1.11914,-1.13476 -0.56641,-0.56055 c -0.38221,-0.37686 -0.76779,-0.74798 -1.15429,-1.11719 z m -200.36718,28.8418 -0.40039,0.6914 c -0.27041,0.46649 -0.53095,0.93205 -0.79102,1.39453 l -0.39062,0.69532 1.38867,0.78125 0.39062,-0.69532 c 0.26087,-0.4639 0.51863,-0.9239 0.78125,-1.37695 l 0.40039,-0.68945 z m 238.12695,38.71484 -1.5625,0.31836 0.1582,0.78125 c 0.10481,0.51543 0.20605,1.03159 0.30274,1.55078 l 0.14453,0.78516 1.56836,-0.29297 -0.14649,-0.7832 c -0.0979,-0.52569 -0.19966,-1.05202 -0.30664,-1.57813 z m 1.0918,25.52344 -0.002,0.79687 -0.002,0.82813 -0.008,0.76172 -0.008,0.79687 1.59375,0.0156 0.008,-0.79688 0.008,-0.76758 0.002,-0.83203 0.004,-0.79687 z m -254.75782,11.10547 -1.58789,0.13281 0.0664,0.79492 c 0.0447,0.53455 0.0949,1.067 0.14844,1.59961 l 0.0801,0.79297 1.58593,-0.1582 -0.0801,-0.79297 c -0.0527,-0.52492 -0.10261,-1.04961 -0.14649,-1.57422 z m 232.32618,61.96679 -0.45508,0.65625 c -0.30049,0.43259 -0.60418,0.86263 -0.91211,1.29102 l -0.4668,0.64648 1.29492,0.93164 0.46485,-0.64843 c 0.31243,-0.43464 0.62186,-0.87217 0.92773,-1.3125 l 0.45508,-0.6543 z m -203.6211,8.86719 -1.2207,1.02539 0.51367,0.60938 c 0.34124,0.4065 0.68321,0.81631 1.03516,1.22461 l 0.52148,0.60547 1.20703,-1.04102 -0.51953,-0.60547 c -0.342,-0.39675 -0.68134,-0.80146 -1.02344,-1.20898 z m 143.44727,38.28906 -0.74805,0.2793 c -0.49384,0.18372 -0.98927,0.36149 -1.48633,0.53711 l -0.75195,0.26563 0.53125,1.5039 0.75195,-0.26562 c 0.50509,-0.17846 1.00941,-0.36001 1.51172,-0.54688 l 0.7461,-0.2793 z m -79.40235,3.45704 -0.42382,1.5371 0.76953,0.21094 c 0.51799,0.14288 1.03564,0.28038 1.55273,0.41406 l 0.77149,0.19922 0.39843,-1.54297 -0.77148,-0.20117 c -0.51192,-0.13234 -1.02074,-0.26651 -1.52734,-0.40625 z"
       id="path3-8-2-1-0-0-8" />
    <path
       style="stroke-linecap:square;stroke-miterlimit:3;stroke-dasharray:2.31896, 111.31;stroke-dashoffset:136.355"
       d="m 367.14453,270.42773 -0.75586,2.19336 1.0957,0.37696 c 0.72638,0.2501 1.44986,0.50425 2.16797,0.76562 l 1.08985,0.39649 0.79297,-2.17969 -1.08985,-0.39649 c -0.7346,-0.26737 -1.46974,-0.52611 -2.20508,-0.77929 z m -107.49219,3.39649 -1.07031,0.44531 c -0.71933,0.29946 -1.43733,0.60556 -2.15234,0.91797 l -1.0625,0.46289 0.92968,2.125 1.0625,-0.46289 c 0.70164,-0.30657 1.40539,-0.60764 2.11329,-0.90234 l 1.07226,-0.44532 z m 193.41602,68.2832 -2.03711,1.10742 0.55469,1.01758 c 0.36714,0.67557 0.72887,1.35203 1.08203,2.0293 l 0.53515,1.02734 2.05665,-1.07226 -0.53516,-1.02735 c -0.36164,-0.69352 -0.73052,-1.3817 -1.10156,-2.06445 z m -274.65234,8.66797 -0.49024,1.05078 c -0.32995,0.70755 -0.65195,1.41758 -0.96875,2.12891 l -0.47266,1.05859 2.11915,0.94336 0.4707,-1.05859 c 0.31216,-0.70091 0.62969,-1.39824 0.95312,-2.0918 l 0.49024,-1.05078 z m -5.70704,110.91406 -2.20898,0.70313 0.35156,1.10547 c 0.23544,0.73996 0.47458,1.48099 0.72461,2.22265 l 0.3711,1.09961 2.19726,-0.74023 -0.37109,-1.09961 c -0.24385,-0.7233 -0.4796,-1.45234 -0.71289,-2.18555 z m 271.9336,39.10742 -0.64844,0.95899 c -0.43092,0.6369 -0.86405,1.2709 -1.30273,1.89648 l -0.66602,0.94922 1.89844,1.33008 0.66601,-0.94922 c 0.44893,-0.6402 0.88883,-1.28226 1.32422,-1.92578 l 0.65039,-0.96094 z m -203.39649,47.20899 -1.15625,2.00976 1.00586,0.57813 c 0.67351,0.38727 1.3505,0.77209 2.03516,1.15039 l 1.01562,0.5625 1.1211,-2.03125 -1.01563,-0.56055 c -0.66849,-0.36936 -1.33527,-0.74751 -2.00195,-1.13086 z m 113.33203,16.31055 -1.12695,0.27148 c -0.74385,0.17923 -1.49134,0.35101 -2.24023,0.51758 l -1.13086,0.25195 0.5039,2.26367 1.13086,-0.25195 c 0.76016,-0.16907 1.52023,-0.34445 2.2793,-0.52734 l 1.12695,-0.27149 z"
       id="path3-8-2-1-0-0-8-4" />
    <path
       style="stroke-linecap:square;stroke-miterlimit:3;stroke-dasharray:7.02934, 337.408"
       d="m 189.08789,288.40625 -2.43164,2.53711 c -1.65399,1.72605 -3.27271,3.48507 -4.85547,5.27539 l -2.32812,2.63281 5.26757,4.65625 2.32813,-2.63281 c 1.52108,-1.72055 3.07581,-3.41092 4.66406,-5.06836 l 2.43164,-2.53711 z m 287.99023,40.34961 -6.21679,3.28125 1.64062,3.10937 c 1.07275,2.03302 2.10607,4.08278 3.09375,6.15235 l 1.51367,3.17187 6.34375,-3.02734 -1.51367,-3.17188 c -1.0307,-2.1597 -2.10651,-4.29469 -3.2207,-6.40625 z m 15.52149,84.29687 v 3.51563 c -2.5e-4,2.2989 -0.0449,4.59656 -0.13477,6.89062 l -0.13672,3.51172 7.02344,0.27539 0.13867,-3.51367 c 0.0936,-2.38857 0.13841,-4.77675 0.13868,-7.16406 v -3.51367 z m -246.16406,162.9668 -2.75391,6.46875 3.23438,1.375 c 2.20023,0.93649 4.41907,1.82778 6.65429,2.67383 l 3.28711,1.24414 2.48828,-6.57422 -3.28711,-1.24414 c -2.14749,-0.81284 -4.27706,-1.66764 -6.38867,-2.56641 z"
       id="path3-8-2-1-0-0-8-8" />
  </g>
</svg>
