<?xml version="1.0" encoding="UTF-8" standalone="no"?>
<svg
   style="isolation:isolate"
   width="583.65192"
   height="614.70282"
   viewBox="0 0 583.65192 614.70282"
   version="1.1"
   id="svg1"
   sodipodi:docname="circletest10.svg"
   inkscape:export-filename="circletest29.svg"
   inkscape:export-xdpi="96"
   inkscape:export-ydpi="96"
   xmlns:inkscape="http://www.inkscape.org/namespaces/inkscape"
   xmlns:sodipodi="http://sodipodi.sourceforge.net/DTD/sodipodi-0.dtd"
   xmlns="http://www.w3.org/2000/svg"
   xmlns:svg="http://www.w3.org/2000/svg">
  <sodipodi:namedview
     id="namedview1"
     pagecolor="#ffffff"
     bordercolor="#000000"
     borderopacity="0.25"
     inkscape:showpageshadow="2"
     inkscape:pageopacity="0.0"
     inkscape:pagecheckerboard="0"
     inkscape:deskcolor="#d1d1d1">
    <inkscape:page
       x="0"
       y="0"
       width="583.65192"
       height="614.70282"
       id="page1"
       margin="0"
       bleed="0" />
  </sodipodi:namedview>
  <defs
     id="defs1">
    <clipPath
       id="_clipPath_ufUKWNh03Q0ow8cg9bS2G9dNbT4C2wP3">
      <rect
         width="636"
         height="833.5"
         id="rect1"
         x="0"
         y="0" />
    </clipPath>
  </defs>
  <g
     clip-path="url(#_clipPath_ufUKWNh03Q0ow8cg9bS2G9dNbT4C2wP3)"
     id="g1"
     transform="matrix(1.3799313,0,0,1.3799313,-171.86883,-272.06477)">
    <g
       id="path3-8-2-1-0-0-8-8-5"
       style="display:inline">
      <path
         style="stroke-linecap:square;stroke-miterlimit:3;stroke-dasharray:3.4555, 82.9322"
         d="m 386.42578,200.1582 -0.22266,0.69141 0.34571,0.10937 0.68945,0.22266 0.3457,0.11133 0.22071,-0.69141 -0.34375,-0.10937 -0.68946,-0.22266 z m 17.05664,6.17774 -0.27539,0.66992 0.33399,0.13867 0.66992,0.27539 0.33593,0.13867 0.2754,-0.66992 -0.33399,-0.13867 -0.66992,-0.27539 z m 16.50586,7.52539 -0.32812,0.64648 0.32421,0.16406 0.64454,0.32813 0.32421,0.16406 0.32813,-0.64648 -0.32422,-0.16406 -0.64453,-0.32813 z m -208.25586,1.68554 -0.32031,0.16993 -0.64063,0.33984 -0.31836,0.16992 0.33985,0.64063 0.32031,-0.17188 0.63867,-0.33984 0.32032,-0.16992 z m 224.10938,7.13477 -0.37891,0.61719 0.30859,0.18945 0.54688,0.33594 0.0703,0.041 0.30664,0.19141 0.38281,-0.61523 -0.30859,-0.19141 -0.0703,-0.043 -0.54883,-0.33594 z m -239.81641,1.94141 -0.30469,0.19336 -0.61133,0.38867 -0.30664,0.19531 0.38868,0.61133 0.30664,-0.19531 0.61132,-0.38868 0.30469,-0.19531 z m 254.91406,8.11132 -0.42383,0.5879 0.29297,0.21289 0.25196,0.18164 0.33203,0.24414 0.29101,0.21484 0.42969,-0.58594 -0.29297,-0.21289 -0.33398,-0.24609 -0.25196,-0.18359 z m -269.84961,2.1836 -0.28906,0.21875 -0.57812,0.43555 -0.29102,0.21875 0.4375,0.57812 0.28906,-0.2168 0.57813,-0.4375 0.28906,-0.21679 z m -14.07031,11.44922 -0.27148,0.24023 -0.26758,0.23633 -0.27539,0.24609 -0.27149,0.24024 0.48243,0.54101 0.27148,-0.24023 0.27344,-0.24609 0.26562,-0.23438 0.27149,-0.24023 z m -13.12305,12.52734 -0.25195,0.26172 -0.5,0.52344 -0.25195,0.25976 0.52344,0.50196 0.25,-0.26172 0.50195,-0.52149 0.25195,-0.26172 z m -12.08789,13.52734 -0.22851,0.2793 -0.46094,0.56055 -0.22852,0.2793 0.56055,0.46093 0.22852,-0.28125 0.46093,-0.56054 0.22852,-0.2793 z m 360.22071,11.44141 -0.58789,0.42578 0.21289,0.29297 0.0859,0.11914 0.33594,0.46875 0.21094,0.29492 0.58789,-0.42187 -0.21094,-0.29492 -0.33594,-0.47071 -0.0879,-0.11914 z m 10.04297,15.10938 -0.6211,0.375 0.1875,0.30859 0.375,0.62109 0.1875,0.31055 0.6211,-0.375 -0.1875,-0.31055 -0.375,-0.61914 z m 8.80664,15.85937 -0.64844,0.32422 0.16211,0.32422 0.32422,0.64844 0.16211,0.32421 0.64843,-0.32421 -0.16211,-0.32422 -0.32421,-0.64844 z m 7.50976,16.51367 -0.67187,0.27149 0.13672,0.33593 0.27148,0.67188 0.13672,0.33594 0.67187,-0.27149 -0.13672,-0.33593 -0.27148,-0.67188 z m 14.29688,52.39063 -0.71875,0.10351 0.0527,0.35938 0.10156,0.7168 0.0508,0.35937 0.71875,-0.10352 -0.0527,-0.35937 -0.10156,-0.7168 z m 1.92187,18.03906 -0.72265,0.0469 0.0234,0.36132 0.0274,0.4043 0.0195,0.31641 0.0215,0.36328 0.72266,-0.0449 -0.0215,-0.36133 -0.0195,-0.32031 -0.0273,-0.4043 z m -0.21094,15.02148 v 0.36133 l -0.004,0.72461 v 0.36328 l 0.72461,0.002 0.002,-0.36133 0.002,-0.72656 v -0.36133 z m -0.68164,18.07227 -0.0293,0.35938 -0.0566,0.72265 -0.0293,0.36133 0.72266,0.0586 0.0293,-0.36132 0.0566,-0.72266 0.0293,-0.36133 z m -2.10547,17.95898 -0.0586,0.35743 -0.11523,0.71484 -0.0586,0.35742 0.71485,0.11719 0.0586,-0.35742 0.11719,-0.7168 0.0566,-0.35742 z m -3.53515,17.73633 -0.084,0.35157 -0.0547,0.2246 -0.11719,0.47657 -0.0879,0.35156 0.70312,0.17383 0.0879,-0.35156 0.11719,-0.47852 0.0547,-0.22656 0.0859,-0.35352 z m -4.94336,17.39258 -0.11328,0.3457 -0.10156,0.31055 -0.125,0.375 -0.11524,0.34375 0.6875,0.22852 0.11524,-0.34375 0.125,-0.375 0.10351,-0.31446 0.11328,-0.34375 z m -404.67774,54.73047 -0.60156,0.40234 0.20117,0.30078 0.4043,0.60157 0.20117,0.30078 0.60157,-0.40235 -0.20118,-0.30078 -0.40429,-0.60156 z m 10.60743,14.64453 -0.56836,0.44922 0.22461,0.28516 0.45117,0.56836 0.22461,0.2832 0.56836,-0.44922 -0.22461,-0.28516 -0.45117,-0.56836 z m 11.73632,13.75781 -0.53125,0.49219 0.2461,0.26563 0.34375,0.37109 0.15039,0.16211 0.24805,0.26562 0.52929,-0.49609 -0.24804,-0.26562 -0.15039,-0.15821 -0.3418,-0.37109 z m 12.78907,12.78711 -0.49219,0.53125 0.26562,0.2461 0.0801,0.0762 0.45508,0.41601 0.26758,0.24414 0.49023,-0.53515 -0.26757,-0.24414 -0.45313,-0.41406 -0.0801,-0.0742 z m 269.83984,28.3711 -0.31055,0.18554 -0.31054,0.1836 -0.31055,0.18359 -0.3125,0.18359 0.36523,0.625 0.3125,-0.18359 0.3125,-0.18359 0.31446,-0.1875 0.31054,-0.18555 z m -225.99219,3.375 -0.35156,0.63476 0.31836,0.17578 0.39063,0.2168 0.24414,0.13477 0.31836,0.17382 0.34765,-0.63671 -0.31836,-0.17383 -0.24219,-0.13282 -0.38867,-0.21679 z m 210.09961,5.25 -0.32617,0.16015 -0.10156,0.0508 -0.54688,0.26563 -0.32617,0.1582 0.31641,0.65235 L 416.875,622 l 0.54883,-0.26563 0.10351,-0.0508 0.32618,-0.16015 z m -193.95312,2.89648 -0.30078,0.66016 0.32812,0.15039 0.21485,0.0957 0.44921,0.20313 0.33008,0.14648 0.29688,-0.66016 -0.33008,-0.14843 -0.44922,-0.20118 -0.21094,-0.0957 z m 177.42383,4.43164 -0.33789,0.13086 -0.67579,0.26367 -0.33789,0.13282 0.26563,0.67382 0.33594,-0.13086 0.67578,-0.26367 0.33789,-0.13281 z m -160.67969,2.39649 -0.24805,0.67968 0.3418,0.125 0.12305,0.0449 0.56054,0.19921 0.3418,0.1211 0.24219,-0.6836 -0.33985,-0.12109 -0.55859,-0.19922 -0.12305,-0.043 z m 143.61328,3.58007 -0.34766,0.10547 -0.69336,0.20899 -0.34765,0.10351 0.20898,0.69336 0.34766,-0.10351 0.69336,-0.20899 0.34765,-0.10351 z m -126.375,1.88086 -0.19141,0.69922 0.34961,0.0957 0.16992,0.0469 0.53125,0.14063 0.34961,0.0937 0.1875,-0.69922 -0.34961,-0.0937 -0.52929,-0.14063 -0.16797,-0.0469 z m 108.88086,2.70703 -0.35352,0.0781 -0.10156,0.0215 -0.60547,0.13086 -0.35351,0.0762 0.15234,0.70898 0.35352,-0.0762 0.60742,-0.13086 0.10351,-0.0234 0.35352,-0.0781 z"
         id="path2" />
      <path
         style="stroke-linecap:square;stroke-miterlimit:3;stroke-dasharray:3.4555, 82.9322"
         d="m 384.88672,197.1582 -0.73047,2.26953 -0.95898,2.98047 2.29492,0.7168 c 0.43559,0.13604 0.88937,0.28724 1.36523,0.43945 l 2.27149,0.72657 1.67187,-5.23829 -2.25,-0.71484 -0.54101,-0.17383 -0.59571,-0.19336 -1.67187,-0.53906 v 0.002 z m 17.29687,6.06641 -0.90625,2.20508 -1.17578,2.86133 2.18555,0.91406 c 0.46236,0.19327 0.91208,0.37676 1.3457,0.55664 l 2.20899,0.91601 2.08984,-5.08007 -1.33984,-0.55664 0.002,-0.004 -1.19531,-0.49024 -0.18555,-0.0762 -2.20508,-0.90625 z m 16.75782,7.43164 -1.08008,2.12695 -1.41016,2.7793 2.13672,1.07422 c 0.41786,0.21038 0.84744,0.43193 1.29297,0.65625 l 2.12305,1.06836 2.48437,-4.89258 -1.29492,-0.6543 -1.1582,-0.58789 -0.16797,-0.084 -0.78321,-0.39844 -1.34179,-0.68359 v 0.002 z m -206.22266,1.66602 -2.10547,1.11914 c -0.42155,0.22399 -0.84995,0.45047 -1.28516,0.68359 l -2.09375,1.12109 2.57618,4.85743 2.11328,-1.13672 c 0.36661,-0.19755 0.73942,-0.39532 1.11719,-0.59571 l 2.10546,-1.11718 -0.33984,-0.64063 0.15039,-0.0801 z m 222.33789,7.08007 -1.24609,2.03125 -1.62305,2.64453 2.02344,1.25 c 0.42635,0.26333 0.8339,0.50916 1.21875,0.75 l 2.02734,1.26758 2.89453,-4.65234 -1.23828,-0.78516 0.008,-0.0117 -1.27343,-0.78125 -2.03125,-1.24609 z m -238.29492,1.92969 -2.01367,1.27734 c -0.40935,0.25962 -0.81784,0.52077 -1.22657,0.78125 l -2.00781,1.2793 2.94727,4.63867 2.01562,-1.28906 c 0.34956,-0.2235 0.71245,-0.45123 1.08594,-0.69141 l 2.00586,-1.28906 -0.38281,-0.5957 0.13086,-0.084 z m 253.63867,8.07422 -1.39453,1.93359 -1.81445,2.51758 1.92578,1.39649 c 0.39152,0.28362 0.77374,0.55927 1.14258,0.83398 l 1.92578,1.43555 3.26562,-4.45508 -1.18945,-0.86524 0.006,-0.008 -1.47266,-1.0625 -1.63672,-1.20508 -0.0117,0.0156 z m -268.85156,2.17187 -1.90039,1.43946 c -0.37983,0.28802 -0.76203,0.5768 -1.14844,0.86719 l -1.91211,1.4375 3.30664,4.37109 1.89649,-1.41016 c 0.36483,-0.27131 0.70535,-0.53301 1.02734,-0.77343 l 1.91016,-1.42774 -0.44336,-0.59375 0.14453,-0.11133 z m -14.3125,11.42383 -1.79102,1.57422 c -0.37469,0.32951 -0.73749,0.65545 -1.09179,0.96875 l -1.79297,1.58594 3.65234,4.09375 1.77734,-1.5625 c 0.34289,-0.30154 0.65508,-0.58699 0.94922,-0.84375 l 1.79688,-1.56836 -0.48242,-0.55273 0.13086,-0.11329 z m -13.39063,12.52149 -1.66015,1.71093 c -0.3592,0.37002 -0.68635,0.71925 -0.9961,1.03516 l -1.6875,1.72266 3.99219,3.82812 1.65039,-1.73633 c 0.28392,-0.29861 0.5768,-0.60198 0.87695,-0.91406 l 1.65235,-1.71875 -0.51563,-0.49609 0.10938,-0.11133 z m -12.3789,13.54492 -1.50586,1.84766 c -0.29484,0.36188 -0.60331,0.73295 -0.91797,1.11914 l -1.5,1.83984 4.2539,3.49805 1.51172,-1.875 c 0.24954,-0.30992 0.52015,-0.63589 0.80274,-0.98243 l 1.50586,-1.84765 -0.56055,-0.45703 0.10547,-0.13086 z m 361.0957,11.46484 -1.93164,1.39844 -2.52734,1.83203 1.41406,1.9336 c 0.27197,0.37185 0.54733,0.75871 0.83203,1.15625 l 1.38867,1.93945 4.46094,-3.20117 -0.84961,-1.1875 0.01,-0.008 -1.21093,-1.67187 -1.04297,-1.46094 -0.01,0.006 z m -3.00977,3.95899 0.84766,1.1875 -0.84961,-1.18555 z m 13.32813,11.20703 -2.04102,1.23242 -2.67187,1.61328 1.24805,2.04492 c 0.24537,0.40237 0.49108,0.81396 0.74414,1.23243 l 1.23437,2.0371 4.70117,-2.83789 -1.41992,-2.35351 -0.10156,-0.16602 -0.39063,-0.64453 z m 9.06445,15.93359 -2.13281,1.06641 -2.78125,1.39062 1.06641,2.13282 c 0.21613,0.43226 0.43226,0.86454 0.64843,1.29687 l 1.06641,2.13281 4.91406,-2.45703 -0.64844,-1.29687 -0.58007,-1.16016 -0.0859,-0.17187 -1.06641,-2.13282 z m 7.75977,16.60938 -2.20899,0.89258 -2.89257,1.16992 0.90625,2.21679 c 0.17709,0.43253 0.35574,0.88168 0.54492,1.34375 l 0.90039,2.19532 5.08789,-2.05664 -1.03711,-2.54688 -0.0703,-0.17578 -0.89453,-2.21094 z m 15,52.79492 -2.35938,0.33984 -3.09179,0.44532 0.35546,2.36914 c 0.0685,0.45838 0.13177,0.93253 0.20118,1.41992 l 0.33789,2.36523 5.44726,-0.78515 -0.21093,-1.43555 -0.0312,-0.2207 -0.28516,-1.97266 -0.23047,-1.63281 h -0.004 z m 2.12695,18.20508 -2.37891,0.15429 -3.0996,0.20118 0.15234,2.37695 c 0.0316,0.49505 0.0651,0.96793 0.0898,1.42187 l 0.13086,2.40039 5.49414,-0.34179 L 547.13281,404 h 0.008 l -0.084,-1.28125 -0.008,-0.14648 -0.004,-0.0527 -0.14453,-2.37891 h -0.01 z m -0.0625,15.16015 -4.76758,0.0215 0.01,2.38476 c 0.002,0.44801 -0.006,0.93102 -0.004,1.44922 l 0.0117,2.36524 5.4668,0.0156 0.0156,-2.375 c 0.003,-0.43142 0.004,-0.86475 0.004,-1.29883 l -0.002,-2.38476 h -0.73438 z m -5.23047,17.89063 -0.19922,2.37695 c -0.0421,0.5002 -0.0766,0.98073 -0.11523,1.44336 l -0.19922,2.38281 5.47461,0.44336 0.19727,-2.36914 c 0.0372,-0.44384 0.0697,-0.87101 0.10351,-1.28125 l 0.19531,-2.37695 -0.71875,-0.0586 0.0137,-0.16016 z m -1.89062,17.79297 -0.39063,2.35156 c -0.082,0.49311 -0.15603,0.97023 -0.23242,1.42969 l -0.39258,2.35742 5.42969,0.88867 0.38281,-2.35547 c 0.0669,-0.41141 0.13977,-0.83715 0.20899,-1.27929 l 0.36718,-2.35547 -0.69531,-0.10938 0.0254,-0.14648 z m -3.34375,17.60937 -0.55078,2.32031 c -0.10794,0.45544 -0.22034,0.91294 -0.33594,1.37305 l -0.58399,2.32031 5.32813,1.31641 0.58203,-2.29687 c 0.11014,-0.43456 0.21232,-0.85856 0.3125,-1.27149 l 0.5625,-2.31836 -0.7168,-0.17383 0.041,-0.16992 z m -4.70117,17.25586 -0.74024,2.26563 c -0.14861,0.4556 -0.29499,0.9069 -0.44531,1.35156 l -0.76758,2.26953 5.21484,1.73438 0.75782,-2.25 c 0.13895,-0.41239 0.27528,-0.82523 0.41015,-1.23633 l 0.74219,-2.26563 -0.69141,-0.22656 0.0527,-0.16406 z m -402.49415,54.42969 -1.98242,1.32422 -2.57812,1.72656 1.31836,1.98047 c 0.27557,0.4137 0.54685,0.81313 0.80664,1.20312 l 1.32422,1.98829 4.56836,-3.05665 -1.52735,-2.28515 -0.11133,-0.16602 -0.51757,-0.77148 z m 10.34375,14.60156 -1.87109,1.47852 -2.43164,1.92187 1.46484,1.86914 c 0.30867,0.39375 0.61438,0.77315 0.90821,1.14453 l 1.47851,1.86914 4.30469,-3.40234 -0.89648,-1.13867 -0.008,-0.01 -0.79492,-1.00976 -0.125,-0.15625 -0.39844,-0.50196 z m 11.47266,13.73828 -1.75,1.6211 -2.28125,2.11328 1.62305,1.74804 c 0.32452,0.34965 0.65467,0.71003 0.99609,1.07422 l 1.63086,1.73828 4.00586,-3.7539 -1.88086,-2.01172 -0.13672,-0.14648 z m 12.53125,12.78711 -1.61914,1.74805 -2.10547,2.27148 1.73242,1.6211 c 0.36879,0.34533 0.73393,0.67785 1.0918,1.0039 l 1.75781,1.60157 3.70899,-4.04883 -2.03125,-1.85352 -0.14063,-0.1289 -0.27344,-0.25 z m 270.78711,28.46875 -2.04492,1.22656 c -0.40231,0.24116 -0.80999,0.48292 -1.22461,0.72657 l -2.05078,1.20508 2.76953,4.73828 2.05859,-1.20703 c 0.36986,-0.21689 0.7483,-0.4378 1.13086,-0.66797 l 2.04297,-1.23047 -0.37109,-0.61524 0.14258,-0.0859 z m -227.74023,3.40625 -1.15625,2.08594 -1.50977,2.72656 2.0957,1.15235 c 0.40808,0.22412 0.83414,0.46506 1.28516,0.70898 l 2.08984,1.12891 2.62696,-4.8125 -2.40821,-1.31641 -0.16406,-0.0898 -0.0644,-0.0352 z m -1.03516,4.88672 1.56836,0.86133 -1.57031,-0.85938 z m 213.14258,0.4082 -2.13672,1.0586 c -0.42019,0.20802 -0.84698,0.41459 -1.28125,0.625 l -2.14649,1.04101 2.40821,4.96485 2.15625,-1.07227 c 0.35201,-0.17505 0.73636,-0.35639 1.14844,-0.56055 l 2.13671,-1.05859 -0.32226,-0.64844 0.1543,-0.0762 z m -196.21289,2.9336 -0.98828,2.16992 -1.28711,2.82617 2.16406,0.99024 c 0.44754,0.20482 0.89776,0.4073 1.34961,0.60742 l 2.16601,0.96094 2.24805,-4.99805 -2.50586,-1.12695 -0.17969,-0.0801 -0.21289,-0.0957 z m 179.9707,4.50586 -2.22461,0.85937 c -0.456,0.17617 -0.91221,0.35391 -1.36719,0.53321 l -2.21679,0.875 2.00976,5.10156 2.21485,-0.86328 c 0.39385,-0.15364 0.79333,-0.30883 1.19921,-0.46875 l 2.21875,-0.87305 -0.25976,-0.6582 0.14453,-0.0566 z m -163.4668,2.42383 -0.81836,2.24023 -1.06054,2.90625 2.22265,0.82422 c 0.48298,0.17939 0.95164,0.34266 1.40039,0.50195 l 2.24805,0.79883 1.83399,-5.17578 -2.58204,-0.91992 -0.18164,-0.0645 -0.77148,-0.27539 z m 146.62305,3.6621 -2.28125,0.69336 c -0.46213,0.1403 -0.9196,0.27981 -1.37305,0.41407 l -2.29687,0.67968 1.58398,5.25391 2.27344,-0.66797 c 0.43074,-0.12674 0.83965,-0.25348 1.23047,-0.36914 l 2.28516,-0.67578 -0.21094,-0.71289 0.17578,-0.0527 z m -146.88281,1.32618 1.7207,0.61328 0.18164,0.0664 -1.90234,-0.67773 z m 17.25,0.59961 -0.62891,2.30078 -0.81836,2.98437 2.28321,0.63867 c 0.49833,0.13969 0.9733,0.26368 1.42187,0.38477 l 2.30469,0.62109 1.42383,-5.30859 -2.6543,-0.71094 -0.19141,-0.0508 -0.10156,-0.0273 z m 112.35937,2.79101 -2.32617,0.51758 c -0.45431,0.1011 -0.9212,0.20086 -1.40039,0.30469 l -2.32617,0.5039 1.15234,5.3711 2.33594,-0.50586 c 0.40775,-0.0884 0.83189,-0.17655 1.27148,-0.27539 l 2.32618,-0.52344 -0.15821,-0.70313 0.16211,-0.0352 z"
         id="path4" />
    </g>
    <path
       style="fill:#000000;fill-opacity:1;stroke:#000000;stroke-width:4.00808;stroke-linecap:square;stroke-miterlimit:3;stroke-dasharray:none;stroke-dashoffset:106.836;stroke-opacity:1"
       d="m 349.23909,348.35606 -1.03357,2.1805 1.08858,0.51678 c 0.71524,0.33961 1.42572,0.68961 2.12716,1.05191 l 1.07025,0.55346 1.10692,-2.14383 -1.07024,-0.55345 c -0.72741,-0.37572 -1.46136,-0.73675 -2.19885,-1.08692 z m -98.37938,34.76136 -0.52512,1.08524 c -0.35556,0.73586 -0.69932,1.47918 -1.03024,2.22719 l -0.48844,1.10191 2.20717,0.9769 0.48678,-1.10359 c 0.31972,-0.72267 0.6528,-1.44003 0.9969,-2.15216 l 0.52512,-1.08692 z m 135.72468,58.6252 -0.42844,1.12693 c -0.28185,0.73854 -0.57678,1.47221 -0.88353,2.2005 l -0.46845,1.11193 2.22385,0.93688 0.46677,-1.11192 c 0.31749,-0.75377 0.62202,-1.51327 0.91355,-2.2772 l 0.43009,-1.12692 z m -99.48631,41.04114 -0.99357,2.19884 1.10026,0.49678 c 0.74448,0.33604 1.49517,0.66056 2.25218,0.97189 l 1.11527,0.45844 0.91687,-2.23051 -1.11526,-0.45844 c -0.73028,-0.30035 -1.45588,-0.61466 -2.17717,-0.94022 z"
       id="path3-8-2-1-0-4" />
    <path
       style="fill:#000000;fill-opacity:1;stroke:#000000;stroke-width:5.49303;stroke-linecap:square;stroke-miterlimit:3;stroke-dasharray:none;stroke-dashoffset:22.3283;stroke-opacity:1"
       d="m 357.57617,319.00586 -1.09375,2.60547 1.30274,0.54687 c 0.85583,0.35965 1.70703,0.73302 2.55273,1.11719 l 1.28516,0.58398 1.16992,-2.57421 -1.28711,-0.58399 c -0.86972,-0.39508 -1.74581,-0.77815 -2.62695,-1.14844 z m -121.67969,31.59961 -0.87109,1.11133 c -0.58921,0.75059 -1.17107,1.50871 -1.74023,2.27734 l -0.83985,1.13672 2.27149,1.68164 0.83984,-1.13477 c 0.55209,-0.74557 1.11722,-1.48338 1.69141,-2.21484 l 0.87304,-1.11328 z m 0.58399,128.4668 -2.2207,1.74804 0.87304,1.11133 c 0.59056,0.75041 1.19264,1.49243 1.80469,2.22656 l 0.9043,1.08594 2.16992,-1.81055 -0.9043,-1.08593 c -0.59446,-0.71305 -1.17924,-1.43385 -1.7539,-2.16407 z m 127.80469,29.28125 -1.26954,0.61914 c -0.83585,0.40856 -1.6754,0.80604 -2.51953,1.18945 l -1.28711,0.58594 1.16797,2.57226 1.28711,-0.58398 c 0.87136,-0.39578 1.73492,-0.80577 2.5918,-1.22461 l 1.26953,-0.61914 z"
       id="path3-8-2-1-0-0" />
    <path
       style="fill:#000000;fill-opacity:1;stroke:#000000;stroke-width:4.11615;stroke-linecap:square;stroke-miterlimit:3;stroke-dasharray:none;stroke-dashoffset:0;stroke-opacity:1"
       d="m 337.125,289.01172 -0.24414,1.57617 0.78906,0.12109 c 0.5225,0.0805 1.04249,0.16353 1.56055,0.25196 l 0.78515,0.13476 0.26954,-1.57226 -0.78711,-0.13282 c -0.52964,-0.0904 -1.05798,-0.17649 -1.58594,-0.25781 z m -73.58398,10.58398 -0.72266,0.33985 c -0.48731,0.2286 -0.96861,0.46201 -1.44727,0.69531 l -0.71679,0.34961 0.69922,1.43164 0.71679,-0.34766 c 0.47674,-0.23236 0.95085,-0.46274 1.42578,-0.68554 l 0.72071,-0.33985 z m 143.1621,23.30469 -1.10156,1.15234 0.57617,0.55079 c 0.38205,0.36494 0.7621,0.73023 1.13672,1.0996 l 0.56641,0.56055 1.11914,-1.13476 -0.56641,-0.56055 c -0.38221,-0.37686 -0.76779,-0.74798 -1.15429,-1.11719 z m -200.36718,28.8418 -0.40039,0.6914 c -0.27041,0.46649 -0.53095,0.93205 -0.79102,1.39453 l -0.39062,0.69532 1.38867,0.78125 0.39062,-0.69532 c 0.26087,-0.4639 0.51863,-0.9239 0.78125,-1.37695 l 0.40039,-0.68945 z m 238.12695,38.71484 -1.5625,0.31836 0.1582,0.78125 c 0.10481,0.51543 0.20605,1.03159 0.30274,1.55078 l 0.14453,0.78516 1.56836,-0.29297 -0.14649,-0.7832 c -0.0979,-0.52569 -0.19966,-1.05202 -0.30664,-1.57813 z m 1.0918,25.52344 -0.002,0.79687 -0.002,0.82813 -0.008,0.76172 -0.008,0.79687 1.59375,0.0156 0.008,-0.79688 0.008,-0.76758 0.002,-0.83203 0.004,-0.79687 z m -254.75782,11.10547 -1.58789,0.13281 0.0664,0.79492 c 0.0447,0.53455 0.0949,1.067 0.14844,1.59961 l 0.0801,0.79297 1.58593,-0.1582 -0.0801,-0.79297 c -0.0527,-0.52492 -0.10261,-1.04961 -0.14649,-1.57422 z m 232.32618,61.96679 -0.45508,0.65625 c -0.30049,0.43259 -0.60418,0.86263 -0.91211,1.29102 l -0.4668,0.64648 1.29492,0.93164 0.46485,-0.64843 c 0.31243,-0.43464 0.62186,-0.87217 0.92773,-1.3125 l 0.45508,-0.6543 z m -203.6211,8.86719 -1.2207,1.02539 0.51367,0.60938 c 0.34124,0.4065 0.68321,0.81631 1.03516,1.22461 l 0.52148,0.60547 1.20703,-1.04102 -0.51953,-0.60547 c -0.342,-0.39675 -0.68134,-0.80146 -1.02344,-1.20898 z m 143.44727,38.28906 -0.74805,0.2793 c -0.49384,0.18372 -0.98927,0.36149 -1.48633,0.53711 l -0.75195,0.26563 0.53125,1.5039 0.75195,-0.26562 c 0.50509,-0.17846 1.00941,-0.36001 1.51172,-0.54688 l 0.7461,-0.2793 z m -79.40235,3.45704 -0.42382,1.5371 0.76953,0.21094 c 0.51799,0.14288 1.03564,0.28038 1.55273,0.41406 l 0.77149,0.19922 0.39843,-1.54297 -0.77148,-0.20117 c -0.51192,-0.13234 -1.02074,-0.26651 -1.52734,-0.40625 z"
       id="path3-8-2-1-0-0-8" />
    <path
       style="fill:#000000;fill-opacity:1;stroke:#000000;stroke-width:7.52211;stroke-linecap:square;stroke-miterlimit:3;stroke-dasharray:none;stroke-dashoffset:1905.11;stroke-opacity:1"
       d="m 367.14453,270.42773 -0.75586,2.19336 1.0957,0.37696 c 0.72638,0.2501 1.44986,0.50425 2.16797,0.76562 l 1.08985,0.39649 0.79297,-2.17969 -1.08985,-0.39649 c -0.7346,-0.26737 -1.46974,-0.52611 -2.20508,-0.77929 z m -107.49219,3.39649 -1.07031,0.44531 c -0.71933,0.29946 -1.43733,0.60556 -2.15234,0.91797 l -1.0625,0.46289 0.92968,2.125 1.0625,-0.46289 c 0.70164,-0.30657 1.40539,-0.60764 2.11329,-0.90234 l 1.07226,-0.44532 z m 193.41602,68.2832 -2.03711,1.10742 0.55469,1.01758 c 0.36714,0.67557 0.72887,1.35203 1.08203,2.0293 l 0.53515,1.02734 2.05665,-1.07226 -0.53516,-1.02735 c -0.36164,-0.69352 -0.73052,-1.3817 -1.10156,-2.06445 z m -274.65234,8.66797 -0.49024,1.05078 c -0.32995,0.70755 -0.65195,1.41758 -0.96875,2.12891 l -0.47266,1.05859 2.11915,0.94336 0.4707,-1.05859 c 0.31216,-0.70091 0.62969,-1.39824 0.95312,-2.0918 l 0.49024,-1.05078 z m -5.70704,110.91406 -2.20898,0.70313 0.35156,1.10547 c 0.23544,0.73996 0.47458,1.48099 0.72461,2.22265 l 0.3711,1.09961 2.19726,-0.74023 -0.37109,-1.09961 c -0.24385,-0.7233 -0.4796,-1.45234 -0.71289,-2.18555 z m 271.9336,39.10742 -0.64844,0.95899 c -0.43092,0.6369 -0.86405,1.2709 -1.30273,1.89648 l -0.66602,0.94922 1.89844,1.33008 0.66601,-0.94922 c 0.44893,-0.6402 0.88883,-1.28226 1.32422,-1.92578 l 0.65039,-0.96094 z m -203.39649,47.20899 -1.15625,2.00976 1.00586,0.57813 c 0.67351,0.38727 1.3505,0.77209 2.03516,1.15039 l 1.01562,0.5625 1.1211,-2.03125 -1.01563,-0.56055 c -0.66849,-0.36936 -1.33527,-0.74751 -2.00195,-1.13086 z m 113.33203,16.31055 -1.12695,0.27148 c -0.74385,0.17923 -1.49134,0.35101 -2.24023,0.51758 l -1.13086,0.25195 0.5039,2.26367 1.13086,-0.25195 c 0.76016,-0.16907 1.52023,-0.34445 2.2793,-0.52734 l 1.12695,-0.27149 z"
       id="path3-8-2-1-0-0-8-4" />
    <path
       style="stroke-linecap:square;stroke-miterlimit:3;stroke-dasharray:7.02934, 337.408"
       d="m 189.08789,288.40625 -2.43164,2.53711 c -1.65399,1.72605 -3.27271,3.48507 -4.85547,5.27539 l -2.32812,2.63281 5.26757,4.65625 2.32813,-2.63281 c 1.52108,-1.72055 3.07581,-3.41092 4.66406,-5.06836 l 2.43164,-2.53711 z m 287.99023,40.34961 -6.21679,3.28125 1.64062,3.10937 c 1.07275,2.03302 2.10607,4.08278 3.09375,6.15235 l 1.51367,3.17187 6.34375,-3.02734 -1.51367,-3.17188 c -1.0307,-2.1597 -2.10651,-4.29469 -3.2207,-6.40625 z m 15.52149,84.29687 v 3.51563 c -2.5e-4,2.2989 -0.0449,4.59656 -0.13477,6.89062 l -0.13672,3.51172 7.02344,0.27539 0.13867,-3.51367 c 0.0936,-2.38857 0.13841,-4.77675 0.13868,-7.16406 v -3.51367 z m -246.16406,162.9668 -2.75391,6.46875 3.23438,1.375 c 2.20023,0.93649 4.41907,1.82778 6.65429,2.67383 l 3.28711,1.24414 2.48828,-6.57422 -3.28711,-1.24414 c -2.14749,-0.81284 -4.27706,-1.66764 -6.38867,-2.56641 z"
       id="path3-8-2-1-0-0-8-8" />
    <path
       id="path5"
       style="stroke:#000000;stroke-width:0.433222;stroke-linecap:square;stroke-miterlimit:3;stroke-dashoffset:147.427"
       d="M 319.50184,416.75 A 1.5018412,1.5018412 0 0 1 318,418.25184 1.5018412,1.5018412 0 0 1 316.49816,416.75 1.5018412,1.5018412 0 0 1 318,415.24816 1.5018412,1.5018412 0 0 1 319.50184,416.75 Z" />
    <path
       id="path5-9"
       style="isolation:isolate;stroke:#000000;stroke-width:0.433222;stroke-linecap:square;stroke-miterlimit:3;stroke-dashoffset:147.427"
       d="m 357.5736,421.6552 a 1.5018412,1.5018412 0 0 1 -1.50184,1.50184 1.5018412,1.5018412 0 0 1 -1.50185,-1.50184 1.5018412,1.5018412 0 0 1 1.50185,-1.50184 1.5018412,1.5018412 0 0 1 1.50184,1.50184 z" />
    <path
       id="path5-9-9"
       style="isolation:isolate;stroke:#000000;stroke-width:0.433222;stroke-linecap:square;stroke-miterlimit:3;stroke-dashoffset:147.427"
       d="m 347.19851,445.47117 a 1.5018412,1.5018412 0 0 1 -1.50184,1.50184 1.5018412,1.5018412 0 0 1 -1.50185,-1.50184 1.5018412,1.5018412 0 0 1 1.50185,-1.50184 1.5018412,1.5018412 0 0 1 1.50184,1.50184 z" />
    <path
       id="path5-9-98"
       style="isolation:isolate;stroke:#000000;stroke-width:0.433222;stroke-linecap:square;stroke-miterlimit:3;stroke-dashoffset:147.427"
       d="m 281.95247,419.81609 a 1.5018412,1.5018412 0 0 1 -1.50184,1.50184 1.5018412,1.5018412 0 0 1 -1.50185,-1.50184 1.5018412,1.5018412 0 0 1 1.50185,-1.50184 1.5018412,1.5018412 0 0 1 1.50184,1.50184 z" />
    <path
       id="path5-9-1"
       style="isolation:isolate;stroke:#000000;stroke-width:0.433222;stroke-linecap:square;stroke-miterlimit:3;stroke-dashoffset:147.427"
       d="m 322.28431,455.41785 a 1.5018412,1.5018412 0 0 1 -1.50184,1.50185 1.5018412,1.5018412 0 0 1 -1.50185,-1.50185 1.5018412,1.5018412 0 0 1 1.50185,-1.50184 1.5018412,1.5018412 0 0 1 1.50184,1.50184 z" />
    <path
       id="path5-9-03"
       style="isolation:isolate;stroke:#000000;stroke-width:0.433222;stroke-linecap:square;stroke-miterlimit:3;stroke-dashoffset:147.427"
       d="m 293.39562,446.83623 a 1.5018412,1.5018412 0 0 1 -1.50184,1.50184 1.5018412,1.5018412 0 0 1 -1.50185,-1.50184 1.5018412,1.5018412 0 0 1 1.50185,-1.50184 1.5018412,1.5018412 0 0 1 1.50184,1.50184 z" />
    <path
       id="path5-9-8-4"
       style="isolation:isolate;stroke:#000000;stroke-width:0.433222;stroke-linecap:square;stroke-miterlimit:3;stroke-dashoffset:147.427"
       d="m 292.11558,391.12689 a 1.5018412,1.5018412 0 0 1 -1.50184,1.50184 1.5018412,1.5018412 0 0 1 -1.50185,-1.50184 1.5018412,1.5018412 0 0 1 1.50185,-1.50184 1.5018412,1.5018412 0 0 1 1.50184,1.50184 z" />
    <path
       id="path5-9-8-0"
       style="isolation:isolate;stroke:#000000;stroke-width:0.433222;stroke-linecap:square;stroke-miterlimit:3;stroke-dashoffset:147.427"
       d="m 320.95017,380.14232 a 1.5018412,1.5018412 0 0 1 -1.50184,1.50184 1.5018412,1.5018412 0 0 1 -1.50185,-1.50184 1.5018412,1.5018412 0 0 1 1.50185,-1.50184 1.5018412,1.5018412 0 0 1 1.50184,1.50184 z" />
    <path
       id="path5-9-8-17"
       style="isolation:isolate;stroke:#000000;stroke-width:0.433222;stroke-linecap:square;stroke-miterlimit:3;stroke-dashoffset:147.427"
       d="m 350.45605,395.147 a 1.5018412,1.5018412 0 0 1 -1.50184,1.50184 1.5018412,1.5018412 0 0 1 -1.50185,-1.50184 1.5018412,1.5018412 0 0 1 1.50185,-1.50184 1.5018412,1.5018412 0 0 1 1.50184,1.50184 z" />
  </g>
</svg>
