<?xml version="1.0" encoding="UTF-8" standalone="no"?>
<svg
   style="isolation:isolate"
   width="575.80328"
   height="606.6496"
   viewBox="0 0 575.80329 606.6496"
   version="1.1"
   id="svg1"
   sodipodi:docname="circletest10.svg"
   inkscape:export-filename="circletest11.png"
   inkscape:export-xdpi="96"
   inkscape:export-ydpi="96"
   xmlns:inkscape="http://www.inkscape.org/namespaces/inkscape"
   xmlns:sodipodi="http://sodipodi.sourceforge.net/DTD/sodipodi-0.dtd"
   xmlns="http://www.w3.org/2000/svg"
   xmlns:svg="http://www.w3.org/2000/svg">
  <sodipodi:namedview
     id="namedview1"
     pagecolor="#ffffff"
     bordercolor="#000000"
     borderopacity="0.25"
     inkscape:showpageshadow="2"
     inkscape:pageopacity="0.0"
     inkscape:pagecheckerboard="0"
     inkscape:deskcolor="#d1d1d1">
    <inkscape:page
       x="0"
       y="0"
       width="575.80328"
       height="606.6496"
       id="page1"
       margin="0"
       bleed="0" />
  </sodipodi:namedview>
  <defs
     id="defs1">
    <clipPath
       id="_clipPath_ufUKWNh03Q0ow8cg9bS2G9dNbT4C2wP3">
      <rect
         width="636"
         height="833.5"
         id="rect1"
         x="0"
         y="0" />
    </clipPath>
  </defs>
  <g
     clip-path="url(#_clipPath_ufUKWNh03Q0ow8cg9bS2G9dNbT4C2wP3)"
     id="g1"
     transform="matrix(1.3799313,0,0,1.3799313,-176.42637,-276.20456)">
    <path
       style="stroke-linecap:square;stroke-miterlimit:3;stroke-dasharray:0.724674, 17.3922"
       d="m 386.42578,200.1582 -0.22266,0.69141 0.34571,0.10937 0.68945,0.22266 0.3457,0.11133 0.22071,-0.69141 -0.34375,-0.10937 -0.68946,-0.22266 z m 17.05664,6.17774 -0.27539,0.66992 0.33399,0.13867 0.66992,0.27539 0.33593,0.13867 0.2754,-0.66992 -0.33399,-0.13867 -0.66992,-0.27539 z m 16.50586,7.52539 -0.32812,0.64648 0.32421,0.16406 0.64454,0.32813 0.32421,0.16406 0.32813,-0.64648 -0.32422,-0.16406 -0.64453,-0.32813 z m -208.25586,1.68554 -0.32031,0.16993 -0.64063,0.33984 -0.31836,0.16992 0.33985,0.64063 0.32031,-0.17188 0.63867,-0.33984 0.32032,-0.16992 z m 224.10938,7.13477 -0.37891,0.61719 0.30859,0.18945 0.54688,0.33594 0.0703,0.041 0.30664,0.19141 0.38281,-0.61523 -0.30859,-0.19141 -0.0703,-0.043 -0.54883,-0.33594 z m -239.81641,1.94141 -0.30469,0.19336 -0.61133,0.38867 -0.30664,0.19531 0.38868,0.61133 0.30664,-0.19531 0.61132,-0.38868 0.30469,-0.19531 z m 254.91406,8.11132 -0.42383,0.5879 0.29297,0.21289 0.25196,0.18164 0.33203,0.24414 0.29101,0.21484 0.42969,-0.58594 -0.29297,-0.21289 -0.33398,-0.24609 -0.25196,-0.18359 z m -269.84961,2.1836 -0.28906,0.21875 -0.57812,0.43555 -0.29102,0.21875 0.4375,0.57812 0.28906,-0.2168 0.57813,-0.4375 0.28906,-0.21679 z m -14.07031,11.44922 -0.27148,0.24023 -0.26758,0.23633 -0.27539,0.24609 -0.27149,0.24024 0.48243,0.54101 0.27148,-0.24023 0.27344,-0.24609 0.26562,-0.23438 0.27149,-0.24023 z m -13.12305,12.52734 -0.25195,0.26172 -0.5,0.52344 -0.25195,0.25976 0.52344,0.50196 0.25,-0.26172 0.50195,-0.52149 0.25195,-0.26172 z m -12.08789,13.52734 -0.22851,0.2793 -0.46094,0.56055 -0.22852,0.2793 0.56055,0.46093 0.22852,-0.28125 0.46093,-0.56054 0.22852,-0.2793 z m 360.22071,11.44141 -0.58789,0.42578 0.21289,0.29297 0.0859,0.11914 0.33594,0.46875 0.21094,0.29492 0.58789,-0.42187 -0.21094,-0.29492 -0.33594,-0.47071 -0.0879,-0.11914 z m 10.04297,15.10938 -0.6211,0.375 0.1875,0.30859 0.375,0.62109 0.1875,0.31055 0.6211,-0.375 -0.1875,-0.31055 -0.375,-0.61914 z m 8.80664,15.85937 -0.64844,0.32422 0.16211,0.32422 0.32422,0.64844 0.16211,0.32421 0.64843,-0.32421 -0.16211,-0.32422 -0.32421,-0.64844 z m 7.50976,16.51367 -0.67187,0.27149 0.13672,0.33593 0.27148,0.67188 0.13672,0.33594 0.67187,-0.27149 -0.13672,-0.33593 -0.27148,-0.67188 z m 14.29688,52.39063 -0.71875,0.10351 0.0527,0.35938 0.10156,0.7168 0.0508,0.35937 0.71875,-0.10352 -0.0527,-0.35937 -0.10156,-0.7168 z m 1.92187,18.03906 -0.72265,0.0469 0.0234,0.36132 0.0274,0.4043 0.0195,0.31641 0.0215,0.36328 0.72266,-0.0449 -0.0215,-0.36133 -0.0195,-0.32031 -0.0273,-0.4043 z m -0.21094,15.02148 v 0.36133 l -0.004,0.72461 v 0.36328 l 0.72461,0.002 0.002,-0.36133 0.002,-0.72656 v -0.36133 z m -0.68164,18.07227 -0.0293,0.35938 -0.0566,0.72265 -0.0293,0.36133 0.72266,0.0586 0.0293,-0.36132 0.0566,-0.72266 0.0293,-0.36133 z m -2.10547,17.95898 -0.0586,0.35743 -0.11523,0.71484 -0.0586,0.35742 0.71485,0.11719 0.0586,-0.35742 0.11719,-0.7168 0.0566,-0.35742 z m -3.53515,17.73633 -0.084,0.35157 -0.0547,0.2246 -0.11719,0.47657 -0.0879,0.35156 0.70312,0.17383 0.0879,-0.35156 0.11719,-0.47852 0.0547,-0.22656 0.0859,-0.35352 z m -4.94336,17.39258 -0.11328,0.3457 -0.10156,0.31055 -0.125,0.375 -0.11524,0.34375 0.6875,0.22852 0.11524,-0.34375 0.125,-0.375 0.10351,-0.31446 0.11328,-0.34375 z m -404.67774,54.73047 -0.60156,0.40234 0.20117,0.30078 0.4043,0.60157 0.20117,0.30078 0.60157,-0.40235 -0.20118,-0.30078 -0.40429,-0.60156 z m 10.60743,14.64453 -0.56836,0.44922 0.22461,0.28516 0.45117,0.56836 0.22461,0.2832 0.56836,-0.44922 -0.22461,-0.28516 -0.45117,-0.56836 z m 11.73632,13.75781 -0.53125,0.49219 0.2461,0.26563 0.34375,0.37109 0.15039,0.16211 0.24805,0.26562 0.52929,-0.49609 -0.24804,-0.26562 -0.15039,-0.15821 -0.3418,-0.37109 z m 12.78907,12.78711 -0.49219,0.53125 0.26562,0.2461 0.0801,0.0762 0.45508,0.41601 0.26758,0.24414 0.49023,-0.53515 -0.26757,-0.24414 -0.45313,-0.41406 -0.0801,-0.0742 z m 269.83984,28.3711 -0.31055,0.18554 -0.31054,0.1836 -0.31055,0.18359 -0.3125,0.18359 0.36523,0.625 0.3125,-0.18359 0.3125,-0.18359 0.31446,-0.1875 0.31054,-0.18555 z m -225.99219,3.375 -0.35156,0.63476 0.31836,0.17578 0.39063,0.2168 0.24414,0.13477 0.31836,0.17382 0.34765,-0.63671 -0.31836,-0.17383 -0.24219,-0.13282 -0.38867,-0.21679 z m 210.09961,5.25 -0.32617,0.16015 -0.10156,0.0508 -0.54688,0.26563 -0.32617,0.1582 0.31641,0.65235 L 416.875,622 l 0.54883,-0.26563 0.10351,-0.0508 0.32618,-0.16015 z m -193.95312,2.89648 -0.30078,0.66016 0.32812,0.15039 0.21485,0.0957 0.44921,0.20313 0.33008,0.14648 0.29688,-0.66016 -0.33008,-0.14843 -0.44922,-0.20118 -0.21094,-0.0957 z m 177.42383,4.43164 -0.33789,0.13086 -0.67579,0.26367 -0.33789,0.13282 0.26563,0.67382 0.33594,-0.13086 0.67578,-0.26367 0.33789,-0.13281 z m -160.67969,2.39649 -0.24805,0.67968 0.3418,0.125 0.12305,0.0449 0.56054,0.19921 0.3418,0.1211 0.24219,-0.6836 -0.33985,-0.12109 -0.55859,-0.19922 -0.12305,-0.043 z m 143.61328,3.58007 -0.34766,0.10547 -0.69336,0.20899 -0.34765,0.10351 0.20898,0.69336 0.34766,-0.10351 0.69336,-0.20899 0.34765,-0.10351 z m -126.375,1.88086 -0.19141,0.69922 0.34961,0.0957 0.16992,0.0469 0.53125,0.14063 0.34961,0.0937 0.1875,-0.69922 -0.34961,-0.0937 -0.52929,-0.14063 -0.16797,-0.0469 z m 108.88086,2.70703 -0.35352,0.0781 -0.10156,0.0215 -0.60547,0.13086 -0.35351,0.0762 0.15234,0.70898 0.35352,-0.0762 0.60742,-0.13086 0.10351,-0.0234 0.35352,-0.0781 z"
       id="path3-8-2-1-0-0-8-8-5"
       sodipodi:nodetypes="ccccccccccccccccccccccccccccccccccccccccccccccccccccccccccccccccccccccccccccccccccccccccccccccccccccccccccccccccccccccccccccccccccccccccccccccccccccccccccccccccccccccccccccccccccccccccccccccccccccccccccccccccccccccccccccccccccccccccccccccccccccccccccccccccccccccccccccccccccccccccccccccccccccccccccccccccccccccccccccccccccccccccccccccccccccccccccc" />
    <path
       id="path3"
       style="isolation:isolate;fill:none;fill-opacity:1;stroke:#000000;stroke-width:0.724674;stroke-linecap:square;stroke-miterlimit:3;stroke-dasharray:none;paint-order:normal"
       d="m 319.10755,416.75 a 1.107547,1.1075493 0 0 1 -1.10754,1.10755 1.107547,1.1075493 0 0 1 -1.10755,-1.10755 1.107547,1.1075493 0 0 1 1.10755,-1.10755 1.107547,1.1075493 0 0 1 1.10754,1.10755 z" />
    <path
       id="path3-8-7"
       style="isolation:isolate;fill:none;fill-opacity:1;stroke:#000000;stroke-width:0.724674;stroke-linecap:square;stroke-miterlimit:3;stroke-dasharray:none;paint-order:normal"
       d="M 341.93479,416.75 A 23.934791,23.934841 0 0 1 318.00002,440.68484 23.934791,23.934841 0 0 1 294.06521,416.75 23.934791,23.934841 0 0 1 318.00002,392.81516 23.934791,23.934841 0 0 1 341.93479,416.75 Z" />
    <path
       id="path3-8-2-1"
       style="isolation:isolate;fill:none;fill-opacity:1;stroke:#000000;stroke-width:0.624485;stroke-linecap:square;stroke-miterlimit:3;stroke-dasharray:0.624485, 1.87346;stroke-dashoffset:0;paint-order:normal"
       d="M 359.52848,416.74975 A 41.530157,41.530245 0 0 1 317.99836,458.28 41.530157,41.530245 0 0 1 276.46818,416.74975 41.530157,41.530245 0 0 1 317.99836,375.2195 41.530157,41.530245 0 0 1 359.52848,416.74975 Z" />
    <path
       id="path3-8-2-1-04"
       style="isolation:isolate;fill:none;fill-opacity:1;stroke:#000000;stroke-width:0.724674;stroke-linecap:square;stroke-miterlimit:3;stroke-dasharray:0.724674, 2.17403;stroke-dashoffset:0;paint-order:normal"
       d="m 376.87335,416.74972 a 58.875589,58.875714 0 0 1 -58.87554,58.87572 58.875589,58.875714 0 0 1 -58.87562,-58.87572 58.875589,58.875714 0 0 1 58.87562,-58.87572 58.875589,58.875714 0 0 1 58.87554,58.87572 z" />
    <path
       id="path3-8-2-1-0"
       style="isolation:isolate;fill:none;fill-opacity:1;stroke:#000000;stroke-width:0.724674;stroke-linecap:square;stroke-miterlimit:3;stroke-dasharray:0.724674, 2.89869;stroke-dashoffset:0;paint-order:normal"
       d="m 391.62048,416.75038 a 73.621275,73.621431 0 0 1 -73.62121,73.62144 73.621275,73.621431 0 0 1 -73.62132,-73.62144 73.621275,73.621431 0 0 1 73.62132,-73.62144 73.621275,73.621431 0 0 1 73.62121,73.62144 z" />
    <path
       id="path3-8-2-1-0-4"
       style="isolation:isolate;fill:none;fill-opacity:1;stroke:#000000;stroke-width:2.82623;stroke-linecap:square;stroke-miterlimit:3;stroke-dasharray:2.82623, 135.659;stroke-dashoffset:106.831;paint-order:normal"
       d="m 404.72361,416.75045 a 86.724541,86.724725 0 0 1 -86.72447,86.72473 86.724541,86.724725 0 0 1 -86.72459,-86.72473 86.724541,86.724725 0 0 1 86.72459,-86.72474 86.724541,86.724725 0 0 1 86.72447,86.72474 z" />
    <path
       id="path3-8-2-1-0-0"
       style="isolation:isolate;fill:none;fill-opacity:1;stroke:#000000;stroke-width:2.82623;stroke-linecap:square;stroke-miterlimit:3;stroke-dasharray:2.82623, 135.659;stroke-dashoffset:22.3272;paint-order:normal"
       d="M 422.00779,416.75487 A 104.00876,104.00899 0 0 1 317.9991,520.76387 104.00876,104.00899 0 0 1 213.99028,416.75487 104.00876,104.00899 0 0 1 317.9991,312.74586 104.00876,104.00899 0 0 1 422.00779,416.75487 Z" />
    <path
       id="path3-8-2-1-0-0-8"
       style="isolation:isolate;fill:none;fill-opacity:1;stroke:#000000;stroke-width:1.59428;stroke-linecap:square;stroke-miterlimit:3;stroke-dasharray:1.59428, 76.5256;stroke-dashoffset:0;paint-order:normal"
       d="M 446.34989,416.78042 A 128.37983,128.3801 0 0 1 317.97017,545.16055 128.37983,128.3801 0 0 1 189.59026,416.78042 128.37983,128.3801 0 0 1 317.97017,288.40029 128.37983,128.3801 0 0 1 446.34989,416.78042 Z" />
    <path
       id="path3-8-2-1-0-0-8-4"
       style="isolation:isolate;fill:none;fill-opacity:1;stroke:#000000;stroke-width:2.31896;stroke-linecap:square;stroke-miterlimit:3;stroke-dasharray:2.31896, 111.31;stroke-dashoffset:136.355;paint-order:normal"
       d="M 471.12573,416.75096 A 153.16143,153.16175 0 0 1 317.96443,569.91274 153.16143,153.16175 0 0 1 164.80292,416.75096 153.16143,153.16175 0 0 1 317.96443,263.58917 153.16143,153.16175 0 0 1 471.12573,416.75096 Z" />
    <path
       id="path3-8-2-1-0-0-8-8"
       style="isolation:isolate;fill:none;fill-opacity:1;stroke:#000000;stroke-width:7.02934;stroke-linecap:square;stroke-miterlimit:3;stroke-dasharray:7.02934, 337.408;stroke-dashoffset:0;paint-order:normal"
       d="M 496.11405,416.56801 A 178.18385,178.18423 0 0 1 317.93035,594.75228 178.18385,178.18423 0 0 1 139.74639,416.56801 178.18385,178.18423 0 0 1 317.93035,238.38374 178.18385,178.18423 0 0 1 496.11405,416.56801 Z" />
  </g>
</svg>
