<?xml version="1.0" encoding="UTF-8" standalone="no"?>
<svg
   style="isolation:isolate"
   width="612.10187"
   height="620.46942"
   viewBox="0 0 612.10187 620.46942"
   version="1.1"
   id="svg1"
   sodipodi:docname="circletest10.svg"
   inkscape:export-filename="circletest47.svg"
   inkscape:export-xdpi="96"
   inkscape:export-ydpi="96"
   xmlns:inkscape="http://www.inkscape.org/namespaces/inkscape"
   xmlns:sodipodi="http://sodipodi.sourceforge.net/DTD/sodipodi-0.dtd"
   xmlns="http://www.w3.org/2000/svg"
   xmlns:svg="http://www.w3.org/2000/svg">
  <sodipodi:namedview
     id="namedview1"
     pagecolor="#ffffff"
     bordercolor="#000000"
     borderopacity="0.25"
     inkscape:showpageshadow="2"
     inkscape:pageopacity="0.0"
     inkscape:pagecheckerboard="0"
     inkscape:deskcolor="#d1d1d1">
    <inkscape:page
       x="0"
       y="0"
       width="612.10187"
       height="620.46942"
       id="page1"
       margin="0"
       bleed="0" />
  </sodipodi:namedview>
  <defs
     id="defs1">
    <clipPath
       id="_clipPath_ufUKWNh03Q0ow8cg9bS2G9dNbT4C2wP3">
      <rect
         width="636"
         height="833.5"
         id="rect1"
         x="0"
         y="0" />
    </clipPath>
  </defs>
  <g
     clip-path="url(#_clipPath_ufUKWNh03Q0ow8cg9bS2G9dNbT4C2wP3)"
     id="g1"
     transform="matrix(1.3799313,0,0,1.3799313,-143.18121,-265.65145)">
    <path
       id="path5-9-5"
       style="isolation:isolate;fill:#000000;fill-opacity:1;stroke:#000000;stroke-width:0.560149;stroke-linecap:square;stroke-miterlimit:3;stroke-dashoffset:147.427"
       d="m 348.78241,392.43011 a 1.9418574,1.9418574 0 0 1 -1.94186,1.94186 1.9418574,1.9418574 0 0 1 -1.94187,-1.94186 1.9418574,1.9418574 0 0 1 1.94187,-1.94186 1.9418574,1.9418574 0 0 1 1.94186,1.94186 z" />
    <path
       id="path5-9-5-5"
       style="isolation:isolate;fill:#000000;fill-opacity:1;stroke:#000000;stroke-width:0.560149;stroke-linecap:square;stroke-miterlimit:3;stroke-dashoffset:147.427"
       d="m 360.19465,419.06123 a 1.9418574,1.9418574 0 0 1 -1.94186,1.94187 1.9418574,1.9418574 0 0 1 -1.94187,-1.94187 1.9418574,1.9418574 0 0 1 1.94187,-1.94186 1.9418574,1.9418574 0 0 1 1.94186,1.94186 z" />
    <path
       id="path5-9-5-5-9"
       style="isolation:isolate;fill:#000000;fill-opacity:1;stroke:#000000;stroke-width:0.560149;stroke-linecap:square;stroke-miterlimit:3;stroke-dashoffset:147.427"
       d="m 415.85837,398.1123 a 1.9418574,1.9418574 0 0 1 -1.94186,1.94187 1.9418574,1.9418574 0 0 1 -1.94187,-1.94187 1.9418574,1.9418574 0 0 1 1.94187,-1.94187 1.9418574,1.9418574 0 0 1 1.94186,1.94187 z" />
    <path
       id="path5-9-5-5-9-5"
       style="isolation:isolate;fill:#000000;fill-opacity:1;stroke:#000000;stroke-width:0.560149;stroke-linecap:square;stroke-miterlimit:3;stroke-dashoffset:147.427"
       d="m 409.77868,464.0753 a 1.9418574,1.9418574 0 0 1 -1.94186,1.94187 1.9418574,1.9418574 0 0 1 -1.94187,-1.94187 1.9418574,1.9418574 0 0 1 1.94187,-1.94187 1.9418574,1.9418574 0 0 1 1.94186,1.94187 z" />
    <path
       id="path5-9-5-5-9-9"
       style="isolation:isolate;fill:#000000;fill-opacity:1;stroke:#000000;stroke-width:0.560149;stroke-linecap:square;stroke-miterlimit:3;stroke-dashoffset:147.427"
       d="m 410.82063,431.11525 a 1.9418574,1.9418574 0 0 1 -1.94186,1.94187 1.9418574,1.9418574 0 0 1 -1.94187,-1.94187 1.9418574,1.9418574 0 0 1 1.94187,-1.94187 1.9418574,1.9418574 0 0 1 1.94186,1.94187 z" />
    <path
       id="path5-9-5-5-9-3"
       style="isolation:isolate;fill:#000000;fill-opacity:1;stroke:#000000;stroke-width:0.560149;stroke-linecap:square;stroke-miterlimit:3;stroke-dashoffset:147.427"
       d="m 337.61456,349.38583 a 1.9418574,1.9418574 0 0 1 -1.94186,1.94187 1.9418574,1.9418574 0 0 1 -1.94187,-1.94187 1.9418574,1.9418574 0 0 1 1.94187,-1.94187 1.9418574,1.9418574 0 0 1 1.94186,1.94187 z" />
    <path
       id="path5-9-5-5-9-4"
       style="isolation:isolate;fill:#000000;fill-opacity:1;stroke:#000000;stroke-width:0.560149;stroke-linecap:square;stroke-miterlimit:3;stroke-dashoffset:147.427"
       d="m 306.13339,297.99287 a 1.9418574,1.9418574 0 0 1 -1.94186,1.94187 1.9418574,1.9418574 0 0 1 -1.94187,-1.94187 1.9418574,1.9418574 0 0 1 1.94187,-1.94187 1.9418574,1.9418574 0 0 1 1.94186,1.94187 z" />
    <path
       id="path5-9-5-5-9-29"
       style="isolation:isolate;fill:#000000;fill-opacity:1;stroke:#000000;stroke-width:0.560149;stroke-linecap:square;stroke-miterlimit:3;stroke-dashoffset:147.427"
       d="m 289.39007,509.01354 a 1.9418574,1.9418574 0 0 1 -1.94186,1.94187 1.9418574,1.9418574 0 0 1 -1.94187,-1.94187 1.9418574,1.9418574 0 0 1 1.94187,-1.94187 1.9418574,1.9418574 0 0 1 1.94186,1.94187 z" />
    <path
       id="path5-9-5-5-9-99"
       style="isolation:isolate;fill:#000000;fill-opacity:1;stroke:#000000;stroke-width:0.560149;stroke-linecap:square;stroke-miterlimit:3;stroke-dashoffset:147.427"
       d="m 311.70335,534.26489 a 1.9418574,1.9418574 0 0 1 -1.94186,1.94187 1.9418574,1.9418574 0 0 1 -1.94187,-1.94187 1.9418574,1.9418574 0 0 1 1.94187,-1.94187 1.9418574,1.9418574 0 0 1 1.94186,1.94187 z" />
    <path
       id="path5-9-5-5-9-26"
       style="isolation:isolate;fill:#000000;fill-opacity:1;stroke:#000000;stroke-width:0.560149;stroke-linecap:square;stroke-miterlimit:3;stroke-dashoffset:147.427"
       d="m 272.15802,480.28496 a 1.9418574,1.9418574 0 0 1 -1.94186,1.94187 1.9418574,1.9418574 0 0 1 -1.94187,-1.94187 1.9418574,1.9418574 0 0 1 1.94187,-1.94187 1.9418574,1.9418574 0 0 1 1.94186,1.94187 z" />
    <path
       id="path5-9-5-5-9-37"
       style="isolation:isolate;fill:#000000;fill-opacity:1;stroke:#000000;stroke-width:0.560149;stroke-linecap:square;stroke-miterlimit:3;stroke-dashoffset:147.427"
       d="m 241.1347,481.16972 a 1.9418574,1.9418574 0 0 1 -1.94186,1.94187 1.9418574,1.9418574 0 0 1 -1.94187,-1.94187 1.9418574,1.9418574 0 0 1 1.94187,-1.94187 1.9418574,1.9418574 0 0 1 1.94186,1.94187 z" />
    <path
       id="path5-9-5-5-9-65"
       style="isolation:isolate;fill:#000000;fill-opacity:1;stroke:#000000;stroke-width:0.560149;stroke-linecap:square;stroke-miterlimit:3;stroke-dashoffset:147.427"
       d="m 223.28468,506.58667 a 1.9418574,1.9418574 0 0 1 -1.94186,1.94187 1.9418574,1.9418574 0 0 1 -1.94187,-1.94187 1.9418574,1.9418574 0 0 1 1.94187,-1.94187 1.9418574,1.9418574 0 0 1 1.94186,1.94187 z" />
    <path
       id="path5-9-5-5-9-90"
       style="isolation:isolate;fill:#000000;fill-opacity:1;stroke:#000000;stroke-width:0.560149;stroke-linecap:square;stroke-miterlimit:3;stroke-dashoffset:147.427"
       d="m 125.77096,390.72865 a 1.9418574,1.9418574 0 0 1 -1.94186,1.94187 1.9418574,1.9418574 0 0 1 -1.94187,-1.94187 1.9418574,1.9418574 0 0 1 1.94187,-1.94187 1.9418574,1.9418574 0 0 1 1.94186,1.94187 z" />
    <path
       id="path5-9-5-5-9-38"
       style="isolation:isolate;fill:#000000;fill-opacity:1;stroke:#000000;stroke-width:0.560149;stroke-linecap:square;stroke-miterlimit:3;stroke-dashoffset:147.427"
       d="m 169.04088,454.35679 a 1.9418574,1.9418574 0 0 1 -1.94186,1.94187 1.9418574,1.9418574 0 0 1 -1.94187,-1.94187 1.9418574,1.9418574 0 0 1 1.94187,-1.94187 1.9418574,1.9418574 0 0 1 1.94186,1.94187 z" />
    <path
       id="path5-9-5-5-9-91"
       style="isolation:isolate;fill:#000000;fill-opacity:1;stroke:#000000;stroke-width:0.560149;stroke-linecap:square;stroke-miterlimit:3;stroke-dashoffset:147.427"
       d="m 181.36033,480.44505 a 1.9418574,1.9418574 0 0 1 -1.94186,1.94187 1.9418574,1.9418574 0 0 1 -1.94187,-1.94187 1.9418574,1.9418574 0 0 1 1.94187,-1.94187 1.9418574,1.9418574 0 0 1 1.94186,1.94187 z" />
    <path
       id="path5-9-5-5-9-10"
       style="isolation:isolate;fill:#000000;fill-opacity:1;stroke:#000000;stroke-width:0.560149;stroke-linecap:square;stroke-miterlimit:3;stroke-dashoffset:147.427"
       d="m 163.24349,430.44256 a 1.9418574,1.9418574 0 0 1 -1.94186,1.94187 1.9418574,1.9418574 0 0 1 -1.94187,-1.94187 1.9418574,1.9418574 0 0 1 1.94187,-1.94187 1.9418574,1.9418574 0 0 1 1.94186,1.94187 z" />
    <path
       id="path5-9-5-5-9-317"
       style="isolation:isolate;fill:#000000;fill-opacity:1;stroke:#000000;stroke-width:0.560149;stroke-linecap:square;stroke-miterlimit:3;stroke-dashoffset:147.427"
       d="m 155.64563,403.8431 a 1.9418574,1.9418574 0 0 1 -1.94186,1.94187 1.9418574,1.9418574 0 0 1 -1.94187,-1.94187 1.9418574,1.9418574 0 0 1 1.94187,-1.94187 1.9418574,1.9418574 0 0 1 1.94186,1.94187 z" />
    <path
       id="path5-9-5-5-9-49"
       style="isolation:isolate;fill:#000000;fill-opacity:1;stroke:#000000;stroke-width:0.560149;stroke-linecap:square;stroke-miterlimit:3;stroke-dashoffset:147.427"
       d="m 202.42076,357.47244 a 1.9418574,1.9418574 0 0 1 -1.94186,1.94187 1.9418574,1.9418574 0 0 1 -1.94187,-1.94187 1.9418574,1.9418574 0 0 1 1.94187,-1.94187 1.9418574,1.9418574 0 0 1 1.94186,1.94187 z" />
    <path
       id="path5-9-5-5-9-907"
       style="isolation:isolate;fill:#000000;fill-opacity:1;stroke:#000000;stroke-width:0.560149;stroke-linecap:square;stroke-miterlimit:3;stroke-dashoffset:147.427"
       d="m 154.45465,346.91406 a 1.9418574,1.9418574 0 0 1 -1.94186,1.94187 1.9418574,1.9418574 0 0 1 -1.94187,-1.94187 1.9418574,1.9418574 0 0 1 1.94187,-1.94187 1.9418574,1.9418574 0 0 1 1.94186,1.94187 z" />
    <path
       id="path5-9-5-5-9-296"
       style="isolation:isolate;fill:#000000;fill-opacity:1;stroke:#000000;stroke-width:0.560149;stroke-linecap:square;stroke-miterlimit:3;stroke-dashoffset:147.427"
       d="m 115.54124,325.60078 a 1.9418574,1.9418574 0 0 1 -1.94186,1.94187 1.9418574,1.9418574 0 0 1 -1.94187,-1.94187 1.9418574,1.9418574 0 0 1 1.94187,-1.94187 1.9418574,1.9418574 0 0 1 1.94186,1.94187 z" />
    <path
       id="path5-9-5-5-9-48"
       style="isolation:isolate;fill:#000000;fill-opacity:1;stroke:#000000;stroke-width:0.560149;stroke-linecap:square;stroke-miterlimit:3;stroke-dashoffset:147.427"
       d="m 267.43642,304.7538 a 1.9418574,1.9418574 0 0 1 -1.94186,1.94187 1.9418574,1.9418574 0 0 1 -1.94187,-1.94187 1.9418574,1.9418574 0 0 1 1.94187,-1.94187 1.9418574,1.9418574 0 0 1 1.94186,1.94187 z" />
    <path
       id="path5-9-5-5-9-115"
       style="isolation:isolate;fill:#000000;fill-opacity:1;stroke:#000000;stroke-width:0.560149;stroke-linecap:square;stroke-miterlimit:3;stroke-dashoffset:147.427"
       d="m 253.90352,232.56426 a 1.9418574,1.9418574 0 0 1 -1.94186,1.94187 1.9418574,1.9418574 0 0 1 -1.94187,-1.94187 1.9418574,1.9418574 0 0 1 1.94187,-1.94187 1.9418574,1.9418574 0 0 1 1.94186,1.94187 z" />
    <path
       id="path5-9-5-5-9-53"
       style="isolation:isolate;fill:#000000;fill-opacity:1;stroke:#000000;stroke-width:0.560149;stroke-linecap:square;stroke-miterlimit:3;stroke-dashoffset:147.427"
       d="m 365.77858,322.41281 a 1.9418574,1.9418574 0 0 1 -1.94186,1.94187 1.9418574,1.9418574 0 0 1 -1.94187,-1.94187 1.9418574,1.9418574 0 0 1 1.94187,-1.94187 1.9418574,1.9418574 0 0 1 1.94186,1.94187 z" />
    <path
       id="path5-9-5-5-9-43"
       style="isolation:isolate;fill:#000000;fill-opacity:1;stroke:#000000;stroke-width:0.560149;stroke-linecap:square;stroke-miterlimit:3;stroke-dashoffset:147.427"
       d="m 345.48772,294.55501 a 1.9418574,1.9418574 0 0 1 -1.94186,1.94187 1.9418574,1.9418574 0 0 1 -1.94187,-1.94187 1.9418574,1.9418574 0 0 1 1.94187,-1.94187 1.9418574,1.9418574 0 0 1 1.94186,1.94187 z" />
    <path
       id="path5-9-5-5-9-54"
       style="isolation:isolate;fill:#000000;fill-opacity:1;stroke:#000000;stroke-width:0.560149;stroke-linecap:square;stroke-miterlimit:3;stroke-dashoffset:147.427"
       d="m 348.05917,263.15664 a 1.9418574,1.9418574 0 0 1 -1.94186,1.94187 1.9418574,1.9418574 0 0 1 -1.94187,-1.94187 1.9418574,1.9418574 0 0 1 1.94187,-1.94187 1.9418574,1.9418574 0 0 1 1.94186,1.94187 z" />
    <path
       id="path5-9-5-5-9-264"
       style="isolation:isolate;fill:#000000;fill-opacity:1;stroke:#000000;stroke-width:0.560149;stroke-linecap:square;stroke-miterlimit:3;stroke-dashoffset:147.427"
       d="m 373.10113,248.5719 a 1.9418574,1.9418574 0 0 1 -1.94186,1.94187 1.9418574,1.9418574 0 0 1 -1.94187,-1.94187 1.9418574,1.9418574 0 0 1 1.94187,-1.94187 1.9418574,1.9418574 0 0 1 1.94186,1.94187 z" />
    <path
       id="path5-9-5-5-9-95"
       style="isolation:isolate;fill:#000000;fill-opacity:1;stroke:#000000;stroke-width:0.560149;stroke-linecap:square;stroke-miterlimit:3;stroke-dashoffset:147.427"
       d="m 246.40542,413.11922 a 1.9418574,1.9418574 0 0 1 -1.94186,1.94187 1.9418574,1.9418574 0 0 1 -1.94187,-1.94187 1.9418574,1.9418574 0 0 1 1.94187,-1.94187 1.9418574,1.9418574 0 0 1 1.94186,1.94187 z" />
    <path
       id="path5-9-5-5-9-1"
       style="isolation:isolate;fill:#000000;fill-opacity:1;stroke:#000000;stroke-width:0.560149;stroke-linecap:square;stroke-miterlimit:3;stroke-dashoffset:147.427"
       d="m 225.45453,425.52264 a 1.9418574,1.9418574 0 0 1 -1.94186,1.94187 1.9418574,1.9418574 0 0 1 -1.94187,-1.94187 1.9418574,1.9418574 0 0 1 1.94187,-1.94187 1.9418574,1.9418574 0 0 1 1.94186,1.94187 z" />
    <path
       id="path5-9-5-5-9-2"
       style="isolation:isolate;fill:#000000;fill-opacity:1;stroke:#000000;stroke-width:0.560149;stroke-linecap:square;stroke-miterlimit:3;stroke-dashoffset:147.427"
       d="m 235.71086,355.80116 a 1.9418574,1.9418574 0 0 1 -1.94186,1.94187 1.9418574,1.9418574 0 0 1 -1.94187,-1.94187 1.9418574,1.9418574 0 0 1 1.94187,-1.94187 1.9418574,1.9418574 0 0 1 1.94186,1.94187 z" />
    <path
       id="path5-9-5-5-9-7"
       style="isolation:isolate;fill:#000000;fill-opacity:1;stroke:#000000;stroke-width:0.560149;stroke-linecap:square;stroke-miterlimit:3;stroke-dashoffset:147.427"
       d="m 258.87797,335.99059 a 1.9418574,1.9418574 0 0 1 -1.94186,1.94187 1.9418574,1.9418574 0 0 1 -1.94187,-1.94187 1.9418574,1.9418574 0 0 1 1.94187,-1.94187 1.9418574,1.9418574 0 0 1 1.94186,1.94187 z" />
    <path
       id="path5-9-5-9"
       style="isolation:isolate;fill:#000000;fill-opacity:1;stroke:#000000;stroke-width:0.560149;stroke-linecap:square;stroke-miterlimit:3;stroke-dashoffset:147.427"
       d="m 320.49769,416.67375 a 1.9418574,1.9418574 0 0 1 -1.94186,1.94186 1.9418574,1.9418574 0 0 1 -1.94187,-1.94186 1.9418574,1.9418574 0 0 1 1.94187,-1.94186 1.9418574,1.9418574 0 0 1 1.94186,1.94186 z" />
    <path
       id="path5-9-5-6"
       style="isolation:isolate;fill:#000000;fill-opacity:1;stroke:#000000;stroke-width:0.560149;stroke-linecap:square;stroke-miterlimit:3;stroke-dashoffset:147.427"
       d="m 353.47456,447.7898 a 1.9418574,1.9418574 0 0 1 -1.94186,1.94186 1.9418574,1.9418574 0 0 1 -1.94187,-1.94186 1.9418574,1.9418574 0 0 1 1.94187,-1.94186 1.9418574,1.9418574 0 0 1 1.94186,1.94186 z" />
    <path
       id="path5-9-5-4"
       style="isolation:isolate;fill:#000000;fill-opacity:1;stroke:#000000;stroke-width:0.560149;stroke-linecap:square;stroke-miterlimit:3;stroke-dashoffset:147.427"
       d="m 322.67171,455.80613 a 1.9418574,1.9418574 0 0 1 -1.94186,1.94186 1.9418574,1.9418574 0 0 1 -1.94187,-1.94186 1.9418574,1.9418574 0 0 1 1.94187,-1.94186 1.9418574,1.9418574 0 0 1 1.94186,1.94186 z" />
    <path
       id="path5-9-5-48"
       style="isolation:isolate;fill:#000000;fill-opacity:1;stroke:#000000;stroke-width:0.560149;stroke-linecap:square;stroke-miterlimit:3;stroke-dashoffset:147.427"
       d="m 293.68476,447.11005 a 1.9418574,1.9418574 0 0 1 -1.94186,1.94186 1.9418574,1.9418574 0 0 1 -1.94187,-1.94186 1.9418574,1.9418574 0 0 1 1.94187,-1.94186 1.9418574,1.9418574 0 0 1 1.94186,1.94186 z" />
    <path
       id="path5-9-5-98"
       style="isolation:isolate;fill:#000000;fill-opacity:1;stroke:#000000;stroke-width:0.560149;stroke-linecap:square;stroke-miterlimit:3;stroke-dashoffset:147.427"
       d="m 282.81466,419.57244 a 1.9418574,1.9418574 0 0 1 -1.94186,1.94186 1.9418574,1.9418574 0 0 1 -1.94187,-1.94186 1.9418574,1.9418574 0 0 1 1.94187,-1.94186 1.9418574,1.9418574 0 0 1 1.94186,1.94186 z" />
    <path
       id="path5-9-5-94"
       style="isolation:isolate;fill:#000000;fill-opacity:1;stroke:#000000;stroke-width:0.560149;stroke-linecap:square;stroke-miterlimit:3;stroke-dashoffset:147.427"
       d="m 292.23542,391.31017 a 1.9418574,1.9418574 0 0 1 -1.94186,1.94186 1.9418574,1.9418574 0 0 1 -1.94187,-1.94186 1.9418574,1.9418574 0 0 1 1.94187,-1.94186 1.9418574,1.9418574 0 0 1 1.94186,1.94186 z" />
    <path
       id="path5-9-5-65"
       style="isolation:isolate;fill:#000000;fill-opacity:1;stroke:#000000;stroke-width:0.560149;stroke-linecap:square;stroke-miterlimit:3;stroke-dashoffset:147.427"
       d="m 321.22237,379.71539 a 1.9418574,1.9418574 0 0 1 -1.94186,1.94186 1.9418574,1.9418574 0 0 1 -1.94187,-1.94186 1.9418574,1.9418574 0 0 1 1.94187,-1.94186 1.9418574,1.9418574 0 0 1 1.94186,1.94186 z" />
    <path
       id="path5-9-5-5-9-93"
       style="isolation:isolate;fill:#000000;fill-opacity:1;stroke:#000000;stroke-width:0.560149;stroke-linecap:square;stroke-miterlimit:3;stroke-dashoffset:147.427"
       d="m 401.57686,319.94103 a 1.9418574,1.9418574 0 0 1 -1.94186,1.94187 1.9418574,1.9418574 0 0 1 -1.94187,-1.94187 1.9418574,1.9418574 0 0 1 1.94187,-1.94187 1.9418574,1.9418574 0 0 1 1.94186,1.94187 z" />
    <path
       id="path5-9-5-5-9-900"
       style="isolation:isolate;fill:#000000;fill-opacity:1;stroke:#000000;stroke-width:0.560149;stroke-linecap:square;stroke-miterlimit:3;stroke-dashoffset:147.427"
       d="m 424.33951,343.02386 a 1.9418574,1.9418574 0 0 1 -1.94187,1.94187 1.9418574,1.9418574 0 0 1 -1.94187,-1.94187 1.9418574,1.9418574 0 0 1 1.94187,-1.94187 1.9418574,1.9418574 0 0 1 1.94187,1.94187 z" />
    <path
       id="path5-9-5-5-9-24"
       style="isolation:isolate;fill:#000000;fill-opacity:1;stroke:#000000;stroke-width:0.560149;stroke-linecap:square;stroke-miterlimit:3;stroke-dashoffset:147.427"
       d="m 461.94673,342.29919 a 1.9418574,1.9418574 0 0 1 -1.94186,1.94187 1.9418574,1.9418574 0 0 1 -1.94187,-1.94187 1.9418574,1.9418574 0 0 1 1.94187,-1.94187 1.9418574,1.9418574 0 0 1 1.94186,1.94187 z" />
    <path
       id="path5-9-5-5-9-06"
       style="isolation:isolate;fill:#000000;fill-opacity:1;stroke:#000000;stroke-width:0.560149;stroke-linecap:square;stroke-miterlimit:3;stroke-dashoffset:147.427"
       d="m 489.27087,319.50565 a 1.9418574,1.9418574 0 0 1 -1.94187,1.94187 1.9418574,1.9418574 0 0 1 -1.94186,-1.94187 1.9418574,1.9418574 0 0 1 1.94186,-1.94187 1.9418574,1.9418574 0 0 1 1.94187,1.94187 z" />
    <path
       id="path5-9-5-5-9-32"
       style="isolation:isolate;fill:#000000;fill-opacity:1;stroke:#000000;stroke-width:0.560149;stroke-linecap:square;stroke-miterlimit:3;stroke-dashoffset:147.427"
       d="m 446.59093,392.75952 a 1.9418574,1.9418574 0 0 1 -1.94186,1.94187 1.9418574,1.9418574 0 0 1 -1.94187,-1.94187 1.9418574,1.9418574 0 0 1 1.94187,-1.94187 1.9418574,1.9418574 0 0 1 1.94186,1.94187 z" />
    <path
       id="path5-9-5-5-9-87"
       style="isolation:isolate;fill:#000000;fill-opacity:1;stroke:#000000;stroke-width:0.560149;stroke-linecap:square;stroke-miterlimit:3;stroke-dashoffset:147.427"
       d="m 470.2468,416.72712 a 1.9418574,1.9418574 0 0 1 -1.94186,1.94187 1.9418574,1.9418574 0 0 1 -1.94187,-1.94187 1.9418574,1.9418574 0 0 1 1.94187,-1.94187 1.9418574,1.9418574 0 0 1 1.94186,1.94187 z" />
    <path
       id="path5-9-5-5-9-290"
       style="isolation:isolate;fill:#000000;fill-opacity:1;stroke:#000000;stroke-width:0.560149;stroke-linecap:square;stroke-miterlimit:3;stroke-dashoffset:147.427"
       d="m 379.20176,483.20609 a 1.9418574,1.9418574 0 0 1 -1.94186,1.94187 1.9418574,1.9418574 0 0 1 -1.94187,-1.94187 1.9418574,1.9418574 0 0 1 1.94187,-1.94187 1.9418574,1.9418574 0 0 1 1.94186,1.94187 z" />
    <path
       id="path5-9-5-5-9-16"
       style="isolation:isolate;fill:#000000;fill-opacity:1;stroke:#000000;stroke-width:0.560149;stroke-linecap:square;stroke-miterlimit:3;stroke-dashoffset:147.427"
       d="m 449.32105,524.65015 a 1.9418574,1.9418574 0 0 1 -1.94186,1.94187 1.9418574,1.9418574 0 0 1 -1.94187,-1.94187 1.9418574,1.9418574 0 0 1 1.94187,-1.94187 1.9418574,1.9418574 0 0 1 1.94186,1.94187 z" />
    <path
       id="path5-9-5-5-9-79"
       style="isolation:isolate;fill:#000000;fill-opacity:1;stroke:#000000;stroke-width:0.560149;stroke-linecap:square;stroke-miterlimit:3;stroke-dashoffset:147.427"
       d="m 398.93949,522.29359 a 1.9418574,1.9418574 0 0 1 -1.94186,1.94187 1.9418574,1.9418574 0 0 1 -1.94187,-1.94187 1.9418574,1.9418574 0 0 1 1.94187,-1.94187 1.9418574,1.9418574 0 0 1 1.94186,1.94187 z" />
    <path
       id="path5-9-5-5-9-84"
       style="isolation:isolate;fill:#000000;fill-opacity:1;stroke:#000000;stroke-width:0.560149;stroke-linecap:square;stroke-miterlimit:3;stroke-dashoffset:147.427"
       d="m 372.70512,559.17613 a 1.9418574,1.9418574 0 0 1 -1.94186,1.94187 1.9418574,1.9418574 0 0 1 -1.94187,-1.94187 1.9418574,1.9418574 0 0 1 1.94187,-1.94187 1.9418574,1.9418574 0 0 1 1.94186,1.94187 z" />
    <path
       id="path5-9-5-5-9-903"
       style="isolation:isolate;fill:#000000;fill-opacity:1;stroke:#000000;stroke-width:0.560149;stroke-linecap:square;stroke-miterlimit:3;stroke-dashoffset:147.427"
       d="m 330.64312,571.75394 a 1.9418574,1.9418574 0 0 1 -1.94186,1.94187 1.9418574,1.9418574 0 0 1 -1.94187,-1.94187 1.9418574,1.9418574 0 0 1 1.94187,-1.94187 1.9418574,1.9418574 0 0 1 1.94186,1.94187 z" />
    <path
       id="path5-9-5-5-9-08"
       style="isolation:isolate;fill:#000000;fill-opacity:1;stroke:#000000;stroke-width:0.560149;stroke-linecap:square;stroke-miterlimit:3;stroke-dashoffset:147.427"
       d="m 107.92347,516.47925 a 1.9418574,1.9418574 0 0 1 -1.94186,1.94187 1.9418574,1.9418574 0 0 1 -1.94187,-1.94187 1.9418574,1.9418574 0 0 1 1.94187,-1.94187 1.9418574,1.9418574 0 0 1 1.94186,1.94187 z" />
    <path
       id="path5-9-5-5-9-161"
       style="isolation:isolate;fill:#000000;fill-opacity:1;stroke:#000000;stroke-width:0.560149;stroke-linecap:square;stroke-miterlimit:3;stroke-dashoffset:147.427"
       d="m 240.32573,544.5899 a 1.9418574,1.9418574 0 0 1 -1.94186,1.94187 1.9418574,1.9418574 0 0 1 -1.94187,-1.94187 1.9418574,1.9418574 0 0 1 1.94187,-1.94187 1.9418574,1.9418574 0 0 1 1.94186,1.94187 z" />
    <path
       id="path5-9-5-5-9-28"
       style="isolation:isolate;fill:#000000;fill-opacity:1;stroke:#000000;stroke-width:0.560149;stroke-linecap:square;stroke-miterlimit:3;stroke-dashoffset:147.427"
       d="m 223.78741,593.80038 a 1.9418574,1.9418574 0 0 1 -1.94186,1.94187 1.9418574,1.9418574 0 0 1 -1.94187,-1.94187 1.9418574,1.9418574 0 0 1 1.94187,-1.94187 1.9418574,1.9418574 0 0 1 1.94186,1.94187 z" />
    <path
       id="path5-9-5-5-9-103"
       style="isolation:isolate;fill:#000000;fill-opacity:1;stroke:#000000;stroke-width:0.560149;stroke-linecap:square;stroke-miterlimit:3;stroke-dashoffset:147.427"
       d="m 253.10303,582.62405 a 1.9418574,1.9418574 0 0 1 -1.94186,1.94187 1.9418574,1.9418574 0 0 1 -1.94187,-1.94187 1.9418574,1.9418574 0 0 1 1.94187,-1.94187 1.9418574,1.9418574 0 0 1 1.94186,1.94187 z" />
    <path
       id="path5-9-5-5-9-81"
       style="isolation:isolate;fill:#000000;fill-opacity:1;stroke:#000000;stroke-width:0.560149;stroke-linecap:square;stroke-miterlimit:3;stroke-dashoffset:147.427"
       d="m 496.59342,407.253 a 1.9418574,1.9418574 0 0 1 -1.94186,1.94187 1.9418574,1.9418574 0 0 1 -1.94187,-1.94187 1.9418574,1.9418574 0 0 1 1.94187,-1.94187 1.9418574,1.9418574 0 0 1 1.94186,1.94187 z" />
    <path
       id="path5-9-5-5-9-996"
       style="isolation:isolate;fill:#000000;fill-opacity:1;stroke:#000000;stroke-width:0.560149;stroke-linecap:square;stroke-miterlimit:3;stroke-dashoffset:147.427"
       d="m 495.86874,429.71789 a 1.9418574,1.9418574 0 0 1 -1.94186,1.94187 1.9418574,1.9418574 0 0 1 -1.94187,-1.94187 1.9418574,1.9418574 0 0 1 1.94187,-1.94187 1.9418574,1.9418574 0 0 1 1.94186,1.94187 z" />
    <path
       id="path5-9-5-5-9-840"
       style="isolation:isolate;fill:#000000;fill-opacity:1;stroke:#000000;stroke-width:0.560149;stroke-linecap:square;stroke-miterlimit:3;stroke-dashoffset:147.427"
       d="m 500.48361,274.0422 a 1.9418574,1.9418574 0 0 1 -1.94186,1.94187 1.9418574,1.9418574 0 0 1 -1.94187,-1.94187 1.9418574,1.9418574 0 0 1 1.94187,-1.94187 1.9418574,1.9418574 0 0 1 1.94186,1.94187 z" />
    <path
       id="path5-9-5-5-9-96"
       style="isolation:isolate;fill:#000000;fill-opacity:1;stroke:#000000;stroke-width:0.560149;stroke-linecap:square;stroke-miterlimit:3;stroke-dashoffset:147.427"
       d="m 519.32513,309.23103 a 1.9418574,1.9418574 0 0 1 -1.94186,1.94187 1.9418574,1.9418574 0 0 1 -1.94187,-1.94187 1.9418574,1.9418574 0 0 1 1.94187,-1.94187 1.9418574,1.9418574 0 0 1 1.94186,1.94187 z" />
    <path
       id="path5-9-5-5-9-315"
       style="isolation:isolate;fill:#000000;fill-opacity:1;stroke:#000000;stroke-width:0.560149;stroke-linecap:square;stroke-miterlimit:3;stroke-dashoffset:147.427"
       d="m 540.66933,344.69514 a 1.9418574,1.9418574 0 0 1 -1.94186,1.94187 1.9418574,1.9418574 0 0 1 -1.94187,-1.94187 1.9418574,1.9418574 0 0 1 1.94187,-1.94187 1.9418574,1.9418574 0 0 1 1.94186,1.94187 z" />
    <path
       id="path5-9-5-5-9-288"
       style="isolation:isolate;fill:#000000;fill-opacity:1;stroke:#000000;stroke-width:0.560149;stroke-linecap:square;stroke-miterlimit:3;stroke-dashoffset:147.427"
       d="m 544.42188,385.51279 a 1.9418574,1.9418574 0 0 1 -1.94186,1.94187 1.9418574,1.9418574 0 0 1 -1.94187,-1.94187 1.9418574,1.9418574 0 0 1 1.94187,-1.94187 1.9418574,1.9418574 0 0 1 1.94186,1.94187 z" />
    <path
       id="path5-9-5-5-9-110"
       style="isolation:isolate;fill:#000000;fill-opacity:1;stroke:#000000;stroke-width:0.560149;stroke-linecap:square;stroke-miterlimit:3;stroke-dashoffset:147.427"
       d="m 546.5959,410.79208 a 1.9418574,1.9418574 0 0 1 -1.94186,1.94187 1.9418574,1.9418574 0 0 1 -1.94187,-1.94187 1.9418574,1.9418574 0 0 1 1.94187,-1.94187 1.9418574,1.9418574 0 0 1 1.94186,1.94187 z" />
    <path
       id="path5-9-5-5-9-297"
       style="isolation:isolate;fill:#000000;fill-opacity:1;stroke:#000000;stroke-width:0.560149;stroke-linecap:square;stroke-miterlimit:3;stroke-dashoffset:147.427"
       d="m 547.05375,442.27325 a 1.9418574,1.9418574 0 0 1 -1.94186,1.94187 1.9418574,1.9418574 0 0 1 -1.94187,-1.94187 1.9418574,1.9418574 0 0 1 1.94187,-1.94187 1.9418574,1.9418574 0 0 1 1.94186,1.94187 z" />
    <path
       id="path5-9-5-5-9-106"
       style="isolation:isolate;fill:#000000;fill-opacity:1;stroke:#000000;stroke-width:0.560149;stroke-linecap:square;stroke-miterlimit:3;stroke-dashoffset:147.427"
       d="m 530.91991,503.23859 a 1.9418574,1.9418574 0 0 1 -1.94186,1.94187 1.9418574,1.9418574 0 0 1 -1.94187,-1.94187 1.9418574,1.9418574 0 0 1 1.94187,-1.94187 1.9418574,1.9418574 0 0 1 1.94186,1.94187 z" />
    <path
       id="path5-9-5-5-9-45"
       style="isolation:isolate;fill:#000000;fill-opacity:1;stroke:#000000;stroke-width:0.560149;stroke-linecap:square;stroke-miterlimit:3;stroke-dashoffset:147.427"
       d="m 435.72082,613.78502 a 1.9418574,1.9418574 0 0 1 -1.94186,1.94187 1.9418574,1.9418574 0 0 1 -1.94187,-1.94187 1.9418574,1.9418574 0 0 1 1.94187,-1.94187 1.9418574,1.9418574 0 0 1 1.94186,1.94187 z" />
    <path
       id="path5-9-5-5-9-095"
       style="isolation:isolate;fill:#000000;fill-opacity:1;stroke:#000000;stroke-width:0.560149;stroke-linecap:square;stroke-miterlimit:3;stroke-dashoffset:147.427"
       d="m 411.78414,627.66055 a 1.9418574,1.9418574 0 0 1 -1.94186,1.94187 1.9418574,1.9418574 0 0 1 -1.94187,-1.94187 1.9418574,1.9418574 0 0 1 1.94187,-1.94187 1.9418574,1.9418574 0 0 1 1.94186,1.94187 z" />
    <path
       id="path5-9-5-5-9-081"
       style="isolation:isolate;fill:#000000;fill-opacity:1;stroke:#000000;stroke-width:0.560149;stroke-linecap:square;stroke-miterlimit:3;stroke-dashoffset:147.427"
       d="m 380.24961,639.92664 a 1.9418574,1.9418574 0 0 1 -1.94186,1.94187 1.9418574,1.9418574 0 0 1 -1.94187,-1.94187 1.9418574,1.9418574 0 0 1 1.94187,-1.94187 1.9418574,1.9418574 0 0 1 1.94186,1.94187 z" />
    <path
       id="path5-9-5-5-9-02"
       style="isolation:isolate;fill:#000000;fill-opacity:1;stroke:#000000;stroke-width:0.560149;stroke-linecap:square;stroke-miterlimit:3;stroke-dashoffset:147.427"
       d="m 260.34977,637.69925 a 1.9418574,1.9418574 0 0 1 -1.94186,1.94187 1.9418574,1.9418574 0 0 1 -1.94187,-1.94187 1.9418574,1.9418574 0 0 1 1.94187,-1.94187 1.9418574,1.9418574 0 0 1 1.94186,1.94187 z" />
    <path
       id="path5-9-5-5-9-154"
       style="isolation:isolate;fill:#000000;fill-opacity:1;stroke:#000000;stroke-width:0.560149;stroke-linecap:square;stroke-miterlimit:3;stroke-dashoffset:147.427"
       d="m 195.52514,609.97064 a 1.9418574,1.9418574 0 0 1 -1.94186,1.94187 1.9418574,1.9418574 0 0 1 -1.94187,-1.94187 1.9418574,1.9418574 0 0 1 1.94187,-1.94187 1.9418574,1.9418574 0 0 1 1.94186,1.94187 z" />
    <path
       id="path5-9-5-5-9-382"
       style="isolation:isolate;fill:#000000;fill-opacity:1;stroke:#000000;stroke-width:0.560149;stroke-linecap:square;stroke-miterlimit:3;stroke-dashoffset:147.427"
       d="m 166.14218,585.52274 a 1.9418574,1.9418574 0 0 1 -1.94186,1.94187 1.9418574,1.9418574 0 0 1 -1.94187,-1.94187 1.9418574,1.9418574 0 0 1 1.94187,-1.94187 1.9418574,1.9418574 0 0 1 1.94186,1.94187 z" />
    <path
       id="path5-9-5-5-9-156"
       style="isolation:isolate;fill:#000000;fill-opacity:1;stroke:#000000;stroke-width:0.560149;stroke-linecap:square;stroke-miterlimit:3;stroke-dashoffset:147.427"
       d="m 143.51719,566.0942 a 1.9418574,1.9418574 0 0 1 -1.94186,1.94187 1.9418574,1.9418574 0 0 1 -1.94187,-1.94187 1.9418574,1.9418574 0 0 1 1.94187,-1.94187 1.9418574,1.9418574 0 0 1 1.94186,1.94187 z" />
    <path
       id="path5-9-5-5-9-267"
       style="isolation:isolate;fill:#000000;fill-opacity:1;stroke:#000000;stroke-width:0.560149;stroke-linecap:square;stroke-miterlimit:3;stroke-dashoffset:147.427"
       d="m 128.56587,544.16298 a 1.9418574,1.9418574 0 0 1 -1.94186,1.94187 1.9418574,1.9418574 0 0 1 -1.94187,-1.94187 1.9418574,1.9418574 0 0 1 1.94187,-1.94187 1.9418574,1.9418574 0 0 1 1.94186,1.94187 z" />
    <path
       id="path5-9-5-5-9-36"
       style="isolation:isolate;fill:#000000;fill-opacity:1;stroke:#000000;stroke-width:0.560149;stroke-linecap:square;stroke-miterlimit:3;stroke-dashoffset:147.427"
       d="m 150.44374,266.52864 a 1.9418574,1.9418574 0 0 1 -1.94186,1.94187 1.9418574,1.9418574 0 0 1 -1.94187,-1.94187 1.9418574,1.9418574 0 0 1 1.94187,-1.94187 1.9418574,1.9418574 0 0 1 1.94186,1.94187 z" />
    <path
       id="path5-9-5-5-9-59"
       style="isolation:isolate;fill:#000000;fill-opacity:1;stroke:#000000;stroke-width:0.560149;stroke-linecap:square;stroke-miterlimit:3;stroke-dashoffset:147.427"
       d="m 173.01536,243.12561 a 1.9418574,1.9418574 0 0 1 -1.94186,1.94187 1.9418574,1.9418574 0 0 1 -1.94187,-1.94187 1.9418574,1.9418574 0 0 1 1.94187,-1.94187 1.9418574,1.9418574 0 0 1 1.94186,1.94187 z" />
    <path
       id="path5-9-5-5-9-266"
       style="isolation:isolate;fill:#000000;fill-opacity:1;stroke:#000000;stroke-width:0.560149;stroke-linecap:square;stroke-miterlimit:3;stroke-dashoffset:147.427"
       d="m 197.30315,225.30651 a 1.9418574,1.9418574 0 0 1 -1.94186,1.94187 1.9418574,1.9418574 0 0 1 -1.94187,-1.94187 1.9418574,1.9418574 0 0 1 1.94187,-1.94187 1.9418574,1.9418574 0 0 1 1.94186,1.94187 z" />
    <path
       id="path5-9-5-5-9-292"
       style="isolation:isolate;fill:#000000;fill-opacity:1;stroke:#000000;stroke-width:0.560149;stroke-linecap:square;stroke-miterlimit:3;stroke-dashoffset:147.427"
       d="m 226.05419,211.96464 a 1.9418574,1.9418574 0 0 1 -1.94186,1.94187 1.9418574,1.9418574 0 0 1 -1.94187,-1.94187 1.9418574,1.9418574 0 0 1 1.94187,-1.94187 1.9418574,1.9418574 0 0 1 1.94186,1.94187 z" />
    <path
       id="path5-9-5-5-9-67"
       style="isolation:isolate;fill:#000000;fill-opacity:1;stroke:#000000;stroke-width:0.560149;stroke-linecap:square;stroke-miterlimit:3;stroke-dashoffset:147.427"
       d="m 374.57292,194.73258 a 1.9418574,1.9418574 0 0 1 -1.94186,1.94187 1.9418574,1.9418574 0 0 1 -1.94187,-1.94187 1.9418574,1.9418574 0 0 1 1.94187,-1.94187 1.9418574,1.9418574 0 0 1 1.94186,1.94187 z" />
    <path
       id="path5-9-5-5-9-82"
       style="isolation:isolate;fill:#000000;fill-opacity:1;stroke:#000000;stroke-width:0.560149;stroke-linecap:square;stroke-miterlimit:3;stroke-dashoffset:147.427"
       d="m 414.01153,207.24304 a 1.9418574,1.9418574 0 0 1 -1.94186,1.94187 1.9418574,1.9418574 0 0 1 -1.94187,-1.94187 1.9418574,1.9418574 0 0 1 1.94187,-1.94187 1.9418574,1.9418574 0 0 1 1.94186,1.94187 z" />
    <path
       id="path5-9-5-5-9-23"
       style="isolation:isolate;fill:#000000;fill-opacity:1;stroke:#000000;stroke-width:0.560149;stroke-linecap:square;stroke-miterlimit:3;stroke-dashoffset:147.427"
       d="m 449.52901,228.6406 a 1.9418574,1.9418574 0 0 1 -1.94186,1.94187 1.9418574,1.9418574 0 0 1 -1.94187,-1.94187 1.9418574,1.9418574 0 0 1 1.94187,-1.94187 1.9418574,1.9418574 0 0 1 1.94186,1.94187 z" />
    <path
       id="path5-9-5-5-9-57"
       style="isolation:isolate;fill:#000000;fill-opacity:1;stroke:#000000;stroke-width:0.560149;stroke-linecap:square;stroke-miterlimit:3;stroke-dashoffset:147.427"
       d="m 400.14446,234.87043 a 1.9418574,1.9418574 0 0 1 -1.94186,1.94187 1.9418574,1.9418574 0 0 1 -1.94187,-1.94187 1.9418574,1.9418574 0 0 1 1.94187,-1.94187 1.9418574,1.9418574 0 0 1 1.94186,1.94187 z" />
    <path
       id="path5-9-5-5-9-21"
       style="isolation:isolate;fill:#000000;fill-opacity:1;stroke:#000000;stroke-width:0.560149;stroke-linecap:square;stroke-miterlimit:3;stroke-dashoffset:147.427"
       d="m 259.00715,266.7421 a 1.9418574,1.9418574 0 0 1 -1.94186,1.94187 1.9418574,1.9418574 0 0 1 -1.94187,-1.94187 1.9418574,1.9418574 0 0 1 1.94187,-1.94187 1.9418574,1.9418574 0 0 1 1.94186,1.94187 z" />
  </g>
</svg>
