<?xml version="1.0" encoding="UTF-8" standalone="no"?>
<svg
   style="isolation:isolate"
   width="595.32294"
   height="790.01471"
   viewBox="0 0 595.32294 790.01471"
   version="1.1"
   id="svg1"
   sodipodi:docname="smalldeer.svg"
   inkscape:export-filename="smalldeeris.svg"
   inkscape:export-xdpi="96"
   inkscape:export-ydpi="96"
   xmlns:inkscape="http://www.inkscape.org/namespaces/inkscape"
   xmlns:sodipodi="http://sodipodi.sourceforge.net/DTD/sodipodi-0.dtd"
   xmlns="http://www.w3.org/2000/svg"
   xmlns:svg="http://www.w3.org/2000/svg">
  <sodipodi:namedview
     id="namedview1"
     pagecolor="#ffffff"
     bordercolor="#000000"
     borderopacity="0.25"
     inkscape:showpageshadow="2"
     inkscape:pageopacity="0.0"
     inkscape:pagecheckerboard="0"
     inkscape:deskcolor="#d1d1d1">
    <inkscape:page
       x="0"
       y="0"
       width="595.32294"
       height="790.01471"
       id="page2"
       margin="0"
       bleed="0" />
  </sodipodi:namedview>
  <defs
     id="defs1">
    <clipPath
       id="_clipPath_ufUKWNh03Q0ow8cg9bS2G9dNbT4C2wP3">
      <rect
         width="636"
         height="833.5"
         id="rect1"
         x="0"
         y="0" />
    </clipPath>
  </defs>
  <g
     clip-path="url(#_clipPath_ufUKWNh03Q0ow8cg9bS2G9dNbT4C2wP3)"
     id="g1"
     transform="translate(-23.381544,-43.48531)">
    <path
       fill="none"
       fill-rule="evenodd"
       stroke="#000000"
       stroke-linecap="square"
       stroke-linejoin="miter"
       stroke-miterlimit="3"
       stroke-width="1"
       d="M 342.95012,268.63686 41.087,169.658 M 40.5,169.5 50.5,231 m 0,-0.5 30,78.5 M 245.77224,166.72716 58.5,165.5 m -18,6 19,-6.5 m 0,0 12.5,58 M 58.5,165 50,229.5 m 22,-7 23,10 m -23,-10 50,-23.5 m 0,0.5 25,-47 m 0,-0.5 148.14423,163.39123 M 321.19111,268.80649 162,156.5 m 0,0 -29,54.5 m 0,0 15.5,-60 m -26.5,48 11,11.5 m 0,0 -38.5,21 m 2,-0.5 24.5,-32 m -24,33 -21,11 m 0,0 -25,-13.5 M 77.5,243 80,309.5 M 198.35877,254 24,304 M 185.83534,236.97115 30.5,299 m 0,-0.5 50,11.5 m 0,0 -47,-17.5 m 0,0 225.46695,-15.95673 M 24.5,304 132,367 m 0,0 -52.5,-57.5 m 0,0 65.5,41.5 m 0,0 67.5,30.5 m 0,0 6.5,-13 m 10,6 -28,-18 m 0,0 -57.5,-7 m 0,0 L 97,309 m 0,0 -19.5,-68 m 54.5,125 81,15.5 m 0,0 7,3 m 0,0 28.5,27 m 0,0 -0.5,13.5 m 0,0 10,16.5 m 0,0 4.5,-41 m 0,0 -13,9.5 m 13,-9.5 15.5,-13 m 0,0 -48.5,-13 m 0,0 33.5,26.5 m -33.5,-28 10,29.5 M 200,356.5 159,294 m 0,0 7,-78 m 0,0 10.5,82 m 0,0 48,58 m 0,-0.5 53.5,33.5 m -101.5,-91.5 18,50.5 m 23,-59 19.5,75 M 217,289.5 244,224 m 0,0 -13.5,71 m 0,0 18,59 m 0,0 29,34.5 m -60,-99 13.5,7 m 0,-0.5 1.5,50.5 m 26,94.5 41.5,-38 m 0,0 -37,-3.5 m 37,3 -9,-10 m 0,0 -13.5,-4.5 m -19.5,53 -8.5,4.5 m 0,0 -8.5,-3.5 m 0,0 -65.5,-54.5 m 0,0 -20,-1 m 0,0 -1.5,21 m 0,0 15,38 m 0,0 23,25.5 m 0,0 38.5,15 m 0,0 21.5,19.5 m 0,0 -6.5,-17 m 0,0 L 243,467 m 0,0 6.5,-22.5 m -7,-2 -18,14.5 m 0.5,0 19.5,10 m -0.5,0 28,1.5 m 0,0 -15.5,-28 m -41.5,3.5 7,8 m 0,0 29,52.5 M 214,444 230,486 M 213.5,444.5 191,469 m 23,-25.5 -45,1 m 0,0 -1,-43.5 m 0,0 7.5,-12.5 M 155,388 l 14,12 m 0,0 -14,7 m 14,-7 14,34.5 m -0.5,0 13,-31.5 m -12.5,32.5 44,-6 m -44,6 30.5,8.5 m 86,-41 H 327 m 0,-0.5 10.5,-9.5 m 0,0 12.5,-5 m 0,0 -4,28.5 m 0,0 -9.5,-22.5 m -25,9 -39.5,65.5 m 0,0 28,-66 m -42.5,38.5 23.5,6 m 30.5,-44 2.5,94.5 m 0,0 -41,-30.5 m 0,0 4,23 m 0,0 12,24.5 m 0,0 25,-17.5 m 0,0 44.5,-32.5 m 0.5,0 -21.5,-16.5 m 0,0 -24,49 m 24,-49.5 -26.5,-46 M 272.5,467 251,505.5 m 0,0 14,1 m 0,0 12.5,-17 m -11,16.5 -13,24.5 m -2,-24.5 5.5,68.5 m 8,-70 24.5,10.5 m 0,0 -23.5,50.5 m 0,0 -12,-36 m 34.5,-14.5 25.5,6.5 m 0,-0.5 24,-9.5 m 0,0 -24.5,-16 m 24.5,15 14.5,10 m 0,0 21.5,-38 m 0.5,0 -15.5,-19 m 0,0 -12.5,-48 m -35.5,-12 39,24.5 m 0.5,0.5 L 381,413 m 0,0 -34.5,3.5 m 3.5,-28 31.5,25.5 m 1,-1 11,-25.5 m 0,0 L 379,377 m 0,0 -4,-18 m 0,0 -27,30.5 m 0,0 32,-13 m 14,11 -45,1 m 42,-33.5 2.5,33.5 m 0,0 23,-21.5 m 0,0 80.5,-28 m -122,20 24,-60.5 m 0,0 -10,-58 m 0,0 22,60 m 0,0 -20,55 m 0,0 2.5,-43.5 M 392,355.5 416,345 m 0.5,0 50.5,-41.5 m 0,0 19.5,-34.5 m 0,0 8,-53 m 0,0 6.5,54.5 m 0,0 -19.5,39.5 m 0,0 -24.5,22.5 m 0,0 9.5,-28.5 m -9,28.5 -40.5,11 m -10,6 17.5,-5 m 0,0 72.5,-6.5 m 0,0 36.5,-66.5 m -21,38 -78.35337,-58.9369 m -53.09555,20.03606 43.57031,-111.09375 M 464.69351,208.59375 618,210 m 0,0 -59.5,50 m 0,0 -8.5,4 m 0,0 -16.5,8 m 0,0 18,-81 m 0.5,0.5 -11.5,-22 m 0,0 -51,-38 m 0,0 L 338.31971,79.043269 M 309.26743,128.13161 504.5,127.5 m 0,0 -13,5.5 m 12.5,-6.5 37.5,43.5 m 0,0 23,8.5 m 0,0 L 550,159 m 0,0 -46,-32.5 m 61,52.5 -9,82 m -6.5,-59.5 0.5,63.5 m 10,-7 21.5,-81.5 m 0,0 15,-91 m 0,0.5 L 401.74399,44.079327 M 432.79988,114.20553 578,89.5 m 0,0 -1,26 m 0,0.5 -12.5,62.5 m 0,0 23.5,-45 m 1.5,-11 -11.5,-7 m 0,0.5 -96.20553,102.23798 M 363.07993,235.26863 455.31791,138.1893 M 498,338 569,281 m 0,0 -63.22536,124.34075 M 381.5,413 l -1,16.5 m 0,0 -22,35 m 0,0 16,-3.5 m 0,0 4.5,-17 m 0,0 -5,-5 m 5,4.5 12.5,-2 m 0,0 38.5,-49 m 0,0 24,-15 m 0,0 21.5,-1 m 0,0 -1,23 m 0,0 -7.5,12.5 m 0,0 -5,28.5 m 0,0 -22,27.5 m 0,0 19.5,-77 m 0,0 15.5,-14.5 m -15,14.5 14.5,7.5 m -15,-8 7.5,21.5 m -7,-22 -6.5,-13 m -3,47.5 -21,-32 m 21.5,31.5 -50.5,4.5 m 50.5,-4 -33.5,18 m 0,0 -17.5,-11 m 18,10.5 23,25.5 m 0,0 -17,6.5 m 0,0 -36.5,32.5 m 0,0 L 418,441 m 0,0 -2.5,41 m -36.5,-38.5 10,17 m 0,0 -0.5,17 m 0,0 -4.5,17 m -9.5,-33.5 13,46 m -13,-24 9,9.5 m 3.5,13.5 -1.5,15.5 m 0,0 13,70 m -12.5,-70 -46.5,16 m 0,0 12.5,-17 m 181,-249 -40,51 m 0,0 -36.5,10.5 m -117,204.5 14,6 m 0,0 31.5,-2.5 m 3,-8 -34.5,53 m 29,-44.5 -4,22.5 m 0,0.5 -24.5,22 m 25,-22.5 46.5,95.5 m 0,0 -27,-68.5 m -59,-53 -6.5,17.5 m 0,0 -25,1.5 m 0,0 13,12.5 m 0,0 13,-14 m 0,0 20.5,31.5 M 334,555.5 354,543 m -46,14 -5.5,-14.5 m 0,0 -15,7 M 282,531 l 15.5,60 m 0,0 10,-34.5 m -5.5,-13 -19.5,-13 m -16.5,34 32.5,27 m 0,0 -11,-0.5 m 0,0 -22.5,-27.5 m 0,0 5.5,105.5 m 0,0 23.5,-22.5 m 0,0 -29,-83 m 17.5,47.5 -12,59.5 m 17,-79.5 28,116 m 0,0 -22,-61.5 m 22,61.5 -45,-38 m 0,0 19.5,84 m 0,0 25,-46 m 0,0 7,125 m -0.5,-0.5 29,-96 m 0,0 -35.5,-30 m 35.5,30 -5.5,-29 m 0,0 36,-35 m 0,0 44.5,-12.5 m -44,13 -3,-108 m -24,21.5 27,86 m -27.5,-86 -8.5,122 m 0,0 -26,-112 m 0,0 1,-26.5 m -1.5,25.5 36,-9.5 m -35.5,10 -22,-3.5 m -8,8.5 43.5,46.5 M 289,599 345.5,708 m -0.5,-1 59.5,51.5 m 0,0 -23,-87 m 44,-12.5 -9.5,74.5 m 0,0 -31,60 m 0,0 -35,-59 M 384.5,793 322,833.5 m 0,0 -63,-53.5 m 0,0 31,-26 m 0,0 32,79.5 m -63.5,-53 -7,-77 m 0,0 L 257,574 m -5.5,129 20,-33 m -15,-96.5 -25.5,72 m 0,0 2,76.5 m 0,0 26,58.5 m 69,-150 25.5,-45"
       vector-effect="non-scaling-stroke"
       id="path1"
       sodipodi:nodetypes="cccccccccccccccccccccccccccccccccccccccccccccccccccccccccccccccccccccccccccccccccccccccccccccccccccccccccccccccccccccccccccccccccccccccccccccccccccccccccccccccccccccccccccccccccccccccccccccccccccccccccccccccccccccccccccccccccccccccccccccccccccccccccccccccccccccccccccccccccccccccccccccccccccccccccccccccccccccccccccccccccccccccccccccccccccccccccccccccccccccccccccccccccccccccccccccccccccccccccccccccccccccccccccccccccccccccccccccccccccccccccccccccccccccccccccccccccccccccccccccccccccccccccccccccccccccccccccccccccccccccccccccccccccccccccccccccccccccccccccccccccccc" />
  </g>
</svg>
